<svg width="16" height="16" viewBox="0 0 16 16" fill="none" xmlns="http://www.w3.org/2000/svg">
<g clip-path="url(#clip0_1_534)">
<rect width="16" height="16" fill="black"/>
<rect opacity="0.5" x="0.5" y="0.5" width="15" height="15" stroke="#FFBB00"/>
<path d="M8 3L13 8L8 13L3 8L8 3Z" stroke="black"/>
<mask id="path-3-outside-1_1_534" maskUnits="userSpaceOnUse" x="-2.41406" y="-2.41406" width="21" height="21" fill="black">
<rect fill="white" x="-2.41406" y="-2.41406" width="21" height="21"/>
<path d="M16.4141 8L8 16.4141L-0.414062 8L8 -0.414062L16.4141 8ZM2.41406 8L8 13.5859L13.5859 8L8 2.41406L2.41406 8ZM11 8L8 11L5 8L8 5L11 8Z"/>
</mask>
<path d="M16.4141 8L8 16.4141L-0.414062 8L8 -0.414062L16.4141 8ZM2.41406 8L8 13.5859L13.5859 8L8 2.41406L2.41406 8ZM11 8L8 11L5 8L8 5L11 8Z" fill="#FFBB00"/>
<path d="M16.4141 8L17.1212 8.70711L17.8283 8L17.1212 7.29289L16.4141 8ZM8 16.4141L7.29289 17.1212L8 17.8283L8.70711 17.1212L8 16.4141ZM-0.414062 8L-1.12117 7.29289L-1.82828 8L-1.12117 8.70711L-0.414062 8ZM8 -0.414062L8.70711 -1.12117L8 -1.82828L7.29289 -1.12117L8 -0.414062ZM2.41406 8L1.70696 7.29289L0.999849 8L1.70696 8.70711L2.41406 8ZM8 13.5859L7.29289 14.293L8 15.0002L8.70711 14.293L8 13.5859ZM13.5859 8L14.293 8.70711L15.0002 8L14.293 7.29289L13.5859 8ZM8 2.41406L8.70711 1.70696L8 0.999849L7.29289 1.70696L8 2.41406ZM11 8L11.7071 8.70711L12.4142 8L11.7071 7.29289L11 8ZM8 11L7.29289 11.7071L8 12.4142L8.70711 11.7071L8 11ZM5 8L4.29289 7.29289L3.58579 8L4.29289 8.70711L5 8ZM8 5L8.70711 4.29289L8 3.58579L7.29289 4.29289L8 5ZM16.4141 8L15.707 7.29289L7.29289 15.707L8 16.4141L8.70711 17.1212L17.1212 8.70711L16.4141 8ZM8 16.4141L8.70711 15.707L0.293044 7.29289L-0.414062 8L-1.12117 8.70711L7.29289 17.1212L8 16.4141ZM-0.414062 8L0.293044 8.70711L8.70711 0.293044L8 -0.414062L7.29289 -1.12117L-1.12117 7.29289L-0.414062 8ZM8 -0.414062L7.29289 0.293044L15.707 8.70711L16.4141 8L17.1212 7.29289L8.70711 -1.12117L8 -0.414062ZM2.41406 8L1.70696 8.70711L7.29289 14.293L8 13.5859L8.70711 12.8788L3.12117 7.29289L2.41406 8ZM8 13.5859L8.70711 14.293L14.293 8.70711L13.5859 8L12.8788 7.29289L7.29289 12.8788L8 13.5859ZM13.5859 8L14.293 7.29289L8.70711 1.70696L8 2.41406L7.29289 3.12117L12.8788 8.70711L13.5859 8ZM8 2.41406L7.29289 1.70696L1.70696 7.29289L2.41406 8L3.12117 8.70711L8.70711 3.12117L8 2.41406ZM11 8L10.2929 7.29289L7.29289 10.2929L8 11L8.70711 11.7071L11.7071 8.70711L11 8ZM8 11L8.70711 10.2929L5.70711 7.29289L5 8L4.29289 8.70711L7.29289 11.7071L8 11ZM5 8L5.70711 8.70711L8.70711 5.70711L8 5L7.29289 4.29289L4.29289 7.29289L5 8ZM8 5L7.29289 5.70711L10.2929 8.70711L11 8L11.7071 7.29289L8.70711 4.29289L8 5Z" fill="black" mask="url(#path-3-outside-1_1_534)"/>
</g>
<defs>
<clipPath id="clip0_1_534">
<rect width="16" height="16" fill="white"/>
</clipPath>
</defs>
</svg>
