<svg width="16" height="16" viewBox="0 0 16 16" fill="none" xmlns="http://www.w3.org/2000/svg">
<g clip-path="url(#clip0_1_615)">
<rect width="16" height="16" fill="black"/>
<rect opacity="0.5" x="0.5" y="0.5" width="15" height="15" stroke="#FF661A"/>
<mask id="path-2-outside-1_1_615" maskUnits="userSpaceOnUse" x="3" y="-1" width="10" height="18" fill="black">
<rect fill="white" x="3" y="-1" width="10" height="18"/>
<path d="M6.06348 6C6.63734 6.31819 7.29734 6.5 8 6.5C8.70266 6.5 9.36266 6.31819 9.93652 6H11C11.5523 6 12 6.44772 12 7V7.81836C12 7.93827 11.9786 8.05764 11.9365 8.16992L9.35156 15.0635C9.14036 15.6267 8.60151 16 8 16C7.39849 16 6.85964 15.6267 6.64844 15.0635L4.06348 8.16992C4.02137 8.05764 4 7.93827 4 7.81836V7C4 6.44772 4.44772 6 5 6H6.06348ZM8 0C9.38071 0 10.5 1.11929 10.5 2.5C10.5 3.88071 9.38071 5 8 5C6.61929 5 5.5 3.88071 5.5 2.5C5.5 1.11929 6.61929 0 8 0Z"/>
</mask>
<path d="M6.06348 6C6.63734 6.31819 7.29734 6.5 8 6.5C8.70266 6.5 9.36266 6.31819 9.93652 6H11C11.5523 6 12 6.44772 12 7V7.81836C12 7.93827 11.9786 8.05764 11.9365 8.16992L9.35156 15.0635C9.14036 15.6267 8.60151 16 8 16C7.39849 16 6.85964 15.6267 6.64844 15.0635L4.06348 8.16992C4.02137 8.05764 4 7.93827 4 7.81836V7C4 6.44772 4.44772 6 5 6H6.06348ZM8 0C9.38071 0 10.5 1.11929 10.5 2.5C10.5 3.88071 9.38071 5 8 5C6.61929 5 5.5 3.88071 5.5 2.5C5.5 1.11929 6.61929 0 8 0Z" fill="#FF661A"/>
<path d="M6.06348 6L6.5484 5.12544L6.32216 5H6.06348V6ZM9.93652 6V5H9.67784L9.4516 5.12544L9.93652 6ZM11.9365 8.16992L11.0002 7.8188L11.0002 7.81881L11.9365 8.16992ZM9.35156 15.0635L10.2879 15.4146L10.2879 15.4146L9.35156 15.0635ZM6.64844 15.0635L5.7121 15.4146L5.71211 15.4146L6.64844 15.0635ZM4.06348 8.16992L4.99981 7.81881L4.99981 7.8188L4.06348 8.16992ZM6.06348 6L5.57856 6.87456C6.29637 7.27257 7.12268 7.5 8 7.5V6.5V5.5C7.47199 5.5 6.97831 5.36382 6.5484 5.12544L6.06348 6ZM8 6.5V7.5C8.87732 7.5 9.70363 7.27257 10.4214 6.87456L9.93652 6L9.4516 5.12544C9.02169 5.36382 8.52801 5.5 8 5.5V6.5ZM9.93652 6V7H11V6V5H9.93652V6ZM11 6V7H12H13C13 5.89543 12.1046 5 11 5V6ZM12 7H11V7.81836H12H13V7H12ZM12 7.81836H11L11.0002 7.8188L11.9365 8.16992L12.8729 8.52105C12.9576 8.29507 13 8.05665 13 7.81836H12ZM11.9365 8.16992L11.0002 7.81881L8.41523 14.7124L9.35156 15.0635L10.2879 15.4146L12.8729 8.52103L11.9365 8.16992ZM9.35156 15.0635L8.41523 14.7124C8.35044 14.8851 8.18479 15 8 15V16V17C9.01822 17 9.93028 16.3682 10.2879 15.4146L9.35156 15.0635ZM8 16V15C7.81521 15 7.64956 14.8851 7.58477 14.7124L6.64844 15.0635L5.71211 15.4146C6.06972 16.3682 6.98178 17 8 17V16ZM6.64844 15.0635L7.58477 14.7124L4.99981 7.81881L4.06348 8.16992L3.12714 8.52103L5.7121 15.4146L6.64844 15.0635ZM4.06348 8.16992L4.99981 7.8188L5 7.81836H4H3C3 8.05665 3.04241 8.29507 3.12715 8.52105L4.06348 8.16992ZM4 7.81836H5V7H4H3V7.81836H4ZM4 7H5V6V5C3.89543 5 3 5.89543 3 7H4ZM5 6V7H6.06348V6V5H5V6ZM8 0V1C8.82843 1 9.5 1.67157 9.5 2.5H10.5H11.5C11.5 0.567003 9.933 -1 8 -1V0ZM10.5 2.5H9.5C9.5 3.32843 8.82843 4 8 4V5V6C9.933 6 11.5 4.433 11.5 2.5H10.5ZM8 5V4C7.17157 4 6.5 3.32843 6.5 2.5H5.5H4.5C4.5 4.433 6.067 6 8 6V5ZM5.5 2.5H6.5C6.5 1.67157 7.17157 1 8 1V0V-1C6.067 -1 4.5 0.567003 4.5 2.5H5.5Z" fill="black" mask="url(#path-2-outside-1_1_615)"/>
</g>
<defs>
<clipPath id="clip0_1_615">
<rect width="16" height="16" fill="white"/>
</clipPath>
</defs>
</svg>
