<svg width="16" height="16" viewBox="0 0 16 16" fill="none" xmlns="http://www.w3.org/2000/svg">
<g clip-path="url(#clip0_5_238)">
<rect width="16" height="16" fill="black"/>
<rect opacity="0.5" x="0.5" y="0.5" width="15" height="15" stroke="#FFBB00"/>
<mask id="path-2-outside-1_5_238" maskUnits="userSpaceOnUse" x="2" y="-1" width="14" height="18" fill="black">
<rect fill="white" x="2" y="-1" width="14" height="18"/>
<path d="M9 16H7V15H9V16ZM9 14H7V13H9V14ZM10 4C10.5523 4 11 4.44772 11 5V7L13.707 4.29297C13.8945 4.10547 14.1489 4.00004 14.4141 4H15V12H14.4141C14.1489 12 13.8945 11.8945 13.707 11.707L11 9V11C11 11.5523 10.5523 12 10 12H4C3.44772 12 3 11.5523 3 11V5C3 4.44772 3.44772 4 4 4H10ZM9 3H7V2H9V3ZM9 1H7V0H9V1Z"/>
</mask>
<path d="M9 16H7V15H9V16ZM9 14H7V13H9V14ZM10 4C10.5523 4 11 4.44772 11 5V7L13.707 4.29297C13.8945 4.10547 14.1489 4.00004 14.4141 4H15V12H14.4141C14.1489 12 13.8945 11.8945 13.707 11.707L11 9V11C11 11.5523 10.5523 12 10 12H4C3.44772 12 3 11.5523 3 11V5C3 4.44772 3.44772 4 4 4H10ZM9 3H7V2H9V3ZM9 1H7V0H9V1Z" fill="#FFBB00"/>
<path d="M9 16V17H10V16H9ZM7 16H6V17H7V16ZM7 15V14H6V15H7ZM9 15H10V14H9V15ZM9 14V15H10V14H9ZM7 14H6V15H7V14ZM7 13V12H6V13H7ZM9 13H10V12H9V13ZM11 7H10V9.41421L11.7071 7.70711L11 7ZM13.707 4.29297L12.9999 3.58586V3.58586L13.707 4.29297ZM14.4141 4V3H14.4139L14.4141 4ZM15 4H16V3H15V4ZM15 12V13H16V12H15ZM14.4141 12L14.4139 13H14.4141V12ZM13.707 11.707L14.4141 10.9999L14.4141 10.9999L13.707 11.707ZM11 9L11.7071 8.29289L10 6.58579V9H11ZM4 12V13V12ZM4 4V3V4ZM9 3V4H10V3H9ZM7 3H6V4H7V3ZM7 2V1H6V2H7ZM9 2H10V1H9V2ZM9 1V2H10V1H9ZM7 1H6V2H7V1ZM7 0V-1H6V0H7ZM9 0H10V-1H9V0ZM9 16V15H7V16V17H9V16ZM7 16H8V15H7H6V16H7ZM7 15V16H9V15V14H7V15ZM9 15H8V16H9H10V15H9ZM9 14V13H7V14V15H9V14ZM7 14H8V13H7H6V14H7ZM7 13V14H9V13V12H7V13ZM9 13H8V14H9H10V13H9ZM10 4V5H11H12C12 3.89543 11.1046 3 10 3V4ZM11 5H10V7H11H12V5H11ZM11 7L11.7071 7.70711L14.4141 5.00008L13.707 4.29297L12.9999 3.58586L10.2929 6.29289L11 7ZM13.707 4.29297L14.4141 5.00008L14.4142 5L14.4141 4L14.4139 3C13.8835 3.00008 13.3748 3.21094 12.9999 3.58586L13.707 4.29297ZM14.4141 4V5H15V4V3H14.4141V4ZM15 4H14V12H15H16V4H15ZM15 12V11H14.4141V12V13H15V12ZM14.4141 12L14.4142 11L14.4141 10.9999L13.707 11.707L12.9999 12.4141C13.3748 12.7891 13.8835 12.9999 14.4139 13L14.4141 12ZM13.707 11.707L14.4141 10.9999L11.7071 8.29289L11 9L10.2929 9.70711L12.9999 12.4141L13.707 11.707ZM11 9H10V11H11H12V9H11ZM11 11H10V12V13C11.1046 13 12 12.1046 12 11H11ZM10 12V11H4V12V13H10V12ZM4 12V11V11H3H2C2 12.1046 2.89543 13 4 13V12ZM3 11H4V5H3H2V11H3ZM3 5H4V5V4V3C2.89543 3 2 3.89543 2 5H3ZM4 4V5H10V4V3H4V4ZM9 3V2H7V3V4H9V3ZM7 3H8V2H7H6V3H7ZM7 2V3H9V2V1H7V2ZM9 2H8V3H9H10V2H9ZM9 1V0H7V1V2H9V1ZM7 1H8V0H7H6V1H7ZM7 0V1H9V0V-1H7V0ZM9 0H8V1H9H10V0H9Z" fill="black" mask="url(#path-2-outside-1_5_238)"/>
</g>
<defs>
<clipPath id="clip0_5_238">
<rect width="16" height="16" fill="white"/>
</clipPath>
</defs>
</svg>
