<svg width="16" height="16" viewBox="0 0 16 16" fill="none" xmlns="http://www.w3.org/2000/svg">
<g clip-path="url(#clip0_14_419)">
<rect width="16" height="16" fill="black"/>
<rect opacity="0.5" x="0.5" y="0.5" width="15" height="15" stroke="#AD661F"/>
<path d="M6.6582 0.56543C7.21099 -0.540144 8.78901 -0.540142 9.3418 0.56543L10.1494 2.17969C10.2946 2.46998 10.53 2.70544 10.8203 2.85059L11.1182 3C11.9651 3.4235 12.5 4.28944 12.5 5.23633V5.88184C12.5 6.37766 12.7802 6.831 13.2236 7.05273C14.0059 7.44386 14.5 8.24357 14.5 9.11816V9.9043C14.5 10.3865 14.7728 10.8273 15.2041 11.043L15.5078 11.1943C16.1191 11.5 16.4952 12.1354 16.4707 12.8184C16.4368 13.7567 15.6665 14.4999 14.7275 14.5H1.27246C0.333472 14.4999 -0.436771 13.7567 -0.470703 12.8184C-0.495215 12.1354 -0.119105 11.5 0.492188 11.1943L0.795898 11.043C1.22716 10.8273 1.49996 10.3865 1.5 9.9043V9.11816C1.5 8.24357 1.99411 7.44386 2.77637 7.05273C3.21984 6.831 3.5 6.37766 3.5 5.88184V5.23633C3.5 4.28944 4.03494 3.4235 4.88184 3L5.17969 2.85059C5.46998 2.70544 5.70544 2.46998 5.85059 2.17969L6.6582 0.56543Z" fill="#AD661F" stroke="black"/>
<path d="M1.5 11.5L14.5 10.5" stroke="black" stroke-opacity="0.5" stroke-width="1.5"/>
<path d="M1.5 7.5L14.5 6.5" stroke="black" stroke-opacity="0.5" stroke-width="1.5"/>
<path d="M1.5 3.5L14.5 2.5" stroke="black" stroke-opacity="0.5" stroke-width="1.5"/>
</g>
<defs>
<clipPath id="clip0_14_419">
<rect width="16" height="16" fill="white"/>
</clipPath>
</defs>
</svg>
