<svg width="16" height="16" viewBox="0 0 16 16" fill="none" xmlns="http://www.w3.org/2000/svg">
<g clip-path="url(#clip0_1_506)">
<rect width="16" height="16" fill="black"/>
<rect opacity="0.5" x="0.5" y="0.5" width="15" height="15" stroke="#FF4DC4"/>
<mask id="path-2-outside-1_1_506" maskUnits="userSpaceOnUse" x="-1" y="-1" width="18" height="18" fill="black">
<rect fill="white" x="-1" y="-1" width="18" height="18"/>
<path d="M9 0C12.866 0 16 3.13401 16 7V9C16 10.6569 14.6569 12 13 12H7C5.34315 12 4 10.6569 4 9V7C4 5.34315 5.34315 4 7 4H9C10.6569 4 12 5.34315 12 7V10H13C13.5523 10 14 9.55229 14 9V7C14 4.23858 11.7614 2 9 2H7C4.23858 2 2 4.23858 2 7V9C2 11.7614 4.23858 14 7 14H13V16H7C3.13401 16 0 12.866 0 9V7C0 3.13401 3.13401 0 7 0H9ZM7 6C6.44772 6 6 6.44772 6 7V9C6 9.55229 6.44772 10 7 10H10V7C10 6.44772 9.55229 6 9 6H7Z"/>
</mask>
<path d="M9 0C12.866 0 16 3.13401 16 7V9C16 10.6569 14.6569 12 13 12H7C5.34315 12 4 10.6569 4 9V7C4 5.34315 5.34315 4 7 4H9C10.6569 4 12 5.34315 12 7V10H13C13.5523 10 14 9.55229 14 9V7C14 4.23858 11.7614 2 9 2H7C4.23858 2 2 4.23858 2 7V9C2 11.7614 4.23858 14 7 14H13V16H7C3.13401 16 0 12.866 0 9V7C0 3.13401 3.13401 0 7 0H9ZM7 6C6.44772 6 6 6.44772 6 7V9C6 9.55229 6.44772 10 7 10H10V7C10 6.44772 9.55229 6 9 6H7Z" fill="#FF4DC4"/>
<path d="M12 10H11V11H12V10ZM13 14H14V13H13V14ZM13 16V17H14V16H13ZM10 10V11H11V10H10ZM9 0V1C12.3137 1 15 3.68629 15 7H16H17C17 2.58172 13.4183 -1 9 -1V0ZM16 7H15V9H16H17V7H16ZM16 9H15C15 10.1046 14.1046 11 13 11V12V13C15.2091 13 17 11.2091 17 9H16ZM13 12V11H7V12V13H13V12ZM7 12V11C5.89543 11 5 10.1046 5 9H4H3C3 11.2091 4.79086 13 7 13V12ZM4 9H5V7H4H3V9H4ZM4 7H5C5 5.89543 5.89543 5 7 5V4V3C4.79086 3 3 4.79086 3 7H4ZM7 4V5H9V4V3H7V4ZM9 4V5C10.1046 5 11 5.89543 11 7H12H13C13 4.79086 11.2091 3 9 3V4ZM12 7H11V10H12H13V7H12ZM12 10V11H13V10V9H12V10ZM13 10V11C14.1046 11 15 10.1046 15 9H14H13V10ZM14 9H15V7H14H13V9H14ZM14 7H15C15 3.68629 12.3137 1 9 1V2V3C11.2091 3 13 4.79086 13 7H14ZM9 2V1H7V2V3H9V2ZM7 2V1C3.68629 1 1 3.68629 1 7H2H3C3 4.79086 4.79086 3 7 3V2ZM2 7H1V9H2H3V7H2ZM2 9H1C1 12.3137 3.68629 15 7 15V14V13C4.79086 13 3 11.2091 3 9H2ZM7 14V15H13V14V13H7V14ZM13 14H12V16H13H14V14H13ZM13 16V15H7V16V17H13V16ZM7 16V15C3.68629 15 1 12.3137 1 9H0H-1C-1 13.4183 2.58172 17 7 17V16ZM0 9H1V7H0H-1V9H0ZM0 7H1C1 3.68629 3.68629 1 7 1V0V-1C2.58172 -1 -1 2.58172 -1 7H0ZM7 0V1H9V0V-1H7V0ZM7 6V5C5.89543 5 5 5.89543 5 7H6H7V6ZM6 7H5V9H6H7V7H6ZM6 9H5C5 10.1046 5.89543 11 7 11V10V9H6ZM7 10V11H10V10V9H7V10ZM10 10H11V7H10H9V10H10ZM10 7H11C11 5.89543 10.1046 5 9 5V6V7H10ZM9 6V5H7V6V7H9V6Z" fill="black" mask="url(#path-2-outside-1_1_506)"/>
</g>
<defs>
<clipPath id="clip0_1_506">
<rect width="16" height="16" fill="white"/>
</clipPath>
</defs>
</svg>
