<svg width="16" height="16" viewBox="0 0 16 16" fill="none" xmlns="http://www.w3.org/2000/svg">
<g clip-path="url(#clip0_2_68)">
<rect width="16" height="16" fill="black"/>
<rect opacity="0.5" x="0.5" y="0.5" width="15" height="15" stroke="#FF9500"/>
<mask id="path-2-outside-1_2_68" maskUnits="userSpaceOnUse" x="0" y="-2" width="16" height="20" fill="black">
<rect fill="white" y="-2" width="16" height="20"/>
<path d="M15 4V12L8 16L1 12V4L8 0L15 4ZM2.5 11.1289L7.25 13.8428V8.43457L2.5 5.7207V11.1289ZM8.75 8.43457V13.8428L13.5 11.1289V5.7207L8.75 8.43457ZM3.26758 4.43164L8 7.13574L12.7314 4.43164L8 1.72754L3.26758 4.43164Z"/>
</mask>
<path d="M15 4V12L8 16L1 12V4L8 0L15 4ZM2.5 11.1289L7.25 13.8428V8.43457L2.5 5.7207V11.1289ZM8.75 8.43457V13.8428L13.5 11.1289V5.7207L8.75 8.43457ZM3.26758 4.43164L8 7.13574L12.7314 4.43164L8 1.72754L3.26758 4.43164Z" fill="#FF9500"/>
<path d="M15 4H16V3.41968L15.4961 3.13176L15 4ZM15 12L15.4961 12.8682L16 12.5803V12H15ZM8 16L7.50386 16.8682L8 17.1518L8.49614 16.8682L8 16ZM1 12H0V12.5803L0.503861 12.8682L1 12ZM1 4L0.503861 3.13176L0 3.41968V4H1ZM8 0L8.49614 -0.868243L8 -1.15175L7.50386 -0.868243L8 0ZM2.5 11.1289H1.5V11.7093L2.00392 11.9972L2.5 11.1289ZM7.25 13.8428L6.75392 14.711L8.25 15.5658V13.8428H7.25ZM7.25 8.43457H8.25V7.8542L7.74608 7.56629L7.25 8.43457ZM2.5 5.7207L2.99608 4.85243L1.5 3.99766V5.7207H2.5ZM8.75 8.43457L8.25392 7.56629L7.75 7.8542V8.43457H8.75ZM8.75 13.8428H7.75V15.5658L9.24608 14.711L8.75 13.8428ZM13.5 11.1289L13.9961 11.9972L14.5 11.7093V11.1289H13.5ZM13.5 5.7207H14.5V3.99766L13.0039 4.85243L13.5 5.7207ZM3.26758 4.43164L2.77146 3.56339L1.25194 4.43164L2.77146 5.29989L3.26758 4.43164ZM8 7.13574L7.50388 8.004L8.00005 8.28751L8.4962 8.00395L8 7.13574ZM12.7314 4.43164L13.2276 5.29985L14.7468 4.43164L13.2276 3.56343L12.7314 4.43164ZM8 1.72754L8.4962 0.859329L8.00005 0.575773L7.50388 0.859285L8 1.72754ZM15 4H14V12H15H16V4H15ZM15 12L14.5039 11.1318L7.50386 15.1318L8 16L8.49614 16.8682L15.4961 12.8682L15 12ZM8 16L8.49614 15.1318L1.49614 11.1318L1 12L0.503861 12.8682L7.50386 16.8682L8 16ZM1 12H2V4H1H0V12H1ZM1 4L1.49614 4.86824L8.49614 0.868243L8 0L7.50386 -0.868243L0.503861 3.13176L1 4ZM8 0L7.50386 0.868243L14.5039 4.86824L15 4L15.4961 3.13176L8.49614 -0.868243L8 0ZM2.5 11.1289L2.00392 11.9972L6.75392 14.711L7.25 13.8428L7.74608 12.9745L2.99608 10.2606L2.5 11.1289ZM7.25 13.8428H8.25V8.43457H7.25H6.25V13.8428H7.25ZM7.25 8.43457L7.74608 7.56629L2.99608 4.85243L2.5 5.7207L2.00392 6.58898L6.75392 9.30285L7.25 8.43457ZM2.5 5.7207H1.5V11.1289H2.5H3.5V5.7207H2.5ZM8.75 8.43457H7.75V13.8428H8.75H9.75V8.43457H8.75ZM8.75 13.8428L9.24608 14.711L13.9961 11.9972L13.5 11.1289L13.0039 10.2606L8.25392 12.9745L8.75 13.8428ZM13.5 11.1289H14.5V5.7207H13.5H12.5V11.1289H13.5ZM13.5 5.7207L13.0039 4.85243L8.25392 7.56629L8.75 8.43457L9.24608 9.30285L13.9961 6.58898L13.5 5.7207ZM3.26758 4.43164L2.77146 5.29989L7.50388 8.004L8 7.13574L8.49612 6.26749L3.7637 3.56339L3.26758 4.43164ZM8 7.13574L8.4962 8.00395L13.2276 5.29985L12.7314 4.43164L12.2352 3.56343L7.5038 6.26753L8 7.13574ZM12.7314 4.43164L13.2276 3.56343L8.4962 0.859329L8 1.72754L7.5038 2.59575L12.2352 5.29985L12.7314 4.43164ZM8 1.72754L7.50388 0.859285L2.77146 3.56339L3.26758 4.43164L3.7637 5.29989L8.49612 2.59579L8 1.72754Z" fill="black" mask="url(#path-2-outside-1_2_68)"/>
</g>
<defs>
<clipPath id="clip0_2_68">
<rect width="16" height="16" fill="white"/>
</clipPath>
</defs>
</svg>
