<svg width="16" height="16" viewBox="0 0 16 16" fill="none" xmlns="http://www.w3.org/2000/svg">
<g clip-path="url(#clip0_6_271)">
<rect width="16" height="16" fill="black"/>
<rect opacity="0.5" x="0.5" y="0.5" width="15" height="15" stroke="#FF5500"/>
<rect opacity="0.5" x="2.5" y="2.5" width="11" height="11" stroke="#FF5500"/>
<path d="M8.49316 1.86816C8.52272 1.92776 8.56615 2.0151 8.62109 2.12695C8.73103 2.35074 8.88797 2.67237 9.07617 3.06445C9.45251 3.84849 9.95443 4.91603 10.457 6.04688C10.959 7.17635 11.464 8.3759 11.8447 9.42285C12.035 9.94612 12.197 10.4377 12.3115 10.8672C12.4237 11.2878 12.5 11.6828 12.5 12C12.5 14.4543 10.4543 16.5 8 16.5C5.54574 16.5 3.5 14.4543 3.5 12C3.5 11.6828 3.57631 11.2878 3.68848 10.8672C3.80302 10.4377 3.96499 9.94612 4.15527 9.42285C4.53599 8.3759 5.04098 7.17635 5.54297 6.04688C6.04557 4.91603 6.54749 3.84849 6.92383 3.06445C7.11203 2.67237 7.26897 2.35074 7.37891 2.12695C7.43385 2.0151 7.47728 1.92776 7.50684 1.86816L8 0.881836L8.49316 1.86816Z" fill="#FF5500" stroke="black"/>
</g>
<defs>
<clipPath id="clip0_6_271">
<rect width="16" height="16" fill="white"/>
</clipPath>
</defs>
</svg>
