<svg width="16" height="16" viewBox="0 0 16 16" fill="none" xmlns="http://www.w3.org/2000/svg">
<g clip-path="url(#clip0_6_281)">
<rect width="16" height="16" fill="black"/>
<rect opacity="0.5" x="0.5" y="0.5" width="15" height="15" stroke="#A3C0C2"/>
<mask id="path-2-outside-1_6_281" maskUnits="userSpaceOnUse" x="-1" y="-1" width="18" height="18" fill="black">
<rect fill="white" x="-1" y="-1" width="18" height="18"/>
<path d="M8 0C12.4183 0 16 3.58172 16 8C16 12.4183 12.4183 16 8 16C3.58172 16 0 12.4183 0 8C0 3.58172 3.58172 0 8 0ZM4 8C4 10.0517 4.52179 11.8618 5.3125 13.127C5.79913 13.9055 6.35184 14.4293 6.91504 14.7207C6.36459 13.2956 6 10.818 6 8H4ZM10 8C10 10.8182 9.63451 13.2956 9.08398 14.7207C9.64745 14.4293 10.2006 13.9059 10.6875 13.127C11.4782 11.8618 12 10.0517 12 8H10ZM7 8C7 10.1518 7.2188 12.0665 7.55566 13.4141C7.69773 13.9823 7.85483 14.4095 8 14.7021C8.14517 14.4095 8.30227 13.9823 8.44434 13.4141C8.7812 12.0665 9 10.1518 9 8H7ZM1 8C1 10.7535 2.59053 13.1344 4.90234 14.2773C3.7444 12.8122 3 10.5455 3 8H1ZM13 8C13 10.5457 12.2548 12.8122 11.0967 14.2773C13.4089 13.1345 15 10.7538 15 8H13ZM4.90234 1.72168C2.87544 2.72364 1.4045 4.67778 1.07227 7H3.04004C3.20645 4.86502 3.89822 2.99192 4.90234 1.72168ZM6.91504 1.27832C6.3517 1.56971 5.79925 2.09428 5.3125 2.87305C4.65301 3.92822 4.18259 5.36266 4.04395 7H6.01758C6.09237 4.60116 6.43057 2.53209 6.91504 1.27832ZM8 1.29688C7.85472 1.5895 7.69786 2.01716 7.55566 2.58594C7.27198 3.7208 7.07364 5.25785 7.01758 7H8.98242C8.92636 5.25785 8.72802 3.7208 8.44434 2.58594C8.30214 2.01716 8.14528 1.5895 8 1.29688ZM9.08398 1.27832C9.56852 2.53206 9.90763 4.60095 9.98242 7H11.9561C11.8174 5.36266 11.347 3.92822 10.6875 2.87305C10.2005 2.09392 9.64759 1.56963 9.08398 1.27832ZM11.0967 1.72168C12.101 2.99193 12.7935 4.86475 12.96 7H14.9277C14.5955 4.67748 13.124 2.72353 11.0967 1.72168Z"/>
</mask>
<path d="M8 0C12.4183 0 16 3.58172 16 8C16 12.4183 12.4183 16 8 16C3.58172 16 0 12.4183 0 8C0 3.58172 3.58172 0 8 0ZM4 8C4 10.0517 4.52179 11.8618 5.3125 13.127C5.79913 13.9055 6.35184 14.4293 6.91504 14.7207C6.36459 13.2956 6 10.818 6 8H4ZM10 8C10 10.8182 9.63451 13.2956 9.08398 14.7207C9.64745 14.4293 10.2006 13.9059 10.6875 13.127C11.4782 11.8618 12 10.0517 12 8H10ZM7 8C7 10.1518 7.2188 12.0665 7.55566 13.4141C7.69773 13.9823 7.85483 14.4095 8 14.7021C8.14517 14.4095 8.30227 13.9823 8.44434 13.4141C8.7812 12.0665 9 10.1518 9 8H7ZM1 8C1 10.7535 2.59053 13.1344 4.90234 14.2773C3.7444 12.8122 3 10.5455 3 8H1ZM13 8C13 10.5457 12.2548 12.8122 11.0967 14.2773C13.4089 13.1345 15 10.7538 15 8H13ZM4.90234 1.72168C2.87544 2.72364 1.4045 4.67778 1.07227 7H3.04004C3.20645 4.86502 3.89822 2.99192 4.90234 1.72168ZM6.91504 1.27832C6.3517 1.56971 5.79925 2.09428 5.3125 2.87305C4.65301 3.92822 4.18259 5.36266 4.04395 7H6.01758C6.09237 4.60116 6.43057 2.53209 6.91504 1.27832ZM8 1.29688C7.85472 1.5895 7.69786 2.01716 7.55566 2.58594C7.27198 3.7208 7.07364 5.25785 7.01758 7H8.98242C8.92636 5.25785 8.72802 3.7208 8.44434 2.58594C8.30214 2.01716 8.14528 1.5895 8 1.29688ZM9.08398 1.27832C9.56852 2.53206 9.90763 4.60095 9.98242 7H11.9561C11.8174 5.36266 11.347 3.92822 10.6875 2.87305C10.2005 2.09392 9.64759 1.56963 9.08398 1.27832ZM11.0967 1.72168C12.101 2.99193 12.7935 4.86475 12.96 7H14.9277C14.5955 4.67748 13.124 2.72353 11.0967 1.72168Z" fill="#A3C0C2"/>
<path d="M4 8V7H3V8H4ZM5.3125 13.127L4.4645 13.657L4.46451 13.657L5.3125 13.127ZM6.91504 14.7207L6.45546 15.6088L8.79834 16.8212L7.84787 14.3604L6.91504 14.7207ZM6 8H7V7H6V8ZM10 8V7H9V8H10ZM9.08398 14.7207L8.15117 14.3603L7.20092 16.8202L9.54329 15.609L9.08398 14.7207ZM10.6875 13.127L11.5355 13.657L11.5355 13.657L10.6875 13.127ZM12 8H13V7H12V8ZM7 8V7H6V8H7ZM7.55566 13.4141L6.58552 13.6566L6.58552 13.6566L7.55566 13.4141ZM8 14.7021L7.10419 15.1466L8 16.9522L8.89581 15.1466L8 14.7021ZM8.44434 13.4141L9.41448 13.6566L9.41448 13.6566L8.44434 13.4141ZM9 8H10V7H9V8ZM1 8V7H0V8H1ZM4.90234 14.2773L4.45914 15.1738L5.68691 13.6573L4.90234 14.2773ZM3 8H4V7H3V8ZM13 8V7H12V8H13ZM11.0967 14.2773L10.3122 13.6572L11.5398 15.1738L11.0967 14.2773ZM15 8H16V7H15V8ZM4.90234 1.72168L5.68684 2.34182L4.4592 0.825229L4.90234 1.72168ZM1.07227 7L0.0823453 6.85837L-0.0809839 8H1.07227V7ZM3.04004 7V8H3.96513L4.03701 7.07771L3.04004 7ZM6.91504 1.27832L7.84782 1.63876L8.79862 -0.82184L6.4556 0.390109L6.91504 1.27832ZM5.3125 2.87305L4.46451 2.34303L4.4645 2.34305L5.3125 2.87305ZM4.04395 7L3.04751 6.91563L2.95569 8H4.04395V7ZM6.01758 7V8H6.98689L7.01709 7.03116L6.01758 7ZM8 1.29688L8.89568 0.852182L8 -0.951868L7.10432 0.852182L8 1.29688ZM7.55566 2.58594L6.58552 2.3434L6.58552 2.34343L7.55566 2.58594ZM7.01758 7L6.0181 6.96784L5.98488 8H7.01758V7ZM8.98242 7V8H10.0151L9.9819 6.96784L8.98242 7ZM8.44434 2.58594L9.41448 2.34343L9.41448 2.3434L8.44434 2.58594ZM9.08398 1.27832L9.54315 0.389969L7.20064 -0.820809L8.15122 1.63881L9.08398 1.27832ZM9.98242 7L8.98291 7.03116L9.01311 8H9.98242V7ZM11.9561 7V8H13.0443L12.9525 6.91563L11.9561 7ZM10.6875 2.87305L11.5355 2.34305L11.5355 2.34303L10.6875 2.87305ZM11.0967 1.72168L11.5397 0.825174L10.3122 2.34189L11.0967 1.72168ZM12.96 7L11.963 7.07771L12.0349 8H12.96V7ZM14.9277 7V8H16.081L15.9177 6.85837L14.9277 7ZM8 0V1C11.866 1 15 4.13401 15 8H16H17C17 3.02944 12.9706 -1 8 -1V0ZM16 8H15C15 11.866 11.866 15 8 15V16V17C12.9706 17 17 12.9706 17 8H16ZM8 16V15C4.13401 15 1 11.866 1 8H0H-1C-1 12.9706 3.02944 17 8 17V16ZM0 8H1C1 4.13401 4.13401 1 8 1V0V-1C3.02944 -1 -1 3.02944 -1 8H0ZM4 8H3C3 10.2092 3.55972 12.2093 4.4645 13.657L5.3125 13.127L6.1605 12.597C5.48385 11.5143 5 9.89417 5 8H4ZM5.3125 13.127L4.46451 13.657C5.02159 14.5483 5.69635 15.216 6.45546 15.6088L6.91504 14.7207L7.37461 13.8326C7.00732 13.6425 6.57667 13.2628 6.16049 12.5969L5.3125 13.127ZM6.91504 14.7207L7.84787 14.3604C7.36154 13.1013 7 10.765 7 8H6H5C5 10.871 5.36763 13.4899 5.9822 15.081L6.91504 14.7207ZM6 8V7H4V8V9H6V8ZM10 8H9C9 10.7649 8.63762 13.1011 8.15117 14.3603L9.08398 14.7207L10.0168 15.0811C10.6314 13.4901 11 10.8716 11 8H10ZM9.08398 14.7207L9.54329 15.609C10.3025 15.2164 10.9779 14.549 11.5355 13.657L10.6875 13.127L9.83951 12.5969C9.42337 13.2627 8.99239 13.6423 8.62468 13.8324L9.08398 14.7207ZM10.6875 13.127L11.5355 13.657C12.4403 12.2093 13 10.2092 13 8H12H11C11 9.89417 10.5161 11.5143 9.8395 12.597L10.6875 13.127ZM12 8V7H10V8V9H12V8ZM7 8H6C6 10.2089 6.22362 12.2088 6.58552 13.6566L7.55566 13.4141L8.52581 13.1716C8.21399 11.9241 8 10.0948 8 8H7ZM7.55566 13.4141L6.58552 13.6566C6.73962 14.273 6.91847 14.7722 7.10419 15.1466L8 14.7021L8.89581 14.2577C8.7912 14.0469 8.65584 13.6917 8.52581 13.1715L7.55566 13.4141ZM8 14.7021L8.89581 15.1466C9.08153 14.7722 9.26038 14.273 9.41448 13.6566L8.44434 13.4141L7.47419 13.1715C7.34416 13.6917 7.2088 14.0469 7.10419 14.2577L8 14.7021ZM8.44434 13.4141L9.41448 13.6566C9.77638 12.2088 10 10.2089 10 8H9H8C8 10.0948 7.78601 11.9241 7.47419 13.1716L8.44434 13.4141ZM9 8V7H7V8V9H9V8ZM1 8H0C0 11.1487 1.81984 13.8689 4.45914 15.1738L4.90234 14.2773L5.34554 13.3809C3.36121 12.3998 2 10.3583 2 8H1ZM4.90234 14.2773L5.68691 13.6573C4.69679 12.4045 4 10.3707 4 8H3H2C2 10.7202 2.79201 13.2198 4.11778 14.8974L4.90234 14.2773ZM3 8V7H1V8V9H3V8ZM13 8H12C12 10.3708 11.3026 12.4043 10.3122 13.6572L11.0967 14.2773L11.8812 14.8975C13.2071 13.2201 14 10.7207 14 8H13ZM11.0967 14.2773L11.5398 15.1738C14.1795 13.8692 16 11.1492 16 8H15H14C14 10.3585 12.6384 12.3999 10.6536 13.3809L11.0967 14.2773ZM15 8V7H13V8V9H15V8ZM4.90234 1.72168L4.4592 0.825229C2.14436 1.96953 0.462459 4.20149 0.0823453 6.85837L1.07227 7L2.06219 7.14163C2.34654 5.15407 3.60652 3.47776 5.34549 2.61813L4.90234 1.72168ZM1.07227 7V8H3.04004V7V6H1.07227V7ZM3.04004 7L4.03701 7.07771C4.19145 5.09638 4.83071 3.42484 5.68684 2.34182L4.90234 1.72168L4.11785 1.10154C2.96573 2.55901 2.22145 4.63366 2.04306 6.92229L3.04004 7ZM6.91504 1.27832L6.4556 0.390109C5.69568 0.783188 5.02127 1.45224 4.46451 2.34303L5.3125 2.87305L6.16049 3.40306C6.57722 2.73631 7.00772 2.35624 7.37447 2.16653L6.91504 1.27832ZM5.3125 2.87305L4.4645 2.34305C3.70794 3.55355 3.19733 5.14628 3.04751 6.91563L4.04395 7L5.04038 7.08437C5.16784 5.57903 5.59809 4.3029 6.1605 3.40305L5.3125 2.87305ZM4.04395 7V8H6.01758V7V6H4.04395V7ZM6.01758 7L7.01709 7.03116C7.09039 4.68019 7.42219 2.74025 7.84782 1.63876L6.91504 1.27832L5.98226 0.917883C5.43895 2.32393 5.09434 4.52213 5.01806 6.96884L6.01758 7ZM8 1.29688L7.10432 0.852182C6.91814 1.22716 6.73958 1.72718 6.58552 2.3434L7.55566 2.58594L8.52581 2.82847C8.65614 2.30713 8.79129 1.95183 8.89568 1.74157L8 1.29688ZM7.55566 2.58594L6.58552 2.34343C6.27996 3.5658 6.07573 5.17691 6.0181 6.96784L7.01758 7L8.01706 7.03216C8.07155 5.33878 8.264 3.8758 8.52581 2.82845L7.55566 2.58594ZM7.01758 7V8H8.98242V7V6H7.01758V7ZM8.98242 7L9.9819 6.96784C9.92427 5.17691 9.72004 3.5658 9.41448 2.34343L8.44434 2.58594L7.47419 2.82845C7.73599 3.8758 7.92845 5.33878 7.98294 7.03216L8.98242 7ZM8.44434 2.58594L9.41448 2.3434C9.26042 1.72718 9.08186 1.22716 8.89568 0.852182L8 1.29688L7.10432 1.74157C7.20871 1.95183 7.34386 2.30713 7.47419 2.82847L8.44434 2.58594ZM9.08398 1.27832L8.15122 1.63881C8.57698 2.74046 8.90962 4.68036 8.98291 7.03116L9.98242 7L10.9819 6.96884C10.9056 4.52154 10.5601 2.32366 10.0167 0.917831L9.08398 1.27832ZM9.98242 7V8H11.9561V7V6H9.98242V7ZM11.9561 7L12.9525 6.91563C12.8027 5.14628 12.2921 3.55355 11.5355 2.34305L10.6875 2.87305L9.8395 3.40305C10.4019 4.3029 10.8322 5.57903 10.9596 7.08437L11.9561 7ZM10.6875 2.87305L11.5355 2.34303C10.9782 1.45147 10.3032 0.782815 9.54315 0.389969L9.08398 1.27832L8.62482 2.16667C8.99199 2.35645 9.42282 2.73637 9.83951 3.40306L10.6875 2.87305ZM11.0967 1.72168L10.3122 2.34189C11.1687 3.42509 11.8086 5.09642 11.963 7.07771L12.96 7L13.9569 6.92229C13.7785 4.63309 13.0333 2.55878 11.8811 1.10147L11.0967 1.72168ZM12.96 7V8H14.9277V7V6H12.96V7ZM14.9277 7L15.9177 6.85837C15.5375 4.20102 13.8549 1.96928 11.5397 0.825174L11.0967 1.72168L10.6536 2.61819C12.3931 3.47777 13.6534 5.15394 13.9378 7.14163L14.9277 7Z" fill="black" mask="url(#path-2-outside-1_6_281)"/>
</g>
<defs>
<clipPath id="clip0_6_281">
<rect width="16" height="16" fill="white"/>
</clipPath>
</defs>
</svg>
