<svg width="16" height="16" viewBox="0 0 16 16" fill="none" xmlns="http://www.w3.org/2000/svg">
<g clip-path="url(#clip0_7_309)">
<rect width="16" height="16" fill="black"/>
<rect opacity="0.5" x="0.5" y="0.5" width="15" height="15" stroke="#33FF33"/>
<mask id="path-2-outside-1_7_309" maskUnits="userSpaceOnUse" x="-1" y="-1" width="18" height="18" fill="black">
<rect fill="white" x="-1" y="-1" width="18" height="18"/>
<path d="M9.5498 2.20215C10.0639 2.33922 10.55 2.54428 11 2.80469L12.9502 1.63574L14.3643 3.0498L13.1943 4.99805C13.4549 5.44789 13.6586 5.93427 13.7959 6.44824L16 7V9L13.7969 9.5498C13.6597 10.0643 13.455 10.5507 13.1943 11.001L14.3643 12.9502L12.9502 14.3643L11.001 13.1943C10.5507 13.455 10.0643 13.6597 9.5498 13.7969L9 16H7L6.44824 13.7959C5.93427 13.6586 5.44789 13.4549 4.99805 13.1943L3.0498 14.3643L1.63574 12.9502L2.80469 11C2.54428 10.55 2.33922 10.0639 2.20215 9.5498L0 9V7L2.20312 6.44824C2.34034 5.93434 2.54423 5.44784 2.80469 4.99805L1.63574 3.0498L3.0498 1.63574L4.99805 2.80469C5.44784 2.54423 5.93434 2.34034 6.44824 2.20312L7 0H9L9.5498 2.20215ZM8 4C5.79086 4 4 5.79086 4 8C4 10.2091 5.79086 12 8 12C10.2091 12 12 10.2091 12 8C12 5.79086 10.2091 4 8 4ZM8 6C9.10457 6 10 6.89543 10 8C10 9.10457 9.10457 10 8 10C6.89543 10 6 9.10457 6 8C6 6.89543 6.89543 6 8 6Z"/>
</mask>
<path d="M9.5498 2.20215C10.0639 2.33922 10.55 2.54428 11 2.80469L12.9502 1.63574L14.3643 3.0498L13.1943 4.99805C13.4549 5.44789 13.6586 5.93427 13.7959 6.44824L16 7V9L13.7969 9.5498C13.6597 10.0643 13.455 10.5507 13.1943 11.001L14.3643 12.9502L12.9502 14.3643L11.001 13.1943C10.5507 13.455 10.0643 13.6597 9.5498 13.7969L9 16H7L6.44824 13.7959C5.93427 13.6586 5.44789 13.4549 4.99805 13.1943L3.0498 14.3643L1.63574 12.9502L2.80469 11C2.54428 10.55 2.33922 10.0639 2.20215 9.5498L0 9V7L2.20312 6.44824C2.34034 5.93434 2.54423 5.44784 2.80469 4.99805L1.63574 3.0498L3.0498 1.63574L4.99805 2.80469C5.44784 2.54423 5.93434 2.34034 6.44824 2.20312L7 0H9L9.5498 2.20215ZM8 4C5.79086 4 4 5.79086 4 8C4 10.2091 5.79086 12 8 12C10.2091 12 12 10.2091 12 8C12 5.79086 10.2091 4 8 4ZM8 6C9.10457 6 10 6.89543 10 8C10 9.10457 9.10457 10 8 10C6.89543 10 6 9.10457 6 8C6 6.89543 6.89543 6 8 6Z" fill="#33FF33"/>
<path d="M9.5498 2.20215L8.57959 2.44438L8.72242 3.01648L9.29218 3.16839L9.5498 2.20215ZM11 2.80469L10.4991 3.67021L11.0089 3.96522L11.5141 3.66241L11 2.80469ZM12.9502 1.63574L13.6573 0.928635L13.1055 0.376795L12.4361 0.778022L12.9502 1.63574ZM14.3643 3.0498L15.2216 3.56462L15.6237 2.895L15.0714 2.3427L14.3643 3.0498ZM13.1943 4.99805L12.337 4.48324L12.0334 4.98886L12.329 5.49923L13.1943 4.99805ZM13.7959 6.44824L12.8298 6.70625L12.9817 7.27528L13.5531 7.41831L13.7959 6.44824ZM16 7H17V6.21948L16.2428 6.02993L16 7ZM16 9L16.2421 9.97024L17 9.78111V9H16ZM13.7969 9.5498L13.5547 8.57956L12.9826 8.72235L12.8306 9.29214L13.7969 9.5498ZM13.1943 11.001L12.3289 10.4999L12.0335 11.0101L12.3369 11.5156L13.1943 11.001ZM14.3643 12.9502L15.0714 13.6573L15.6235 13.1051L15.2217 12.4356L14.3643 12.9502ZM12.9502 14.3643L12.4356 15.2217L13.1051 15.6235L13.6573 15.0714L12.9502 14.3643ZM11.001 13.1943L11.5156 12.3369L11.0101 12.0335L10.4999 12.3289L11.001 13.1943ZM9.5498 13.7969L9.29214 12.8306L8.72235 12.9826L8.57956 13.5547L9.5498 13.7969ZM9 16V17H9.78111L9.97024 16.2421L9 16ZM7 16L6.02993 16.2428L6.21948 17H7V16ZM6.44824 13.7959L7.41831 13.5531L7.27528 12.9817L6.70625 12.8298L6.44824 13.7959ZM4.99805 13.1943L5.49923 12.329L4.98886 12.0334L4.48324 12.337L4.99805 13.1943ZM3.0498 14.3643L2.3427 15.0714L2.895 15.6237L3.56462 15.2216L3.0498 14.3643ZM1.63574 12.9502L0.778022 12.4361L0.376795 13.1055L0.928635 13.6573L1.63574 12.9502ZM2.80469 11L3.66241 11.5141L3.96522 11.0089L3.67021 10.4991L2.80469 11ZM2.20215 9.5498L3.16839 9.29218L3.01648 8.72242L2.44438 8.57959L2.20215 9.5498ZM0 9H-1V9.78103L-0.242232 9.97022L0 9ZM0 7L-0.24294 6.02996L-1 6.21956V7H0ZM2.20312 6.44824L2.44607 7.41828L3.01735 7.27521L3.16928 6.70621L2.20312 6.44824ZM2.80469 4.99805L3.67007 5.49916L3.96547 4.98903L3.66218 4.48355L2.80469 4.99805ZM1.63574 3.0498L0.928635 2.3427L0.376543 2.89479L0.778249 3.5643L1.63574 3.0498ZM3.0498 1.63574L3.5643 0.778249L2.89479 0.376543L2.3427 0.928635L3.0498 1.63574ZM4.99805 2.80469L4.48355 3.66218L4.98903 3.96547L5.49916 3.67007L4.99805 2.80469ZM6.44824 2.20312L6.70621 3.16928L7.27521 3.01735L7.41828 2.44607L6.44824 2.20312ZM7 0V-1H6.21956L6.02996 -0.24294L7 0ZM9 0L9.97022 -0.242232L9.78103 -1H9V0ZM9.5498 2.20215L9.29218 3.16839C9.71782 3.28188 10.1224 3.45221 10.4991 3.67021L11 2.80469L11.5009 1.93917C10.9776 1.63636 10.41 1.39657 9.80743 1.2359L9.5498 2.20215ZM11 2.80469L11.5141 3.66241L13.4643 2.49346L12.9502 1.63574L12.4361 0.778022L10.4859 1.94697L11 2.80469ZM12.9502 1.63574L12.2431 2.34285L13.6572 3.75691L14.3643 3.0498L15.0714 2.3427L13.6573 0.928635L12.9502 1.63574ZM14.3643 3.0498L13.507 2.53499L12.337 4.48324L13.1943 4.99805L14.0516 5.51286L15.2216 3.56462L14.3643 3.0498ZM13.1943 4.99805L12.329 5.49923C12.5461 5.87413 12.7156 6.27889 12.8298 6.70625L13.7959 6.44824L14.762 6.19023C14.6017 5.58964 14.3636 5.02164 14.0597 4.49686L13.1943 4.99805ZM13.7959 6.44824L13.5531 7.41831L15.7572 7.97007L16 7L16.2428 6.02993L14.0387 5.47818L13.7959 6.44824ZM16 7H15V9H16H17V7H16ZM16 9L15.7579 8.02976L13.5547 8.57956L13.7969 9.5498L14.039 10.52L16.2421 9.97024L16 9ZM13.7969 9.5498L12.8306 9.29214C12.7169 9.71878 12.5468 10.1236 12.3289 10.4999L13.1943 11.001L14.0597 11.502C14.3633 10.9778 14.6025 10.4097 14.7631 9.80747L13.7969 9.5498ZM13.1943 11.001L12.3369 11.5156L13.5068 13.4648L14.3643 12.9502L15.2217 12.4356L14.0518 10.4864L13.1943 11.001ZM14.3643 12.9502L13.6572 12.2431L12.2431 13.6572L12.9502 14.3643L13.6573 15.0714L15.0714 13.6573L14.3643 12.9502ZM12.9502 14.3643L13.4648 13.5068L11.5156 12.3369L11.001 13.1943L10.4864 14.0518L12.4356 15.2217L12.9502 14.3643ZM11.001 13.1943L10.4999 12.3289C10.1236 12.5468 9.71878 12.7169 9.29214 12.8306L9.5498 13.7969L9.80747 14.7631C10.4097 14.6025 10.9778 14.3633 11.502 14.0597L11.001 13.1943ZM9.5498 13.7969L8.57956 13.5547L8.02976 15.7579L9 16L9.97024 16.2421L10.52 14.039L9.5498 13.7969ZM9 16V15H7V16V17H9V16ZM7 16L7.97007 15.7572L7.41831 13.5531L6.44824 13.7959L5.47818 14.0387L6.02993 16.2428L7 16ZM6.44824 13.7959L6.70625 12.8298C6.27889 12.7156 5.87413 12.5461 5.49923 12.329L4.99805 13.1943L4.49686 14.0597C5.02164 14.3636 5.58964 14.6017 6.19023 14.762L6.44824 13.7959ZM4.99805 13.1943L4.48324 12.337L2.53499 13.507L3.0498 14.3643L3.56462 15.2216L5.51286 14.0516L4.99805 13.1943ZM3.0498 14.3643L3.75691 13.6572L2.34285 12.2431L1.63574 12.9502L0.928635 13.6573L2.3427 15.0714L3.0498 14.3643ZM1.63574 12.9502L2.49346 13.4643L3.66241 11.5141L2.80469 11L1.94697 10.4859L0.778022 12.4361L1.63574 12.9502ZM2.80469 11L3.67021 10.4991C3.45221 10.1224 3.28188 9.71782 3.16839 9.29218L2.20215 9.5498L1.2359 9.80743C1.39657 10.41 1.63636 10.9776 1.93917 11.5009L2.80469 11ZM2.20215 9.5498L2.44438 8.57959L0.242232 8.02978L0 9L-0.242232 9.97022L1.95992 10.52L2.20215 9.5498ZM0 9H1V7H0H-1V9H0ZM0 7L0.24294 7.97004L2.44607 7.41828L2.20312 6.44824L1.96018 5.4782L-0.24294 6.02996L0 7ZM2.20312 6.44824L3.16928 6.70621C3.28334 6.27902 3.45294 5.87413 3.67007 5.49916L2.80469 4.99805L1.93931 4.49693C1.63552 5.02155 1.39734 5.58965 1.23697 6.19027L2.20312 6.44824ZM2.80469 4.99805L3.66218 4.48355L2.49324 2.53531L1.63574 3.0498L0.778249 3.5643L1.94719 5.51254L2.80469 4.99805ZM1.63574 3.0498L2.34285 3.75691L3.75691 2.34285L3.0498 1.63574L2.3427 0.928635L0.928635 2.3427L1.63574 3.0498ZM3.0498 1.63574L2.53531 2.49324L4.48355 3.66218L4.99805 2.80469L5.51254 1.94719L3.5643 0.778249L3.0498 1.63574ZM4.99805 2.80469L5.49916 3.67007C5.87413 3.45294 6.27902 3.28334 6.70621 3.16928L6.44824 2.20312L6.19027 1.23697C5.58965 1.39734 5.02155 1.63552 4.49693 1.93931L4.99805 2.80469ZM6.44824 2.20312L7.41828 2.44607L7.97004 0.24294L7 0L6.02996 -0.24294L5.4782 1.96018L6.44824 2.20312ZM7 0V1H9V0V-1H7V0ZM9 0L8.02978 0.242232L8.57959 2.44438L9.5498 2.20215L10.52 1.95992L9.97022 -0.242232L9 0ZM8 4V3C5.23858 3 3 5.23858 3 8H4H5C5 6.34315 6.34315 5 8 5V4ZM4 8H3C3 10.7614 5.23858 13 8 13V12V11C6.34315 11 5 9.65685 5 8H4ZM8 12V13C10.7614 13 13 10.7614 13 8H12H11C11 9.65685 9.65685 11 8 11V12ZM12 8H13C13 5.23858 10.7614 3 8 3V4V5C9.65685 5 11 6.34315 11 8H12ZM8 6V7C8.55229 7 9 7.44772 9 8H10H11C11 6.34315 9.65685 5 8 5V6ZM10 8H9C9 8.55229 8.55229 9 8 9V10V11C9.65685 11 11 9.65685 11 8H10ZM8 10V9C7.44772 9 7 8.55229 7 8H6H5C5 9.65685 6.34315 11 8 11V10ZM6 8H7C7 7.44772 7.44772 7 8 7V6V5C6.34315 5 5 6.34315 5 8H6Z" fill="black" mask="url(#path-2-outside-1_7_309)"/>
</g>
<defs>
<clipPath id="clip0_7_309">
<rect width="16" height="16" fill="white"/>
</clipPath>
</defs>
</svg>
