<svg width="16" height="16" viewBox="0 0 16 16" fill="none" xmlns="http://www.w3.org/2000/svg">
<g clip-path="url(#clip0_18_284)">
<rect width="16" height="16" fill="black"/>
<rect opacity="0.5" x="0.5" y="0.5" width="15" height="15" stroke="#33FF33"/>
<mask id="path-2-outside-1_18_284" maskUnits="userSpaceOnUse" x="-1" y="-1" width="18" height="18" fill="black">
<rect fill="white" x="-1" y="-1" width="18" height="18"/>
<path d="M13 10C14.6569 10 16 11.3431 16 13C16 14.6569 14.6569 16 13 16C11.6941 16 10.5859 15.1647 10.1738 14H2V12H10.1738C10.5859 10.8353 11.6941 10 13 10ZM13 12C12.4477 12 12 12.4477 12 13C12 13.5523 12.4477 14 13 14C13.5523 14 14 13.5523 14 13C14 12.4477 13.5523 12 13 12ZM3 5C4.30585 5 5.41406 5.83532 5.82617 7H14V9H5.82617C5.41406 10.1647 4.30585 11 3 11C1.34315 11 0 9.65685 0 8C0 6.34315 1.34315 5 3 5ZM3 7C2.44772 7 2 7.44772 2 8C2 8.55228 2.44772 9 3 9C3.55228 9 4 8.55228 4 8C4 7.44772 3.55228 7 3 7ZM13 0C14.6569 0 16 1.34315 16 3C16 4.65685 14.6569 6 13 6C11.6941 6 10.5859 5.16468 10.1738 4H2V2H10.1738C10.5859 0.835321 11.6941 0 13 0ZM13 2C12.4477 2 12 2.44772 12 3C12 3.55228 12.4477 4 13 4C13.5523 4 14 3.55228 14 3C14 2.44772 13.5523 2 13 2Z"/>
</mask>
<path d="M13 10C14.6569 10 16 11.3431 16 13C16 14.6569 14.6569 16 13 16C11.6941 16 10.5859 15.1647 10.1738 14H2V12H10.1738C10.5859 10.8353 11.6941 10 13 10ZM13 12C12.4477 12 12 12.4477 12 13C12 13.5523 12.4477 14 13 14C13.5523 14 14 13.5523 14 13C14 12.4477 13.5523 12 13 12ZM3 5C4.30585 5 5.41406 5.83532 5.82617 7H14V9H5.82617C5.41406 10.1647 4.30585 11 3 11C1.34315 11 0 9.65685 0 8C0 6.34315 1.34315 5 3 5ZM3 7C2.44772 7 2 7.44772 2 8C2 8.55228 2.44772 9 3 9C3.55228 9 4 8.55228 4 8C4 7.44772 3.55228 7 3 7ZM13 0C14.6569 0 16 1.34315 16 3C16 4.65685 14.6569 6 13 6C11.6941 6 10.5859 5.16468 10.1738 4H2V2H10.1738C10.5859 0.835321 11.6941 0 13 0ZM13 2C12.4477 2 12 2.44772 12 3C12 3.55228 12.4477 4 13 4C13.5523 4 14 3.55228 14 3C14 2.44772 13.5523 2 13 2Z" fill="#33FF33"/>
<path d="M10.1738 14L11.1166 13.6664L10.8807 13H10.1738V14ZM2 14H1V15H2V14ZM2 12V11H1V12H2ZM10.1738 12V13H10.8807L11.1166 12.3336L10.1738 12ZM5.82617 7L4.88345 7.33358L5.11926 8H5.82617V7ZM14 7H15V6H14V7ZM14 9V10H15V9H14ZM5.82617 9V8H5.11926L4.88345 8.66642L5.82617 9ZM10.1738 4L11.1166 3.66642L10.8807 3H10.1738V4ZM2 4H1V5H2V4ZM2 2V1H1V2H2ZM10.1738 2V3H10.8807L11.1166 2.33358L10.1738 2ZM13 10V11C14.1046 11 15 11.8954 15 13H16H17C17 10.7909 15.2091 9 13 9V10ZM16 13H15C15 14.1046 14.1046 15 13 15V16V17C15.2091 17 17 15.2091 17 13H16ZM13 16V15C12.1326 15 11.3923 14.4458 11.1166 13.6664L10.1738 14L9.2311 14.3336C9.77956 15.8836 11.2557 17 13 17V16ZM10.1738 14V13H2V14V15H10.1738V14ZM2 14H3V12H2H1V14H2ZM2 12V13H10.1738V12V11H2V12ZM10.1738 12L11.1166 12.3336C11.3923 11.5542 12.1326 11 13 11V10V9C11.2557 9 9.77956 10.1164 9.2311 11.6664L10.1738 12ZM13 12V11C11.8954 11 11 11.8954 11 13H12H13V12ZM12 13H11C11 14.1046 11.8954 15 13 15V14V13H12ZM13 14V15C14.1046 15 15 14.1046 15 13H14H13V14ZM14 13H15C15 11.8954 14.1046 11 13 11V12V13H14ZM3 5V6C3.8674 6 4.60768 6.55422 4.88345 7.33358L5.82617 7L6.7689 6.66642C6.22044 5.11642 4.74431 4 3 4V5ZM5.82617 7V8H14V7V6H5.82617V7ZM14 7H13V9H14H15V7H14ZM14 9V8H5.82617V9V10H14V9ZM5.82617 9L4.88345 8.66642C4.60768 9.44578 3.8674 10 3 10V11V12C4.74431 12 6.22044 10.8836 6.7689 9.33358L5.82617 9ZM3 11V10C1.89543 10 1 9.10457 1 8H0H-1C-1 10.2091 0.790861 12 3 12V11ZM0 8H1C1 6.89543 1.89543 6 3 6V5V4C0.790861 4 -1 5.79086 -1 8H0ZM3 7V6C1.89543 6 1 6.89543 1 8H2H3V7ZM2 8H1C1 9.10457 1.89543 10 3 10V9V8H2ZM3 9V10C4.10457 10 5 9.10457 5 8H4H3V9ZM4 8H5C5 6.89543 4.10457 6 3 6V7V8H4ZM13 0V1C14.1046 1 15 1.89543 15 3H16H17C17 0.790861 15.2091 -1 13 -1V0ZM16 3H15C15 4.10457 14.1046 5 13 5V6V7C15.2091 7 17 5.20914 17 3H16ZM13 6V5C12.1326 5 11.3923 4.44578 11.1166 3.66642L10.1738 4L9.2311 4.33358C9.77956 5.88358 11.2557 7 13 7V6ZM10.1738 4V3H2V4V5H10.1738V4ZM2 4H3V2H2H1V4H2ZM2 2V3H10.1738V2V1H2V2ZM10.1738 2L11.1166 2.33358C11.3923 1.55422 12.1326 1 13 1V0V-1C11.2557 -1 9.77956 0.116424 9.2311 1.66642L10.1738 2ZM13 2V1C11.8954 1 11 1.89543 11 3H12H13V2ZM12 3H11C11 4.10457 11.8954 5 13 5V4V3H12ZM13 4V5C14.1046 5 15 4.10457 15 3H14H13V4ZM14 3H15C15 1.89543 14.1046 1 13 1V2V3H14Z" fill="black" mask="url(#path-2-outside-1_18_284)"/>
</g>
<defs>
<clipPath id="clip0_18_284">
<rect width="16" height="16" fill="white"/>
</clipPath>
</defs>
</svg>
