<svg width="16" height="16" viewBox="0 0 16 16" fill="none" xmlns="http://www.w3.org/2000/svg">
<g clip-path="url(#clip0_24_245)">
<rect width="16" height="16" fill="black"/>
<rect opacity="0.5" x="0.5" y="0.5" width="15" height="15" stroke="#FF4DC4"/>
<mask id="path-2-outside-1_24_245" maskUnits="userSpaceOnUse" x="-1.94824" y="-4" width="19" height="19" fill="black">
<rect fill="white" x="-1.94824" y="-4" width="19" height="19"/>
<path d="M10 2C10.7879 2 11.568 2.15552 12.2959 2.45703C13.0239 2.75856 13.685 3.20066 14.2422 3.75781C14.7993 4.31496 15.2414 4.97615 15.543 5.7041C15.8445 6.43204 16 7.21209 16 8C16 8.78791 15.8445 9.56796 15.543 10.2959C15.2414 11.0239 14.7993 11.685 14.2422 12.2422C13.685 12.7993 13.0239 13.2414 12.2959 13.543C11.568 13.8445 10.7879 14 10 14V12C10.5252 12 11.0451 11.8962 11.5303 11.6953C12.0156 11.4943 12.4567 11.1996 12.8281 10.8281C13.1996 10.4567 13.4943 10.0156 13.6953 9.53027C13.8962 9.04506 14 8.52517 14 8C14 7.47483 13.8962 6.95494 13.6953 6.46973C13.4943 5.98442 13.1996 5.54331 12.8281 5.17188C12.4567 4.80044 12.0156 4.50571 11.5303 4.30469C11.0451 4.10376 10.5252 4 10 4V2ZM6 -3V-2L8.81641 2.69434C8.93641 2.89435 8.99999 3.12319 9 3.35645C9 3.71184 8.71184 3.99999 8.35645 4H6L6.79297 4.79297C6.92553 4.92558 7.00001 5.10546 7 5.29297C6.99996 5.68343 6.68342 5.99995 6.29297 6H5.41406C5.14889 6.00003 4.89454 6.10546 4.70703 6.29297L3.70703 7.29297C3.3166 7.68348 3.3166 8.31652 3.70703 8.70703L4.70703 9.70703C4.89454 9.89454 5.14889 9.99997 5.41406 10H6.29297C6.68341 10.0001 6.99996 10.3166 7 10.707C7 10.8945 6.92551 11.0744 6.79297 11.207L5.43945 12.5605C5.1582 12.8418 4.77665 12.9999 4.37891 13H-0.948242V-3H6ZM10 6C10.2626 6 10.523 6.05183 10.7656 6.15234C11.0082 6.25285 11.2284 6.40029 11.4141 6.58594C11.5997 6.77159 11.7471 6.99183 11.8477 7.23438C11.9482 7.47703 12 7.73736 12 8C12 8.26264 11.9482 8.52297 11.8477 8.76562C11.7471 9.00817 11.5997 9.22841 11.4141 9.41406C11.2284 9.59971 11.0082 9.74715 10.7656 9.84766C10.523 9.94817 10.2626 10 10 10V6Z"/>
</mask>
<path d="M10 2C10.7879 2 11.568 2.15552 12.2959 2.45703C13.0239 2.75856 13.685 3.20066 14.2422 3.75781C14.7993 4.31496 15.2414 4.97615 15.543 5.7041C15.8445 6.43204 16 7.21209 16 8C16 8.78791 15.8445 9.56796 15.543 10.2959C15.2414 11.0239 14.7993 11.685 14.2422 12.2422C13.685 12.7993 13.0239 13.2414 12.2959 13.543C11.568 13.8445 10.7879 14 10 14V12C10.5252 12 11.0451 11.8962 11.5303 11.6953C12.0156 11.4943 12.4567 11.1996 12.8281 10.8281C13.1996 10.4567 13.4943 10.0156 13.6953 9.53027C13.8962 9.04506 14 8.52517 14 8C14 7.47483 13.8962 6.95494 13.6953 6.46973C13.4943 5.98442 13.1996 5.54331 12.8281 5.17188C12.4567 4.80044 12.0156 4.50571 11.5303 4.30469C11.0451 4.10376 10.5252 4 10 4V2ZM6 -3V-2L8.81641 2.69434C8.93641 2.89435 8.99999 3.12319 9 3.35645C9 3.71184 8.71184 3.99999 8.35645 4H6L6.79297 4.79297C6.92553 4.92558 7.00001 5.10546 7 5.29297C6.99996 5.68343 6.68342 5.99995 6.29297 6H5.41406C5.14889 6.00003 4.89454 6.10546 4.70703 6.29297L3.70703 7.29297C3.3166 7.68348 3.3166 8.31652 3.70703 8.70703L4.70703 9.70703C4.89454 9.89454 5.14889 9.99997 5.41406 10H6.29297C6.68341 10.0001 6.99996 10.3166 7 10.707C7 10.8945 6.92551 11.0744 6.79297 11.207L5.43945 12.5605C5.1582 12.8418 4.77665 12.9999 4.37891 13H-0.948242V-3H6ZM10 6C10.2626 6 10.523 6.05183 10.7656 6.15234C11.0082 6.25285 11.2284 6.40029 11.4141 6.58594C11.5997 6.77159 11.7471 6.99183 11.8477 7.23438C11.9482 7.47703 12 7.73736 12 8C12 8.26264 11.9482 8.52297 11.8477 8.76562C11.7471 9.00817 11.5997 9.22841 11.4141 9.41406C11.2284 9.59971 11.0082 9.74715 10.7656 9.84766C10.523 9.94817 10.2626 10 10 10V6Z" fill="#FF4DC4"/>
<path d="M10 2V1H9V2H10ZM12.2959 2.45703L12.6786 1.53315L12.6786 1.53315L12.2959 2.45703ZM14.2422 3.75781L14.9493 3.05071V3.05071L14.2422 3.75781ZM15.543 5.7041L16.4669 5.32143L16.4668 5.32142L15.543 5.7041ZM16 8H17V8H16ZM15.543 10.2959L16.4668 10.6786L16.4669 10.6786L15.543 10.2959ZM14.2422 12.2422L14.9493 12.9493V12.9493L14.2422 12.2422ZM12.2959 13.543L12.6786 14.4669L12.6786 14.4668L12.2959 13.543ZM10 14H9V15H10V14ZM10 12V11H9V12H10ZM11.5303 11.6953L11.9129 12.6192L11.913 12.6192L11.5303 11.6953ZM12.8281 10.8281L12.121 10.121H12.121L12.8281 10.8281ZM13.6953 9.53027L14.6192 9.91296L14.6192 9.91288L13.6953 9.53027ZM14 8H15H14ZM13.6953 6.46973L14.6192 6.08712L14.6192 6.08704L13.6953 6.46973ZM12.8281 5.17188L12.121 5.87898V5.87898L12.8281 5.17188ZM11.5303 4.30469L11.913 3.38081L11.9129 3.38077L11.5303 4.30469ZM10 4H9V5H10V4ZM6 -3H7V-4H6V-3ZM6 -2H5V-1.72303L5.14249 -1.48553L6 -2ZM8.81641 2.69434L7.9589 3.20881L7.95891 3.20883L8.81641 2.69434ZM9 3.35645H10V3.35641L9 3.35645ZM8.35645 4V5H8.35646L8.35645 4ZM6 4V3H3.58579L5.29289 4.70711L6 4ZM6.79297 4.79297L7.5002 4.08598L7.50008 4.08586L6.79297 4.79297ZM7 5.29297L8 5.29308V5.29302L7 5.29297ZM6.29297 6V7H6.2931L6.29297 6ZM5.41406 6V5H5.41394L5.41406 6ZM4.70703 6.29297L5.41414 7.00008L5.41414 7.00007L4.70703 6.29297ZM3.70703 7.29297L2.99992 6.58586L2.99986 6.58593L3.70703 7.29297ZM3.70703 8.70703L2.99986 9.41407L2.99992 9.41414L3.70703 8.70703ZM4.70703 9.70703L5.41415 8.99993L5.41414 8.99992L4.70703 9.70703ZM5.41406 10L5.41394 11H5.41406V10ZM6.29297 10L6.29315 9H6.29297V10ZM7 10.707H8V10.7069L7 10.707ZM6.79297 11.207L7.50008 11.9141L7.50022 11.914L6.79297 11.207ZM5.43945 12.5605L4.73235 11.8534L4.73234 11.8534L5.43945 12.5605ZM4.37891 13V14H4.37906L4.37891 13ZM-0.948242 13H-1.94824V14H-0.948242V13ZM-0.948242 -3V-4H-1.94824V-3H-0.948242ZM10 6V5H9V6H10ZM10.7656 6.15234L11.1484 5.22852L11.1483 5.22846L10.7656 6.15234ZM11.4141 6.58594L12.1212 5.87883V5.87883L11.4141 6.58594ZM11.8477 7.23438L12.7715 6.85169L12.7715 6.85156L11.8477 7.23438ZM12 8H13V8H12ZM11.8477 8.76562L12.7715 9.14844L12.7715 9.14831L11.8477 8.76562ZM11.4141 9.41406L12.1212 10.1212L11.4141 9.41406ZM10.7656 9.84766L11.1483 10.7715L11.1484 10.7715L10.7656 9.84766ZM10 10H9V11H10V10ZM10 2V3C10.6563 3 11.3063 3.12954 11.9132 3.38092L12.2959 2.45703L12.6786 1.53315C11.8296 1.1815 10.9195 1 10 1V2ZM12.2959 2.45703L11.9132 3.38091C12.5196 3.6321 13.0706 4.00047 13.5351 4.46492L14.2422 3.75781L14.9493 3.05071C14.2994 2.40086 13.5281 1.88502 12.6786 1.53315L12.2959 2.45703ZM14.2422 3.75781L13.5351 4.46492C13.9995 4.92937 14.3679 5.48036 14.6191 6.08679L15.543 5.7041L16.4668 5.32142C16.115 4.47193 15.5991 3.70056 14.9493 3.05071L14.2422 3.75781ZM15.543 5.7041L14.6191 6.08677C14.8705 6.69367 15 7.34372 15 8H16H17C17 7.08047 16.8185 6.1704 16.4669 5.32143L15.543 5.7041ZM16 8H15C15 8.65628 14.8705 9.30633 14.6191 9.91323L15.543 10.2959L16.4669 10.6786C16.8185 9.8296 17 8.91953 17 8H16ZM15.543 10.2959L14.6191 9.91321C14.3679 10.5196 13.9995 11.0706 13.5351 11.5351L14.2422 12.2422L14.9493 12.9493C15.5991 12.2994 16.115 11.5281 16.4668 10.6786L15.543 10.2959ZM14.2422 12.2422L13.5351 11.5351C13.0706 11.9995 12.5196 12.3679 11.9132 12.6191L12.2959 13.543L12.6786 14.4668C13.5281 14.115 14.2994 13.5991 14.9493 12.9493L14.2422 12.2422ZM12.2959 13.543L11.9132 12.6191C11.3063 12.8705 10.6563 13 10 13V14V15C10.9195 15 11.8296 14.8185 12.6786 14.4669L12.2959 13.543ZM10 14H11V12H10H9V14H10ZM10 12V13C10.6569 13 11.3068 12.8702 11.9129 12.6192L11.5303 11.6953L11.1477 10.7714C10.7833 10.9223 10.3934 11 10 11V12ZM11.5303 11.6953L11.913 12.6192C12.5196 12.3679 13.0709 11.9995 13.5352 11.5352L12.8281 10.8281L12.121 10.121C11.8425 10.3996 11.5116 10.6207 11.1476 10.7714L11.5303 11.6953ZM12.8281 10.8281L13.5352 11.5352C13.9995 11.0709 14.3679 10.5196 14.6192 9.91296L13.6953 9.53027L12.7714 9.14759C12.6207 9.51158 12.3996 9.84245 12.121 10.121L12.8281 10.8281ZM13.6953 9.53027L14.6192 9.91288C14.8702 9.3068 15 8.65693 15 8H14H13C13 8.39341 12.9223 8.78333 12.7714 9.14767L13.6953 9.53027ZM14 8H15C15 7.34307 14.8702 6.6932 14.6192 6.08712L13.6953 6.46973L12.7714 6.85233C12.9223 7.21667 13 7.60659 13 8H14ZM13.6953 6.46973L14.6192 6.08704C14.3679 5.48042 13.9995 4.92907 13.5352 4.46477L12.8281 5.17188L12.121 5.87898C12.3996 6.15755 12.6207 6.48842 12.7714 6.85241L13.6953 6.46973ZM12.8281 5.17188L13.5352 4.46477C13.0709 4.00047 12.5196 3.63208 11.913 3.38081L11.5303 4.30469L11.1476 5.22857C11.5116 5.37934 11.8425 5.60041 12.121 5.87898L12.8281 5.17188ZM11.5303 4.30469L11.9129 3.38077C11.3068 3.12979 10.6569 3 10 3V4V5C10.3934 5 10.7833 5.07772 11.1477 5.2286L11.5303 4.30469ZM10 4H11V2H10H9V4H10ZM6 -3H5V-2H6H7V-3H6ZM6 -2L5.14249 -1.48553L7.9589 3.20881L8.81641 2.69434L9.67391 2.17987L6.85751 -2.51447L6 -2ZM8.81641 2.69434L7.95891 3.20883C7.98596 3.2539 8 3.305 8 3.35648L9 3.35645L10 3.35641C9.99999 2.94138 9.88687 2.53479 9.6739 2.17984L8.81641 2.69434ZM9 3.35645H8C8 3.15955 8.15957 3 8.35643 3L8.35645 4L8.35646 5C9.26412 4.99999 10 4.26414 10 3.35645H9ZM8.35645 4V3H6V4V5H8.35645V4ZM6 4L5.29289 4.70711L6.08586 5.50008L6.79297 4.79297L7.50008 4.08586L6.70711 3.29289L6 4ZM6.79297 4.79297L6.08574 5.49995C6.03081 5.445 6 5.37055 6 5.29292L7 5.29297L8 5.29302C8.00002 4.84037 7.82026 4.40616 7.5002 4.08598L6.79297 4.79297ZM7 5.29297L6 5.29286C6.00002 5.1311 6.13113 5.00002 6.29284 5L6.29297 6L6.2931 7C7.23571 6.99988 7.9999 6.23576 8 5.29308L7 5.29297ZM6.29297 6V5H5.41406V6V7H6.29297V6ZM5.41406 6L5.41394 5C4.88345 5.00006 4.37484 5.21094 3.99992 5.58587L4.70703 6.29297L5.41414 7.00007L5.41418 7L5.41406 6ZM4.70703 6.29297L3.99992 5.58586L2.99992 6.58586L3.70703 7.29297L4.41414 8.00008L5.41414 7.00008L4.70703 6.29297ZM3.70703 7.29297L2.99986 6.58593C2.21899 7.36695 2.21899 8.63305 2.99986 9.41407L3.70703 8.70703L4.41421 7.99999V8.00001L3.70703 7.29297ZM3.70703 8.70703L2.99992 9.41414L3.99992 10.4141L4.70703 9.70703L5.41414 8.99992L4.41414 7.99992L3.70703 8.70703ZM4.70703 9.70703L3.99992 10.4141C4.37484 10.7891 4.88346 10.9999 5.41394 11L5.41406 10L5.41418 9L5.41415 8.99993L4.70703 9.70703ZM5.41406 10V11H6.29297V10V9H5.41406V10ZM6.29297 10L6.29279 11C6.13115 11 6.00002 10.869 6 10.7071L7 10.707L8 10.7069C7.9999 9.76421 7.23566 9.00017 6.29315 9L6.29297 10ZM7 10.707H6C6 10.6294 6.03078 10.555 6.08571 10.5001L6.79297 11.207L7.50022 11.914C7.82025 11.5938 8 11.1596 8 10.707H7ZM6.79297 11.207L6.08586 10.4999L4.73235 11.8534L5.43945 12.5605L6.14656 13.2677L7.50008 11.9141L6.79297 11.207ZM5.43945 12.5605L4.73234 11.8534C4.63852 11.9473 4.51124 12 4.37875 12L4.37891 13L4.37906 14C5.04207 13.9999 5.67788 13.7363 6.14657 13.2676L5.43945 12.5605ZM4.37891 13V12H-0.948242V13V14H4.37891V13ZM-0.948242 13H0.0517578V-3H-0.948242H-1.94824V13H-0.948242ZM-0.948242 -3V-2H6V-3V-4H-0.948242V-3ZM10 6V7C10.1312 7 10.2615 7.02592 10.3829 7.07622L10.7656 6.15234L11.1483 5.22846C10.7845 5.07775 10.3941 5 10 5V6ZM10.7656 6.15234L10.3828 7.07617C10.5036 7.12621 10.6137 7.19983 10.707 7.29304L11.4141 6.58594L12.1212 5.87883C11.8431 5.60075 11.5128 5.37949 11.1484 5.22852L10.7656 6.15234ZM11.4141 6.58594L10.707 7.29304C10.8002 7.38626 10.8738 7.49642 10.9238 7.61719L11.8477 7.23438L12.7715 6.85156C12.6205 6.48723 12.3993 6.15692 12.1212 5.87883L11.4141 6.58594ZM11.8477 7.23438L10.9238 7.61706C10.9741 7.73851 11 7.86881 11 8H12H13C13 7.6059 12.9222 7.21555 12.7715 6.85169L11.8477 7.23438ZM12 8H11C11 8.13119 10.9741 8.26149 10.9238 8.38294L11.8477 8.76562L12.7715 9.14831C12.9222 8.78445 13 8.3941 13 8H12ZM11.8477 8.76562L10.9238 8.38281C10.8738 8.50358 10.8002 8.61374 10.707 8.70696L11.4141 9.41406L12.1212 10.1212C12.3993 9.84308 12.6205 9.51277 12.7715 9.14844L11.8477 8.76562ZM11.4141 9.41406L10.707 8.70696C10.6137 8.80017 10.5036 8.87379 10.3828 8.92383L10.7656 9.84766L11.1484 10.7715C11.5128 10.6205 11.8431 10.3993 12.1212 10.1212L11.4141 9.41406ZM10.7656 9.84766L10.3829 8.92378C10.2615 8.97408 10.1312 9 10 9V10V11C10.3941 11 10.7845 10.9222 11.1483 10.7715L10.7656 9.84766ZM10 10H11V6H10H9V10H10Z" fill="black" mask="url(#path-2-outside-1_24_245)"/>
</g>
<defs>
<clipPath id="clip0_24_245">
<rect width="16" height="16" fill="white"/>
</clipPath>
</defs>
</svg>
