<svg width="16" height="16" viewBox="0 0 16 16" fill="none" xmlns="http://www.w3.org/2000/svg">
<g clip-path="url(#clip0_3_148)">
<rect width="16" height="16" fill="black"/>
<rect opacity="0.5" x="0.5" y="0.5" width="15" height="15" stroke="#3399FF"/>
<mask id="path-2-outside-1_3_148" maskUnits="userSpaceOnUse" x="1.99969" y="2" width="12" height="15" fill="black">
<rect fill="white" x="1.99969" y="2" width="12" height="15"/>
<path d="M6.87473 3C6.9534 3 7.02748 3.03703 7.0747 3.09995L7.79413 4.05871C7.86122 4.14812 7.99969 4.11178 7.99969 4C7.99969 4.1114 8.13787 4.14766 8.20476 4.05858L8.92469 3.09988C8.97191 3.037 9.04596 3 9.1246 3H10.4996C10.7056 3 10.8232 3.23524 10.6995 3.40004L8.9778 5.69463C8.90733 5.78855 8.91144 5.91902 8.99017 6.00613C10.4475 7.61867 12.9997 9.32484 12.9997 13L12.9968 13.2725C12.9199 16 11.6326 16 7.99969 16C4.36707 16 3.08044 15.9999 3.0036 13.2725L2.99969 13C2.99969 9.32541 5.55082 7.61846 7.00824 6.00611C7.08697 5.919 7.0911 5.78855 7.02066 5.69461L5.29969 3.4C5.17609 3.23519 5.29368 3 5.49969 3H6.87473Z"/>
</mask>
<path d="M6.87473 3C6.9534 3 7.02748 3.03703 7.0747 3.09995L7.79413 4.05871C7.86122 4.14812 7.99969 4.11178 7.99969 4C7.99969 4.1114 8.13787 4.14766 8.20476 4.05858L8.92469 3.09988C8.97191 3.037 9.04596 3 9.1246 3H10.4996C10.7056 3 10.8232 3.23524 10.6995 3.40004L8.9778 5.69463C8.90733 5.78855 8.91144 5.91902 8.99017 6.00613C10.4475 7.61867 12.9997 9.32484 12.9997 13L12.9968 13.2725C12.9199 16 11.6326 16 7.99969 16C4.36707 16 3.08044 15.9999 3.0036 13.2725L2.99969 13C2.99969 9.32541 5.55082 7.61846 7.00824 6.00611C7.08697 5.919 7.0911 5.78855 7.02066 5.69461L5.29969 3.4C5.17609 3.23519 5.29368 3 5.49969 3H6.87473Z" fill="#3399FF"/>
<path d="M12.9997 13L13.9997 13.0108V13H12.9997ZM12.9968 13.2725L13.9964 13.3006L13.9966 13.2919L13.9967 13.2832L12.9968 13.2725ZM7.99969 16V17V16ZM3.0036 13.2725L2.00361 13.2868L2.004 13.3006L3.0036 13.2725ZM2.99969 13H1.99969V13.0072L1.9998 13.0143L2.99969 13ZM8.9778 5.69463L8.17793 5.09445L8.9778 5.69463ZM8.92469 3.09988L9.72433 3.70036L8.92469 3.09988ZM8.20476 4.05858L9.0044 4.65906L8.20476 4.05858ZM7.00824 6.00611L6.26639 5.33554L7.00824 6.00611ZM7.02066 5.69461L6.22066 6.29461L7.02066 5.69461ZM7.79413 4.05871L6.99427 4.65891L7.79413 4.05871ZM7.0747 3.09995L7.87455 2.49976L7.0747 3.09995ZM7.0747 3.09995L6.27484 3.70014L6.99427 4.65891L7.79413 4.05871L8.59398 3.45852L7.87455 2.49976L7.0747 3.09995ZM8.20476 4.05858L9.0044 4.65906L9.72433 3.70036L8.92469 3.09988L8.12505 2.4994L7.40512 3.4581L8.20476 4.05858ZM9.1246 3V4H10.4996V3V2H9.1246V3ZM10.6995 3.40004L9.89966 2.79987L8.17793 5.09445L8.9778 5.69463L9.77767 6.2948L11.4994 4.00022L10.6995 3.40004ZM8.99017 6.00613L8.24826 6.67663C9.89911 8.50331 11.9997 9.82244 11.9997 13H12.9997H13.9997C13.9997 8.82724 10.9959 6.73402 9.73208 5.33564L8.99017 6.00613ZM12.9997 13L11.9998 12.9892L11.9968 13.2617L12.9968 13.2725L13.9967 13.2832L13.9996 13.0108L12.9997 13ZM12.9968 13.2725L11.9972 13.2443C11.9796 13.8662 11.8933 14.2119 11.7967 14.4087C11.7207 14.5637 11.6248 14.6587 11.4336 14.7417C11.2005 14.8429 10.8344 14.9193 10.2351 14.9596C9.64325 14.9995 8.9195 15 7.99969 15V16V17C8.89631 17 9.69581 17.0005 10.3695 16.9551C11.0358 16.9103 11.6775 16.8161 12.2299 16.5764C12.8242 16.3184 13.2917 15.9021 13.5921 15.2899C13.872 14.7196 13.9755 14.0425 13.9964 13.3006L12.9968 13.2725ZM7.99969 16V15C7.07995 15 6.35629 14.9995 5.76456 14.9596C5.16542 14.9193 4.79946 14.8429 4.56646 14.7417C4.37541 14.6588 4.27962 14.5638 4.20358 14.4088C4.107 14.212 4.02073 13.8662 4.0032 13.2443L3.0036 13.2725L2.004 13.3006C2.0249 14.0424 2.12827 14.7195 2.40805 15.2898C2.70839 15.9019 3.17571 16.3183 3.76999 16.5763C4.32234 16.8161 4.96395 16.9102 5.63013 16.9551C6.30372 17.0005 7.10313 17 7.99969 17V16ZM3.0036 13.2725L4.0035 13.2581L3.99959 12.9857L2.99969 13L1.9998 13.0143L2.0037 13.2868L3.0036 13.2725ZM2.99969 13H3.99969C3.99969 9.82298 6.09953 8.5027 7.75009 6.67667L7.00824 6.00611L6.26639 5.33554C5.00211 6.73422 1.99969 8.82785 1.99969 13H2.99969ZM7.02066 5.69461L7.82066 5.09461L6.09969 2.8L5.29969 3.4L4.49969 4L6.22066 6.29461L7.02066 5.69461ZM5.49969 3V4H6.87473V3V2H5.49969V3ZM5.29969 3.4L6.09969 2.8C6.47052 3.29443 6.11773 4 5.49969 4V3V2C4.46964 2 3.88166 3.17595 4.49969 4L5.29969 3.4ZM8.9778 5.69463L8.17793 5.09445C7.82886 5.55967 7.83902 6.22381 8.24826 6.67663L8.99017 6.00613L9.73208 5.33564C9.98386 5.61423 9.9858 6.01743 9.77767 6.2948L8.9778 5.69463ZM8.92469 3.09988L9.72433 3.70036C9.58267 3.889 9.36051 4 9.1246 4V3V2C8.73142 2 8.36115 2.18499 8.12505 2.4994L8.92469 3.09988ZM7.99969 4H6.99969C6.99969 4.53733 7.36598 4.94544 7.81081 5.06835C8.2351 5.18559 8.71498 5.04448 9.0044 4.65906L8.20476 4.05858L7.40512 3.4581C7.62765 3.16177 8.00499 3.04706 8.34348 3.14059C8.70249 3.23979 8.99969 3.57408 8.99969 4H7.99969ZM7.00824 6.00611L7.75009 6.67667C8.15931 6.22394 8.16961 5.55989 7.82066 5.09461L7.02066 5.69461L6.22066 6.29461C6.0126 6.01721 6.01463 5.61407 6.26639 5.33554L7.00824 6.00611ZM7.79413 4.05871L6.99427 4.65891C7.28339 5.0442 7.76327 5.18614 8.18838 5.06869C8.63406 4.94556 8.99969 4.53679 8.99969 4H7.99969H6.99969C6.99969 3.57499 7.29609 3.24029 7.65577 3.14091C7.99486 3.04723 8.37196 3.16264 8.59398 3.45852L7.79413 4.05871ZM10.4996 3V4C9.88145 4 9.52868 3.29428 9.89966 2.79987L10.6995 3.40004L11.4994 4.00022C12.1177 3.17621 11.5297 2 10.4996 2V3ZM7.0747 3.09995L7.87455 2.49976C7.63847 2.18514 7.26807 2 6.87473 2V3V4C6.63873 4 6.41649 3.88891 6.27484 3.70014L7.0747 3.09995Z" fill="black" mask="url(#path-2-outside-1_3_148)"/>
</g>
<defs>
<clipPath id="clip0_3_148">
<rect width="16" height="16" fill="white"/>
</clipPath>
</defs>
</svg>
