<svg width="16" height="16" viewBox="0 0 16 16" fill="none" xmlns="http://www.w3.org/2000/svg">
<g clip-path="url(#clip0_4_179)">
<rect width="16" height="16" fill="black"/>
<rect opacity="0.5" x="0.5" y="0.5" width="15" height="15" stroke="#66CCFF"/>
<mask id="path-2-outside-1_4_179" maskUnits="userSpaceOnUse" x="-1" y="-1" width="18" height="18" fill="black">
<rect fill="white" x="-1" y="-1" width="18" height="18"/>
<path d="M8.75 2.04785C11.4639 2.38635 13.6126 4.53616 13.9512 7.25H16V8.75H13.9512C13.6126 11.4638 11.4638 13.6126 8.75 13.9512V16H7.25V13.9512C4.5362 13.6126 2.38737 11.4638 2.04883 8.75H0V7.25H2.04883C2.38738 4.53616 4.53614 2.38635 7.25 2.04785V0H8.75V2.04785ZM3.56348 8.75C3.87968 10.6342 5.36579 12.1203 7.25 12.4365V8.75H3.56348ZM8.75 8.75V12.4365C10.6342 12.1203 12.1203 10.6342 12.4365 8.75H8.75ZM8.75 7.25H12.4365C12.1203 5.36573 10.6343 3.87864 8.75 3.5625V7.25ZM7.25 3.5625C5.36571 3.87864 3.87969 5.36573 3.56348 7.25H7.25V3.5625Z"/>
</mask>
<path d="M8.75 2.04785C11.4639 2.38635 13.6126 4.53616 13.9512 7.25H16V8.75H13.9512C13.6126 11.4638 11.4638 13.6126 8.75 13.9512V16H7.25V13.9512C4.5362 13.6126 2.38737 11.4638 2.04883 8.75H0V7.25H2.04883C2.38738 4.53616 4.53614 2.38635 7.25 2.04785V0H8.75V2.04785ZM3.56348 8.75C3.87968 10.6342 5.36579 12.1203 7.25 12.4365V8.75H3.56348ZM8.75 8.75V12.4365C10.6342 12.1203 12.1203 10.6342 12.4365 8.75H8.75ZM8.75 7.25H12.4365C12.1203 5.36573 10.6343 3.87864 8.75 3.5625V7.25ZM7.25 3.5625C5.36571 3.87864 3.87969 5.36573 3.56348 7.25H7.25V3.5625Z" fill="#66CCFF"/>
<path d="M8.75 2.04785H7.75V2.93087L8.62623 3.04016L8.75 2.04785ZM13.9512 7.25L12.9589 7.37379L13.0682 8.25H13.9512V7.25ZM16 7.25H17V6.25H16V7.25ZM16 8.75V9.75H17V8.75H16ZM13.9512 8.75V7.75H13.0682L12.9589 8.62621L13.9512 8.75ZM8.75 13.9512L8.62621 12.9589L7.75 13.0682V13.9512H8.75ZM8.75 16V17H9.75V16H8.75ZM7.25 16H6.25V17H7.25V16ZM7.25 13.9512H8.25V13.0682L7.37379 12.9589L7.25 13.9512ZM2.04883 8.75L3.04114 8.62621L2.93183 7.75H2.04883V8.75ZM0 8.75H-1V9.75H0V8.75ZM0 7.25V6.25H-1V7.25H0ZM2.04883 7.25V8.25H2.93183L3.04114 7.37379L2.04883 7.25ZM7.25 2.04785L7.37377 3.04016L8.25 2.93087V2.04785H7.25ZM7.25 0V-1H6.25V0H7.25ZM8.75 0H9.75V-1H8.75V0ZM3.56348 8.75V7.75H2.38168L2.57727 8.9155L3.56348 8.75ZM7.25 12.4365L7.0845 13.4227L8.25 13.6183V12.4365H7.25ZM7.25 8.75H8.25V7.75H7.25V8.75ZM8.75 8.75V7.75H7.75V8.75H8.75ZM8.75 12.4365H7.75V13.6183L8.9155 13.4227L8.75 12.4365ZM12.4365 8.75L13.4227 8.9155L13.6183 7.75H12.4365V8.75ZM8.75 7.25H7.75V8.25H8.75V7.25ZM12.4365 7.25V8.25H13.6183L13.4227 7.0845L12.4365 7.25ZM8.75 3.5625L8.91547 2.57628L7.75 2.38074V3.5625H8.75ZM7.25 3.5625H8.25V2.38074L7.08453 2.57628L7.25 3.5625ZM3.56348 7.25L2.57727 7.0845L2.38168 8.25H3.56348V7.25ZM7.25 7.25V8.25H8.25V7.25H7.25ZM8.75 2.04785L8.62623 3.04016C10.8857 3.32198 12.6769 5.11385 12.9589 7.37379L13.9512 7.25L14.9435 7.12621C14.5483 3.95847 12.042 1.45071 8.87377 1.05554L8.75 2.04785ZM13.9512 7.25V8.25H16V7.25V6.25H13.9512V7.25ZM16 7.25H15V8.75H16H17V7.25H16ZM16 8.75V7.75H13.9512V8.75V9.75H16V8.75ZM13.9512 8.75L12.9589 8.62621C12.677 10.8859 10.8859 12.677 8.62621 12.9589L8.75 13.9512L8.87379 14.9435C12.0417 14.5483 14.5483 12.0417 14.9435 8.87379L13.9512 8.75ZM8.75 13.9512H7.75V16H8.75H9.75V13.9512H8.75ZM8.75 16V15H7.25V16V17H8.75V16ZM7.25 16H8.25V13.9512H7.25H6.25V16H7.25ZM7.25 13.9512L7.37379 12.9589C5.11413 12.677 3.32303 10.8859 3.04114 8.62621L2.04883 8.75L1.05652 8.87379C1.45172 12.0417 3.95827 14.5483 7.12621 14.9435L7.25 13.9512ZM2.04883 8.75V7.75H0V8.75V9.75H2.04883V8.75ZM0 8.75H1V7.25H0H-1V8.75H0ZM0 7.25V8.25H2.04883V7.25V6.25H0V7.25ZM2.04883 7.25L3.04114 7.37379C3.32306 5.11385 5.11431 3.32198 7.37377 3.04016L7.25 2.04785L7.12623 1.05554C3.95798 1.45071 1.45169 3.95847 1.05652 7.12621L2.04883 7.25ZM7.25 2.04785H8.25V0H7.25H6.25V2.04785H7.25ZM7.25 0V1H8.75V0V-1H7.25V0ZM8.75 0H7.75V2.04785H8.75H9.75V0H8.75ZM3.56348 8.75L2.57727 8.9155C2.96405 11.2203 4.7797 13.036 7.0845 13.4227L7.25 12.4365L7.4155 11.4503C5.95187 11.2047 4.79531 10.0481 4.54969 8.5845L3.56348 8.75ZM7.25 12.4365H8.25V8.75H7.25H6.25V12.4365H7.25ZM7.25 8.75V7.75H3.56348V8.75V9.75H7.25V8.75ZM8.75 8.75H7.75V12.4365H8.75H9.75V8.75H8.75ZM8.75 12.4365L8.9155 13.4227C11.2203 13.036 13.036 11.2203 13.4227 8.9155L12.4365 8.75L11.4503 8.5845C11.2047 10.0481 10.0481 11.2047 8.5845 11.4503L8.75 12.4365ZM12.4365 8.75V7.75H8.75V8.75V9.75H12.4365V8.75ZM8.75 7.25V8.25H12.4365V7.25V6.25H8.75V7.25ZM12.4365 7.25L13.4227 7.0845C13.036 4.77998 11.2207 2.96305 8.91547 2.57628L8.75 3.5625L8.58453 4.54872C10.0479 4.79423 11.2046 5.95148 11.4503 7.4155L12.4365 7.25ZM8.75 3.5625H7.75V7.25H8.75H9.75V3.5625H8.75ZM7.25 3.5625L7.08453 2.57628C4.7793 2.96305 2.964 4.77998 2.57727 7.0845L3.56348 7.25L4.54969 7.4155C4.79537 5.95148 5.95212 4.79423 7.41547 4.54872L7.25 3.5625ZM3.56348 7.25V8.25H7.25V7.25V6.25H3.56348V7.25ZM7.25 7.25H8.25V3.5625H7.25H6.25V7.25H7.25Z" fill="black" mask="url(#path-2-outside-1_4_179)"/>
<rect x="5" y="5" width="6" height="6" fill="black"/>
<circle cx="8" cy="8" r="1" fill="#66CCFF"/>
</g>
<defs>
<clipPath id="clip0_4_179">
<rect width="16" height="16" fill="white"/>
</clipPath>
</defs>
</svg>
