<svg width="16" height="16" viewBox="0 0 16 16" fill="none" xmlns="http://www.w3.org/2000/svg">
<g clip-path="url(#clip0_6_253)">
<rect width="16" height="16" fill="black"/>
<rect opacity="0.5" x="0.5" y="0.5" width="15" height="15" stroke="#F8BE00"/>
<mask id="path-2-outside-1_6_253" maskUnits="userSpaceOnUse" x="-1" y="-1" width="18" height="18" fill="black">
<rect fill="white" x="-1" y="-1" width="18" height="18"/>
<path d="M9.97949 6.02051L16 8L9.97949 9.97949L8 16L6.02051 9.97949L0 8L6.02051 6.02051L8 0L9.97949 6.02051ZM7.91992 6.64453L7.60449 7.60449L6.64453 7.91992L6.40039 8L6.64453 8.08008L7.60449 8.39551L7.91992 9.35547L8 9.59863L8.08008 9.35547L8.39551 8.39551L9.35547 8.08008L9.59863 8L9.35547 7.91992L8.39551 7.60449L8.08008 6.64453L8 6.40039L7.91992 6.64453Z"/>
</mask>
<path d="M9.97949 6.02051L16 8L9.97949 9.97949L8 16L6.02051 9.97949L0 8L6.02051 6.02051L8 0L9.97949 6.02051ZM7.91992 6.64453L7.60449 7.60449L6.64453 7.91992L6.40039 8L6.64453 8.08008L7.60449 8.39551L7.91992 9.35547L8 9.59863L8.08008 9.35547L8.39551 8.39551L9.35547 8.08008L9.59863 8L9.35547 7.91992L8.39551 7.60449L8.08008 6.64453L8 6.40039L7.91992 6.64453Z" fill="#F8BE00"/>
<path d="M9.97949 6.02051L9.02952 6.33285C9.12873 6.6346 9.3654 6.87127 9.66715 6.97048L9.97949 6.02051ZM16 8L16.3123 8.94997C16.7227 8.81506 17 8.43194 17 8C17 7.56806 16.7227 7.18494 16.3123 7.05003L16 8ZM9.97949 9.97949L9.66715 9.02952C9.3654 9.12873 9.12873 9.3654 9.02952 9.66715L9.97949 9.97949ZM8 16L7.05003 16.3123C7.18494 16.7227 7.56806 17 8 17C8.43194 17 8.81506 16.7227 8.94997 16.3123L8 16ZM6.02051 9.97949L6.97048 9.66715C6.87127 9.3654 6.6346 9.12873 6.33285 9.02952L6.02051 9.97949ZM0 8L-0.312342 7.05003C-0.72267 7.18494 -1 7.56806 -1 8C-1 8.43194 -0.72267 8.81506 -0.312342 8.94997L0 8ZM6.02051 6.02051L6.33285 6.97048C6.6346 6.87127 6.87127 6.6346 6.97048 6.33285L6.02051 6.02051ZM8 0L8.94997 -0.312342C8.81506 -0.72267 8.43194 -1 8 -1C7.56806 -1 7.18494 -0.72267 7.05003 -0.312342L8 0ZM7.91992 6.64453L8.86995 6.9567L8.87011 6.95619L7.91992 6.64453ZM7.60449 7.60449L7.91666 8.55452C8.21855 8.45532 8.45532 8.21855 8.55452 7.91666L7.60449 7.60449ZM6.64453 7.91992L6.95619 8.87011L6.9567 8.86995L6.64453 7.91992ZM6.40039 8L6.08873 7.04981C5.67805 7.18451 5.40039 7.5678 5.40039 8C5.40039 8.4322 5.67805 8.81549 6.08873 8.95019L6.40039 8ZM6.64453 8.08008L6.9567 7.13005L6.95619 7.12989L6.64453 8.08008ZM7.60449 8.39551L8.55452 8.08334C8.45532 7.78145 8.21855 7.54468 7.91666 7.44548L7.60449 8.39551ZM7.91992 9.35547L6.96989 9.66763L6.9701 9.66826L7.91992 9.35547ZM8 9.59863L7.05018 9.91143C7.18523 10.3215 7.56824 10.5986 8 10.5986C8.43176 10.5986 8.81477 10.3215 8.94982 9.91143L8 9.59863ZM8.08008 9.35547L9.0299 9.66826L9.03011 9.66763L8.08008 9.35547ZM8.39551 8.39551L8.08334 7.44548C7.78145 7.54468 7.54468 7.78145 7.44548 8.08334L8.39551 8.39551ZM9.35547 8.08008L9.66763 9.03011L9.66826 9.0299L9.35547 8.08008ZM9.59863 8L9.91143 8.94982C10.3215 8.81477 10.5986 8.43176 10.5986 8C10.5986 7.56824 10.3215 7.18523 9.91143 7.05018L9.59863 8ZM9.35547 7.91992L9.66826 6.9701L9.66763 6.96989L9.35547 7.91992ZM8.39551 7.60449L7.44548 7.91666C7.54468 8.21855 7.78145 8.45532 8.08334 8.55452L8.39551 7.60449ZM8.08008 6.64453L7.12989 6.95619L7.13005 6.9567L8.08008 6.64453ZM8 6.40039L8.95019 6.08873C8.81549 5.67805 8.4322 5.40039 8 5.40039C7.5678 5.40039 7.18451 5.67805 7.04981 6.08873L8 6.40039ZM9.97949 6.02051L9.66715 6.97048L15.6877 8.94997L16 8L16.3123 7.05003L10.2918 5.07054L9.97949 6.02051ZM16 8L15.6877 7.05003L9.66715 9.02952L9.97949 9.97949L10.2918 10.9295L16.3123 8.94997L16 8ZM9.97949 9.97949L9.02952 9.66715L7.05003 15.6877L8 16L8.94997 16.3123L10.9295 10.2918L9.97949 9.97949ZM8 16L8.94997 15.6877L6.97048 9.66715L6.02051 9.97949L5.07054 10.2918L7.05003 16.3123L8 16ZM6.02051 9.97949L6.33285 9.02952L0.312342 7.05003L0 8L-0.312342 8.94997L5.70817 10.9295L6.02051 9.97949ZM0 8L0.312342 8.94997L6.33285 6.97048L6.02051 6.02051L5.70817 5.07054L-0.312342 7.05003L0 8ZM6.02051 6.02051L6.97048 6.33285L8.94997 0.312342L8 0L7.05003 -0.312342L5.07054 5.70817L6.02051 6.02051ZM8 0L7.05003 0.312342L9.02952 6.33285L9.97949 6.02051L10.9295 5.70817L8.94997 -0.312342L8 0ZM7.91992 6.64453L6.96989 6.33237L6.65446 7.29233L7.60449 7.60449L8.55452 7.91666L8.86995 6.9567L7.91992 6.64453ZM7.60449 7.60449L7.29233 6.65446L6.33237 6.96989L6.64453 7.91992L6.9567 8.86995L7.91666 8.55452L7.60449 7.60449ZM6.64453 7.91992L6.33287 6.96973L6.08873 7.04981L6.40039 8L6.71205 8.95019L6.95619 8.87011L6.64453 7.91992ZM6.40039 8L6.08873 8.95019L6.33287 9.03027L6.64453 8.08008L6.95619 7.12989L6.71205 7.04981L6.40039 8ZM6.64453 8.08008L6.33237 9.03011L7.29233 9.34554L7.60449 8.39551L7.91666 7.44548L6.9567 7.13005L6.64453 8.08008ZM7.60449 8.39551L6.65446 8.70767L6.96989 9.66763L7.91992 9.35547L8.86995 9.0433L8.55452 8.08334L7.60449 8.39551ZM7.91992 9.35547L6.9701 9.66826L7.05018 9.91143L8 9.59863L8.94982 9.28584L8.86974 9.04268L7.91992 9.35547ZM8 9.59863L8.94982 9.91143L9.0299 9.66826L8.08008 9.35547L7.13026 9.04268L7.05018 9.28584L8 9.59863ZM8.08008 9.35547L9.03011 9.66763L9.34554 8.70767L8.39551 8.39551L7.44548 8.08334L7.13005 9.0433L8.08008 9.35547ZM8.39551 8.39551L8.70767 9.34554L9.66763 9.03011L9.35547 8.08008L9.0433 7.13005L8.08334 7.44548L8.39551 8.39551ZM9.35547 8.08008L9.66826 9.0299L9.91143 8.94982L9.59863 8L9.28584 7.05018L9.04268 7.13026L9.35547 8.08008ZM9.59863 8L9.91143 7.05018L9.66826 6.9701L9.35547 7.91992L9.04268 8.86974L9.28584 8.94982L9.59863 8ZM9.35547 7.91992L9.66763 6.96989L8.70767 6.65446L8.39551 7.60449L8.08334 8.55452L9.0433 8.86995L9.35547 7.91992ZM8.39551 7.60449L9.34554 7.29233L9.03011 6.33237L8.08008 6.64453L7.13005 6.9567L7.44548 7.91666L8.39551 7.60449ZM8.08008 6.64453L9.03027 6.33287L8.95019 6.08873L8 6.40039L7.04981 6.71205L7.12989 6.95619L8.08008 6.64453ZM8 6.40039L7.04981 6.08873L6.96973 6.33287L7.91992 6.64453L8.87011 6.95619L8.95019 6.71205L8 6.40039Z" fill="black" mask="url(#path-2-outside-1_6_253)"/>
<mask id="path-4-inside-2_6_253" fill="white">
<path d="M8 3L8.57403 6.61418L11.5355 4.46447L9.38582 7.42597L13 8L9.38582 8.57403L11.5355 11.5355L8.57403 9.38582L8 13L7.42597 9.38582L4.46447 11.5355L6.61418 8.57403L3 8L6.61418 7.42597L4.46447 4.46447L7.42597 6.61418L8 3Z"/>
</mask>
<path d="M8 3L9.97524 2.68628H6.02476L8 3ZM8.57403 6.61418L6.59878 6.9279L7.11023 10.1481L9.7489 8.23272L8.57403 6.61418ZM11.5355 4.46447L13.1541 5.63934L10.3607 2.84593L11.5355 4.46447ZM9.38582 7.42597L7.76728 6.2511L5.85191 8.88977L9.0721 9.40122L9.38582 7.42597ZM13 8L13.3137 9.97524V6.02476L13 8ZM9.38582 8.57403L9.0721 6.59878L5.85191 7.11023L7.76728 9.7489L9.38582 8.57403ZM11.5355 11.5355L10.3607 13.1541L13.1541 10.3607L11.5355 11.5355ZM8.57403 9.38582L9.7489 7.76728L7.11023 5.85191L6.59878 9.0721L8.57403 9.38582ZM8 13L6.02476 13.3137H9.97524L8 13ZM7.42597 9.38582L9.40122 9.0721L8.88977 5.85191L6.2511 7.76728L7.42597 9.38582ZM4.46447 11.5355L2.84593 10.3607L5.63934 13.1541L4.46447 11.5355ZM6.61418 8.57403L8.23272 9.7489L10.1481 7.11023L6.9279 6.59878L6.61418 8.57403ZM3 8L2.68628 6.02476V9.97524L3 8ZM6.61418 7.42597L6.9279 9.40122L10.1481 8.88977L8.23272 6.2511L6.61418 7.42597ZM4.46447 4.46447L5.63934 2.84593L2.84593 5.63934L4.46447 4.46447ZM7.42597 6.61418L6.2511 8.23272L8.88977 10.1481L9.40122 6.9279L7.42597 6.61418ZM8 3L6.02476 3.31372L6.59878 6.9279L8.57403 6.61418L10.5493 6.30046L9.97524 2.68628L8 3ZM8.57403 6.61418L9.7489 8.23272L12.7104 6.08301L11.5355 4.46447L10.3607 2.84593L7.39915 4.99564L8.57403 6.61418ZM11.5355 4.46447L9.91699 3.28959L7.76728 6.2511L9.38582 7.42597L11.0044 8.60085L13.1541 5.63934L11.5355 4.46447ZM9.38582 7.42597L9.0721 9.40122L12.6863 9.97524L13 8L13.3137 6.02476L9.69954 5.45073L9.38582 7.42597ZM13 8L12.6863 6.02476L9.0721 6.59878L9.38582 8.57403L9.69954 10.5493L13.3137 9.97524L13 8ZM9.38582 8.57403L7.76728 9.7489L9.91699 12.7104L11.5355 11.5355L13.1541 10.3607L11.0044 7.39915L9.38582 8.57403ZM11.5355 11.5355L12.7104 9.91699L9.7489 7.76728L8.57403 9.38582L7.39915 11.0044L10.3607 13.1541L11.5355 11.5355ZM8.57403 9.38582L6.59878 9.0721L6.02476 12.6863L8 13L9.97524 13.3137L10.5493 9.69954L8.57403 9.38582ZM8 13L9.97524 12.6863L9.40122 9.0721L7.42597 9.38582L5.45073 9.69954L6.02476 13.3137L8 13ZM7.42597 9.38582L6.2511 7.76728L3.28959 9.91699L4.46447 11.5355L5.63934 13.1541L8.60085 11.0044L7.42597 9.38582ZM4.46447 11.5355L6.08301 12.7104L8.23272 9.7489L6.61418 8.57403L4.99564 7.39915L2.84593 10.3607L4.46447 11.5355ZM6.61418 8.57403L6.9279 6.59878L3.31372 6.02476L3 8L2.68628 9.97524L6.30046 10.5493L6.61418 8.57403ZM3 8L3.31372 9.97524L6.9279 9.40122L6.61418 7.42597L6.30046 5.45073L2.68628 6.02476L3 8ZM6.61418 7.42597L8.23272 6.2511L6.08301 3.28959L4.46447 4.46447L2.84593 5.63934L4.99564 8.60085L6.61418 7.42597ZM4.46447 4.46447L3.28959 6.08301L6.2511 8.23272L7.42597 6.61418L8.60085 4.99564L5.63934 2.84593L4.46447 4.46447ZM7.42597 6.61418L9.40122 6.9279L9.97524 3.31372L8 3L6.02476 2.68628L5.45073 6.30046L7.42597 6.61418Z" fill="white" mask="url(#path-4-inside-2_6_253)"/>
<circle opacity="0.5" cx="8" cy="8" r="5.5" stroke="#F8BE00"/>
</g>
<defs>
<clipPath id="clip0_6_253">
<rect width="16" height="16" fill="white"/>
</clipPath>
</defs>
</svg>
