<svg width="16" height="16" viewBox="0 0 16 16" fill="none" xmlns="http://www.w3.org/2000/svg">
<g clip-path="url(#clip0_2_124)">
<rect width="16" height="16" fill="black"/>
<rect opacity="0.5" x="0.5" y="0.5" width="15" height="15" stroke="#F8BE00"/>
<mask id="path-2-outside-1_2_124" maskUnits="userSpaceOnUse" x="2" y="-1" width="12" height="18" fill="black">
<rect fill="white" x="2" y="-1" width="12" height="18"/>
<path d="M9.25 13C9.38807 13 9.5 13.1119 9.5 13.25V14.7637C9.5 14.9188 9.46389 15.0721 9.39453 15.2109L9.06934 15.8613C9.02702 15.946 8.94031 15.9999 8.8457 16H7.1543C7.05969 15.9999 6.97298 15.946 6.93066 15.8613L6.60547 15.2109C6.53611 15.0721 6.5 14.9188 6.5 14.7637V13.25C6.5 13.1119 6.61193 13 6.75 13H9.25ZM8 0C9.32608 1.00116e-07 10.5975 0.527162 11.5352 1.46484C12.4728 2.40253 13 3.67392 13 5C13 6.53374 12 8 11 9C10.0914 9.90864 10.0086 9.99201 10.001 11.5C9.9994 11.776 9.77602 12 9.5 12H6.5C6.22397 12 6.00078 11.776 6.00098 11.5C6.00302 10.0031 5.96953 9.96953 5 9C3.93263 7.93263 3 6.53374 3 5C3 3.67392 3.52716 2.40253 4.46484 1.46484C5.40253 0.527162 6.67392 -1.44934e-10 8 0Z"/>
</mask>
<path d="M9.25 13C9.38807 13 9.5 13.1119 9.5 13.25V14.7637C9.5 14.9188 9.46389 15.0721 9.39453 15.2109L9.06934 15.8613C9.02702 15.946 8.94031 15.9999 8.8457 16H7.1543C7.05969 15.9999 6.97298 15.946 6.93066 15.8613L6.60547 15.2109C6.53611 15.0721 6.5 14.9188 6.5 14.7637V13.25C6.5 13.1119 6.61193 13 6.75 13H9.25ZM8 0C9.32608 1.00116e-07 10.5975 0.527162 11.5352 1.46484C12.4728 2.40253 13 3.67392 13 5C13 6.53374 12 8 11 9C10.0914 9.90864 10.0086 9.99201 10.001 11.5C9.9994 11.776 9.77602 12 9.5 12H6.5C6.22397 12 6.00078 11.776 6.00098 11.5C6.00302 10.0031 5.96953 9.96953 5 9C3.93263 7.93263 3 6.53374 3 5C3 3.67392 3.52716 2.40253 4.46484 1.46484C5.40253 0.527162 6.67392 -1.44934e-10 8 0Z" fill="#F8BE00"/>
<path d="M9.39453 15.2109L10.289 15.6582L10.2891 15.6579L9.39453 15.2109ZM8.8457 16V17H8.84654L8.8457 16ZM7.1543 16L7.15346 17H7.1543V16ZM6.60547 15.2109L5.71094 15.6579L5.71104 15.6582L6.60547 15.2109ZM6.75 13V12V12V13ZM8 0V-1V-1V0ZM11.5352 1.46484L12.2423 0.757737V0.757737L11.5352 1.46484ZM13 5H14H13ZM10.001 11.5L11.001 11.5057L11.001 11.505L10.001 11.5ZM6.00098 11.5L5.00098 11.4986L5.00098 11.4993L6.00098 11.5ZM3 5H2V5H3ZM4.46484 1.46484L3.75774 0.757737L3.75774 0.757737L4.46484 1.46484ZM9.25 13V14C8.83579 14 8.5 13.6642 8.5 13.25H9.5H10.5C10.5 12.5596 9.94036 12 9.25 12V13ZM9.5 13.25H8.5V14.7637H9.5H10.5V13.25H9.5ZM9.5 14.7637H8.5V14.7639L9.39453 15.2109L10.2891 15.6579C10.4279 15.3801 10.5 15.0737 10.5 14.7637H9.5ZM9.39453 15.2109L8.5001 14.7637L8.17491 15.4141L9.06934 15.8613L9.96376 16.3085L10.289 15.6582L9.39453 15.2109ZM9.06934 15.8613L8.17491 15.4141C8.30079 15.1624 8.55863 15.0002 8.84486 15L8.8457 16L8.84654 17C9.322 16.9996 9.75325 16.7296 9.96376 16.3085L9.06934 15.8613ZM8.8457 16V15H7.1543V16V17H8.8457V16ZM7.1543 16L7.15514 15C7.44137 15.0002 7.69921 15.1624 7.82509 15.4141L6.93066 15.8613L6.03624 16.3085C6.24675 16.7296 6.678 16.9996 7.15346 17L7.1543 16ZM6.93066 15.8613L7.82509 15.4141L7.4999 14.7637L6.60547 15.2109L5.71104 15.6582L6.03624 16.3085L6.93066 15.8613ZM6.60547 15.2109L7.5 14.7639V14.7637H6.5H5.5C5.5 15.0737 5.5721 15.3801 5.71094 15.6579L6.60547 15.2109ZM6.5 14.7637H7.5V13.25H6.5H5.5V14.7637H6.5ZM6.5 13.25H7.5C7.5 13.6642 7.16421 14 6.75 14V13V12C6.05964 12 5.5 12.5596 5.5 13.25H6.5ZM6.75 13V14H9.25V13V12H6.75V13ZM8 0V1C9.06059 1 10.0777 1.42161 10.828 2.17195L11.5352 1.46484L12.2423 0.757737C11.1172 -0.367288 9.59157 -1 8 -1V0ZM11.5352 1.46484L10.828 2.17195C11.5784 2.92229 12 3.93941 12 5H13H14C14 3.40843 13.3673 1.88276 12.2423 0.757737L11.5352 1.46484ZM13 5H12C12 6.13195 11.2313 7.35449 10.2929 8.29289L11 9L11.7071 9.70711C12.7687 8.64551 14 6.93553 14 5H13ZM11 9L10.2929 8.29289C9.88895 8.69684 9.46825 9.09442 9.2402 9.63898C9.01451 10.1779 9.00456 10.7856 9.00099 11.495L10.001 11.5L11.001 11.505C11.005 10.7064 11.0402 10.5184 11.085 10.4115C11.1274 10.3102 11.2024 10.2118 11.7071 9.70711L11 9ZM10.001 11.5L9.00099 11.4943C9.00253 11.2252 9.22101 11 9.5 11V12V13C10.331 13 10.9963 12.3268 11.001 11.5057L10.001 11.5ZM9.5 12V11H6.5V12V13H9.5V12ZM6.5 12V11C6.77819 11 7.00117 11.2258 7.00098 11.5007L6.00098 11.5L5.00098 11.4993C5.00038 12.3262 5.66974 13 6.5 13V12ZM6.00098 11.5L7.00098 11.5014C7.0019 10.8235 7.01075 10.2134 6.79063 9.67425C6.56753 9.12782 6.13414 8.71993 5.70711 8.29289L5 9L4.29289 9.70711C4.83539 10.2496 4.90351 10.3433 4.93902 10.4303C4.97752 10.5245 5.0021 10.6796 5.00098 11.4986L6.00098 11.5ZM5 9L5.70711 8.29289C4.70688 7.29266 4 6.13656 4 5H3H2C2 6.93092 3.15839 8.5726 4.29289 9.70711L5 9ZM3 5H4C4 3.93941 4.42161 2.92229 5.17195 2.17195L4.46484 1.46484L3.75774 0.757737C2.63271 1.88276 2 3.40843 2 5H3ZM4.46484 1.46484L5.17195 2.17195C5.92229 1.42161 6.93941 1 8 1V0V-1C6.40843 -1 4.88276 -0.367287 3.75774 0.757737L4.46484 1.46484Z" fill="black" mask="url(#path-2-outside-1_2_124)"/>
<path d="M11 5C11 4.60603 10.9224 4.21593 10.7716 3.85195C10.6209 3.48797 10.3999 3.15726 10.1213 2.87868C9.84274 2.6001 9.51203 2.37913 9.14805 2.22836C8.78407 2.0776 8.39397 2 8 2C7.60603 2 7.21593 2.0776 6.85195 2.22836C6.48797 2.37913 6.15726 2.6001 5.87868 2.87868C5.6001 3.15726 5.37913 3.48797 5.22836 3.85195C5.0776 4.21593 5 4.60603 5 5L8 5H11Z" fill="white"/>
</g>
<defs>
<clipPath id="clip0_2_124">
<rect width="16" height="16" fill="white"/>
</clipPath>
</defs>
</svg>
