<svg width="16" height="16" viewBox="0 0 16 16" fill="none" xmlns="http://www.w3.org/2000/svg">
<g clip-path="url(#clip0_1_597)">
<rect width="16" height="16" fill="black"/>
<rect opacity="0.5" x="0.5" y="0.5" width="15" height="15" stroke="#00B3FF"/>
<mask id="path-2-outside-1_1_597" maskUnits="userSpaceOnUse" x="0" y="-2" width="16" height="20" fill="black">
<rect fill="white" y="-2" width="16" height="20"/>
<path d="M15 4V12L8 16L1 12V4L8 0L15 4ZM3 5.16016V10.8389L8 13.6963L13 10.8389V5.16016L8 2.30273L3 5.16016ZM9.73242 7V9L8 10L6.26758 9V7L8 6L9.73242 7Z"/>
</mask>
<path d="M15 4V12L8 16L1 12V4L8 0L15 4ZM3 5.16016V10.8389L8 13.6963L13 10.8389V5.16016L8 2.30273L3 5.16016ZM9.73242 7V9L8 10L6.26758 9V7L8 6L9.73242 7Z" fill="#00B2FF"/>
<path d="M15 4H16V3.41968L15.4961 3.13176L15 4ZM15 12L15.4961 12.8682L16 12.5803V12H15ZM8 16L7.50386 16.8682L8 17.1518L8.49614 16.8682L8 16ZM1 12H0V12.5803L0.503861 12.8682L1 12ZM1 4L0.503861 3.13176L0 3.41968V4H1ZM8 0L8.49614 -0.868243L8 -1.15175L7.50386 -0.868243L8 0ZM3 5.16016L2.50382 4.29193L2 4.57986V5.16016H3ZM3 10.8389H2V11.4192L2.50382 11.7071L3 10.8389ZM8 13.6963L7.50382 14.5645L8 14.8481L8.49618 14.5645L8 13.6963ZM13 10.8389L13.4962 11.7071L14 11.4192V10.8389H13ZM13 5.16016H14V4.57986L13.4962 4.29193L13 5.16016ZM8 2.30273L8.49618 1.43451L8 1.15096L7.50382 1.43451L8 2.30273ZM9.73242 7H10.7324V6.42259L10.2323 6.13393L9.73242 7ZM9.73242 9L10.2323 9.86607L10.7324 9.57741V9H9.73242ZM8 10L7.50008 10.8661L8 11.1546L8.49992 10.8661L8 10ZM6.26758 9H5.26758V9.57741L5.76766 9.86607L6.26758 9ZM6.26758 7L5.76766 6.13393L5.26758 6.42259V7H6.26758ZM8 6L8.49992 5.13393L8 4.84536L7.50008 5.13393L8 6ZM15 4H14V12H15H16V4H15ZM15 12L14.5039 11.1318L7.50386 15.1318L8 16L8.49614 16.8682L15.4961 12.8682L15 12ZM8 16L8.49614 15.1318L1.49614 11.1318L1 12L0.503861 12.8682L7.50386 16.8682L8 16ZM1 12H2V4H1H0V12H1ZM1 4L1.49614 4.86824L8.49614 0.868243L8 0L7.50386 -0.868243L0.503861 3.13176L1 4ZM8 0L7.50386 0.868243L14.5039 4.86824L15 4L15.4961 3.13176L8.49614 -0.868243L8 0ZM3 5.16016H2V10.8389H3H4V5.16016H3ZM3 10.8389L2.50382 11.7071L7.50382 14.5645L8 13.6963L8.49618 12.8281L3.49618 9.97064L3 10.8389ZM8 13.6963L8.49618 14.5645L13.4962 11.7071L13 10.8389L12.5038 9.97064L7.50382 12.8281L8 13.6963ZM13 10.8389H14V5.16016H13H12V10.8389H13ZM13 5.16016L13.4962 4.29193L8.49618 1.43451L8 2.30273L7.50382 3.17096L12.5038 6.02838L13 5.16016ZM8 2.30273L7.50382 1.43451L2.50382 4.29193L3 5.16016L3.49618 6.02838L8.49618 3.17096L8 2.30273ZM9.73242 7H8.73242V9H9.73242H10.7324V7H9.73242ZM9.73242 9L9.2325 8.13393L7.50008 9.13393L8 10L8.49992 10.8661L10.2323 9.86607L9.73242 9ZM8 10L8.49992 9.13393L6.7675 8.13393L6.26758 9L5.76766 9.86607L7.50008 10.8661L8 10ZM6.26758 9H7.26758V7H6.26758H5.26758V9H6.26758ZM6.26758 7L6.7675 7.86607L8.49992 6.86607L8 6L7.50008 5.13393L5.76766 6.13393L6.26758 7ZM8 6L7.50008 6.86607L9.2325 7.86607L9.73242 7L10.2323 6.13393L8.49992 5.13393L8 6Z" fill="black" mask="url(#path-2-outside-1_1_597)"/>
</g>
<defs>
<clipPath id="clip0_1_597">
<rect width="16" height="16" fill="white"/>
</clipPath>
</defs>
</svg>
