<svg width="16" height="16" viewBox="0 0 16 16" fill="none" xmlns="http://www.w3.org/2000/svg">
<g clip-path="url(#clip0_1_473)">
<rect width="16" height="16" fill="black"/>
<rect opacity="0.5" x="0.5" y="0.5" width="15" height="15" stroke="#FF5656"/>
<mask id="path-2-outside-1_1_473" maskUnits="userSpaceOnUse" x="2" y="-1" width="12" height="18" fill="black">
<rect fill="white" x="2" y="-1" width="12" height="18"/>
<path d="M9 2H12V4H9V7H10C11.6569 7 13 8.34315 13 10V11C13 12.6569 11.6569 14 10 14H9V16H7V14H4V12H7V9H6C4.34315 9 3 7.65685 3 6V5C3 3.34315 4.34315 2 6 2H7V0H9V2ZM9 12H10C10.5523 12 11 11.5523 11 11V10C11 9.44772 10.5523 9 10 9H9V12ZM6 4C5.44772 4 5 4.44772 5 5V6C5 6.55228 5.44772 7 6 7H7V4H6Z"/>
</mask>
<path d="M9 2H12V4H9V7H10C11.6569 7 13 8.34315 13 10V11C13 12.6569 11.6569 14 10 14H9V16H7V14H4V12H7V9H6C4.34315 9 3 7.65685 3 6V5C3 3.34315 4.34315 2 6 2H7V0H9V2ZM9 12H10C10.5523 12 11 11.5523 11 11V10C11 9.44772 10.5523 9 10 9H9V12ZM6 4C5.44772 4 5 4.44772 5 5V6C5 6.55228 5.44772 7 6 7H7V4H6Z" fill="#FF5656"/>
<path d="M9 2H8V3H9V2ZM12 2H13V1H12V2ZM12 4V5H13V4H12ZM9 4V3H8V4H9ZM9 7H8V8H9V7ZM9 14V13H8V14H9ZM9 16V17H10V16H9ZM7 16H6V17H7V16ZM7 14H8V13H7V14ZM4 14H3V15H4V14ZM4 12V11H3V12H4ZM7 12V13H8V12H7ZM7 9H8V8H7V9ZM7 2V3H8V2H7ZM7 0V-1H6V0H7ZM9 0H10V-1H9V0ZM9 12H8V13H9V12ZM9 9V8H8V9H9ZM7 7V8H8V7H7ZM7 4H8V3H7V4ZM9 2V3H12V2V1H9V2ZM12 2H11V4H12H13V2H12ZM12 4V3H9V4V5H12V4ZM9 4H8V7H9H10V4H9ZM9 7V8H10V7V6H9V7ZM10 7V8C11.1046 8 12 8.89543 12 10H13H14C14 7.79086 12.2091 6 10 6V7ZM13 10H12V11H13H14V10H13ZM13 11H12C12 12.1046 11.1046 13 10 13V14V15C12.2091 15 14 13.2091 14 11H13ZM10 14V13H9V14V15H10V14ZM9 14H8V16H9H10V14H9ZM9 16V15H7V16V17H9V16ZM7 16H8V14H7H6V16H7ZM7 14V13H4V14V15H7V14ZM4 14H5V12H4H3V14H4ZM4 12V13H7V12V11H4V12ZM7 12H8V9H7H6V12H7ZM7 9V8H6V9V10H7V9ZM6 9V8C4.89543 8 4 7.10457 4 6H3H2C2 8.20914 3.79086 10 6 10V9ZM3 6H4V5H3H2V6H3ZM3 5H4C4 3.89543 4.89543 3 6 3V2V1C3.79086 1 2 2.79086 2 5H3ZM6 2V3H7V2V1H6V2ZM7 2H8V0H7H6V2H7ZM7 0V1H9V0V-1H7V0ZM9 0H8V2H9H10V0H9ZM9 12V13H10V12V11H9V12ZM10 12V13C11.1046 13 12 12.1046 12 11H11H10V12ZM11 11H12V10H11H10V11H11ZM11 10H12C12 8.89543 11.1046 8 10 8V9V10H11ZM10 9V8H9V9V10H10V9ZM9 9H8V12H9H10V9H9ZM6 4V3C4.89543 3 4 3.89543 4 5H5H6V4ZM5 5H4V6H5H6V5H5ZM5 6H4C4 7.10457 4.89543 8 6 8V7V6H5ZM6 7V8H7V7V6H6V7ZM7 7H8V4H7H6V7H7ZM7 4V3H6V4V5H7V4Z" fill="black" mask="url(#path-2-outside-1_1_473)"/>
</g>
<defs>
<clipPath id="clip0_1_473">
<rect width="16" height="16" fill="white"/>
</clipPath>
</defs>
</svg>
