<svg width="16" height="16" viewBox="0 0 16 16" fill="none" xmlns="http://www.w3.org/2000/svg">
<g clip-path="url(#clip0_3_114)">
<rect width="16" height="16" fill="black"/>
<rect opacity="0.5" x="0.5" y="0.5" width="15" height="15" stroke="#FF9500"/>
<path d="M5.5 7.24609L5.50488 7.09277C5.51427 6.94009 5.53707 6.78826 5.57422 6.63965L5.95508 5.11719C5.98476 4.99835 5.99999 4.87639 6 4.75391V2.73633C6 2.50354 6.05413 2.27366 6.1582 2.06543L7.10547 0.170898C7.47399 -0.566151 8.52601 -0.56615 8.89453 0.170898L9.8418 2.06543C9.94587 2.27366 10 2.50354 10 2.73633V4.75391C10 4.87639 10.0152 4.99835 10.0449 5.11719L10.4258 6.63965C10.4753 6.83791 10.5 7.04173 10.5 7.24609V16.5H5.5V7.24609Z" fill="#FF9500" stroke="black"/>
</g>
<defs>
<clipPath id="clip0_3_114">
<rect width="16" height="16" fill="white"/>
</clipPath>
</defs>
</svg>
