<svg width="16" height="16" viewBox="0 0 16 16" fill="none" xmlns="http://www.w3.org/2000/svg">
<g clip-path="url(#clip0_1_513)">
<rect width="16" height="16" fill="black"/>
<rect opacity="0.5" x="0.5" y="0.5" width="15" height="15" stroke="#5CCC33"/>
<mask id="path-2-outside-1_1_513" maskUnits="userSpaceOnUse" x="-1.78339" y="-0.800309" width="19" height="16" fill="black">
<rect fill="white" x="-1.78339" y="-0.800309" width="19" height="16"/>
<path d="M7.05486 0.659126C7.53007 0.0465735 8.47032 0.0465184 8.94548 0.659126L9.03923 0.799751L15.6213 12.2001C16.0829 13 15.5057 13.9997 14.5822 13.9999H1.41814C0.494582 13.9998 -0.0825759 13 0.379076 12.2001L6.96111 0.799751L7.05486 0.659126ZM2.80388 11.9999H13.1965L8.00017 2.99897L2.80388 11.9999Z"/>
</mask>
<path d="M7.05486 0.659126C7.53007 0.0465735 8.47032 0.0465184 8.94548 0.659126L9.03923 0.799751L15.6213 12.2001C16.0829 13 15.5057 13.9997 14.5822 13.9999H1.41814C0.494582 13.9998 -0.0825759 13 0.379076 12.2001L6.96111 0.799751L7.05486 0.659126ZM2.80388 11.9999H13.1965L8.00017 2.99897L2.80388 11.9999Z" fill="#5CCC33"/>
<path d="M7.05486 0.659126L6.26474 0.0461653L6.24273 0.0745422L6.22281 0.104425L7.05486 0.659126ZM8.94548 0.659126L9.77753 0.104425L9.75764 0.0745799L9.73565 0.0462368L8.94548 0.659126ZM9.03923 0.799751L9.90526 0.29975L9.88915 0.271853L9.87128 0.24505L9.03923 0.799751ZM15.6213 12.2001L16.4874 11.7003L16.4873 11.7001L15.6213 12.2001ZM14.5822 13.9999V14.9999H14.5825L14.5822 13.9999ZM1.41814 13.9999L1.41795 14.9999H1.41814V13.9999ZM0.379076 12.2001L-0.486949 11.7001L-0.487029 11.7003L0.379076 12.2001ZM6.96111 0.799751L6.12906 0.24505L6.11119 0.271853L6.09508 0.29975L6.96111 0.799751ZM2.80388 11.9999L1.93784 11.5L1.0719 12.9999H2.80388V11.9999ZM13.1965 11.9999V12.9999H14.9284L14.0625 11.5L13.1965 11.9999ZM8.00017 2.99897L8.86621 2.499L8.00017 0.998846L7.13413 2.499L8.00017 2.99897ZM7.05486 0.659126L7.84497 1.27209C7.8798 1.22719 7.9329 1.19969 8.00021 1.19969C8.0675 1.19969 8.12053 1.22717 8.15531 1.27201L8.94548 0.659126L9.73565 0.0462368C8.86008 -1.0826 7.14024 -1.08236 6.26474 0.0461653L7.05486 0.659126ZM8.94548 0.659126L8.11343 1.21383L8.20718 1.35445L9.03923 0.799751L9.87128 0.24505L9.77753 0.104425L8.94548 0.659126ZM9.03923 0.799751L8.17321 1.29975L14.7552 12.7001L15.6213 12.2001L16.4873 11.7001L9.90526 0.29975L9.03923 0.799751ZM15.6213 12.2001L14.7551 12.7C14.832 12.8332 14.7359 12.9999 14.5819 12.9999L14.5822 13.9999L14.5825 14.9999C16.2754 14.9995 17.3337 13.1668 16.4874 11.7003L15.6213 12.2001ZM14.5822 13.9999V12.9999H1.41814V13.9999V14.9999H14.5822V13.9999ZM1.41814 13.9999L1.41832 12.9999C1.26445 12.9999 1.16823 12.8333 1.24518 12.7L0.379076 12.2001L-0.487029 11.7003C-1.33338 13.1667 -0.275283 14.9996 1.41795 14.9999L1.41814 13.9999ZM0.379076 12.2001L1.2451 12.7001L7.82713 1.29975L6.96111 0.799751L6.09508 0.29975L-0.486949 11.7001L0.379076 12.2001ZM6.96111 0.799751L7.79316 1.35445L7.88691 1.21383L7.05486 0.659126L6.22281 0.104425L6.12906 0.24505L6.96111 0.799751ZM2.80388 11.9999V12.9999H13.1965V11.9999V10.9999H2.80388V11.9999ZM13.1965 11.9999L14.0625 11.5L8.86621 2.499L8.00017 2.99897L7.13413 3.49894L12.3304 12.4999L13.1965 11.9999ZM8.00017 2.99897L7.13413 2.499L1.93784 11.5L2.80388 11.9999L3.66992 12.4999L8.86621 3.49894L8.00017 2.99897Z" fill="black" mask="url(#path-2-outside-1_1_513)"/>
</g>
<defs>
<clipPath id="clip0_1_513">
<rect width="16" height="16" fill="white"/>
</clipPath>
</defs>
</svg>
