<svg width="16" height="16" viewBox="0 0 16 16" fill="none" xmlns="http://www.w3.org/2000/svg">
<g clip-path="url(#clip0_7_307)">
<rect width="16" height="16" fill="black"/>
<rect opacity="0.5" x="0.5" y="0.5" width="15" height="15" stroke="#9FDF20"/>
<mask id="path-2-outside-1_7_307" maskUnits="userSpaceOnUse" x="-1" y="1.58594" width="19" height="16" fill="black">
<rect fill="white" x="-1" y="1.58594" width="19" height="16"/>
<path d="M14.9141 16H12.0859L4.5 8.41406L0 12.9141V10.0859L4.5 5.58594L14.9141 16ZM16 8.08594V10.9141L11.5 6.41406L9.70703 8.20703L8.29297 6.79297L11.5 3.58594L16 8.08594Z"/>
</mask>
<path d="M14.9141 16H12.0859L4.5 8.41406L0 12.9141V10.0859L4.5 5.58594L14.9141 16ZM16 8.08594V10.9141L11.5 6.41406L9.70703 8.20703L8.29297 6.79297L11.5 3.58594L16 8.08594Z" fill="#9FDF20"/>
<path d="M14.9141 16V17H17.3283L15.6212 15.2929L14.9141 16ZM12.0859 16L11.3788 16.7071L11.6717 17H12.0859V16ZM4.5 8.41406L5.20711 7.70696L4.5 6.99985L3.79289 7.70696L4.5 8.41406ZM0 12.9141H-1V15.3283L0.707107 13.6212L0 12.9141ZM0 10.0859L-0.707107 9.37883L-1 9.67172V10.0859H0ZM4.5 5.58594L5.20711 4.87883L4.5 4.17172L3.79289 4.87883L4.5 5.58594ZM16 8.08594H17V7.67172L16.7071 7.37883L16 8.08594ZM16 10.9141L15.2929 11.6212L17 13.3283V10.9141H16ZM11.5 6.41406L12.2071 5.70696L11.5 4.99985L10.7929 5.70696L11.5 6.41406ZM9.70703 8.20703L8.99992 8.91414L9.70703 9.62124L10.4141 8.91414L9.70703 8.20703ZM8.29297 6.79297L7.58586 6.08586L6.87876 6.79297L7.58586 7.50008L8.29297 6.79297ZM11.5 3.58594L12.2071 2.87883L11.5 2.17172L10.7929 2.87883L11.5 3.58594ZM14.9141 16V15H12.0859V16V17H14.9141V16ZM12.0859 16L12.793 15.2929L5.20711 7.70696L4.5 8.41406L3.79289 9.12117L11.3788 16.7071L12.0859 16ZM4.5 8.41406L3.79289 7.70696L-0.707107 12.207L0 12.9141L0.707107 13.6212L5.20711 9.12117L4.5 8.41406ZM0 12.9141H1V10.0859H0H-1V12.9141H0ZM0 10.0859L0.707107 10.793L5.20711 6.29304L4.5 5.58594L3.79289 4.87883L-0.707107 9.37883L0 10.0859ZM4.5 5.58594L3.79289 6.29304L14.207 16.7071L14.9141 16L15.6212 15.2929L5.20711 4.87883L4.5 5.58594ZM16 8.08594H15V10.9141H16H17V8.08594H16ZM16 10.9141L16.7071 10.207L12.2071 5.70696L11.5 6.41406L10.7929 7.12117L15.2929 11.6212L16 10.9141ZM11.5 6.41406L10.7929 5.70696L8.99992 7.49992L9.70703 8.20703L10.4141 8.91414L12.2071 7.12117L11.5 6.41406ZM9.70703 8.20703L10.4141 7.49992L9.00008 6.08586L8.29297 6.79297L7.58586 7.50008L8.99992 8.91414L9.70703 8.20703ZM8.29297 6.79297L9.00008 7.50008L12.2071 4.29304L11.5 3.58594L10.7929 2.87883L7.58586 6.08586L8.29297 6.79297ZM11.5 3.58594L10.7929 4.29304L15.2929 8.79304L16 8.08594L16.7071 7.37883L12.2071 2.87883L11.5 3.58594Z" fill="black" mask="url(#path-2-outside-1_7_307)"/>
</g>
<defs>
<clipPath id="clip0_7_307">
<rect width="16" height="16" fill="white"/>
</clipPath>
</defs>
</svg>
