<svg width="16" height="16" viewBox="0 0 16 16" fill="none" xmlns="http://www.w3.org/2000/svg">
<g clip-path="url(#clip0_2_155)">
<rect width="16" height="16" fill="black"/>
<rect opacity="0.5" x="0.5" y="0.5" width="15" height="15" stroke="#FF9500"/>
<mask id="path-2-outside-1_2_155" maskUnits="userSpaceOnUse" x="-1" y="-0.999878" width="18" height="19" fill="black">
<rect fill="white" x="-1" y="-0.999878" width="18" height="19"/>
<path d="M8 0.00012207C10.2091 0.00012207 12 0.895553 12 2.00012C12 2.01305 11.9985 2.02604 11.998 2.03918C12.7141 2.15496 13.3171 2.51744 13.6689 3.00891C15.0271 3.05596 16 3.34188 16 5.00012C15.9999 5.96066 14.8146 6.76136 13.2344 6.95422C13.1697 7.57969 12.893 8.16769 12.4443 8.61633L11.3232 9.73743C10.9951 10.0655 10.55 10.2501 10.0859 10.2501H8.75V11.2306C8.95811 12.7984 9.29479 14.7697 9.76562 15.6622C9.88942 15.8968 9.99999 16.149 10 16.4142V17.0001H6V16.4142C6.00001 16.149 6.11058 15.8968 6.23438 15.6622C6.70521 14.7697 7.04189 12.7984 7.25 11.2306V8.50012C7.25 8.36205 7.13807 8.25012 7 8.25012H5.91406C5.45002 8.25008 5.00491 8.06554 4.67676 7.73743L3.2627 6.32336C3.15797 6.21864 3.06926 6.10107 2.99512 5.97571C1.30157 5.8358 0.000105199 5.0066 0 4.00012C0 2.37023 0.939872 2.06549 2.26172 2.01086C2.60598 1.40717 3.25531 1.00012 4 1.00012C4.1623 1.00012 4.31961 1.02125 4.4707 1.05774C5.14437 0.428199 6.47219 0.00012207 8 0.00012207ZM9.00293 4.87024C8.91972 4.89175 8.83522 4.90946 8.75 4.9259V8.75012H10.0859C10.1522 8.75008 10.2159 8.72369 10.2627 8.67688L11.3838 7.55579C11.552 7.38758 11.666 7.17583 11.7178 6.94739C10.1616 6.74429 9.0001 5.95091 9 5.00012C9 4.95589 9.00156 4.91254 9.00293 4.87024ZM6.7168 4.78625C6.3654 5.25462 5.71108 5.63006 4.89355 5.83313L5.7373 6.67688C5.78415 6.72369 5.84784 6.75008 5.91406 6.75012H7C7.08497 6.75012 7.16827 6.75795 7.25 6.76965V4.9259C7.06753 4.8907 6.88958 4.84374 6.7168 4.78625Z"/>
</mask>
<path d="M8 0.00012207C10.2091 0.00012207 12 0.895553 12 2.00012C12 2.01305 11.9985 2.02604 11.998 2.03918C12.7141 2.15496 13.3171 2.51744 13.6689 3.00891C15.0271 3.05596 16 3.34188 16 5.00012C15.9999 5.96066 14.8146 6.76136 13.2344 6.95422C13.1697 7.57969 12.893 8.16769 12.4443 8.61633L11.3232 9.73743C10.9951 10.0655 10.55 10.2501 10.0859 10.2501H8.75V11.2306C8.95811 12.7984 9.29479 14.7697 9.76562 15.6622C9.88942 15.8968 9.99999 16.149 10 16.4142V17.0001H6V16.4142C6.00001 16.149 6.11058 15.8968 6.23438 15.6622C6.70521 14.7697 7.04189 12.7984 7.25 11.2306V8.50012C7.25 8.36205 7.13807 8.25012 7 8.25012H5.91406C5.45002 8.25008 5.00491 8.06554 4.67676 7.73743L3.2627 6.32336C3.15797 6.21864 3.06926 6.10107 2.99512 5.97571C1.30157 5.8358 0.000105199 5.0066 0 4.00012C0 2.37023 0.939872 2.06549 2.26172 2.01086C2.60598 1.40717 3.25531 1.00012 4 1.00012C4.1623 1.00012 4.31961 1.02125 4.4707 1.05774C5.14437 0.428199 6.47219 0.00012207 8 0.00012207ZM9.00293 4.87024C8.91972 4.89175 8.83522 4.90946 8.75 4.9259V8.75012H10.0859C10.1522 8.75008 10.2159 8.72369 10.2627 8.67688L11.3838 7.55579C11.552 7.38758 11.666 7.17583 11.7178 6.94739C10.1616 6.74429 9.0001 5.95091 9 5.00012C9 4.95589 9.00156 4.91254 9.00293 4.87024ZM6.7168 4.78625C6.3654 5.25462 5.71108 5.63006 4.89355 5.83313L5.7373 6.67688C5.78415 6.72369 5.84784 6.75008 5.91406 6.75012H7C7.08497 6.75012 7.16827 6.75795 7.25 6.76965V4.9259C7.06753 4.8907 6.88958 4.84374 6.7168 4.78625Z" fill="#FF9500"/>
<path d="M12 2.00012L13 2.00024V2.00012H12ZM11.998 2.03918L10.9987 2.00192L10.9658 2.88526L11.8384 3.02636L11.998 2.03918ZM13.6689 3.00891L12.8558 3.59101L13.1424 3.99127L13.6343 4.00831L13.6689 3.00891ZM16 5.00012L17 5.00023V5.00012H16ZM13.2344 6.95422L13.1132 5.96159L12.3217 6.05819L12.2397 6.85137L13.2344 6.95422ZM12.4443 8.61633L13.1514 9.32344H13.1514L12.4443 8.61633ZM11.3232 9.73743L12.0303 10.4446L12.0303 10.4445L11.3232 9.73743ZM10.0859 10.2501V11.2501H10.086L10.0859 10.2501ZM8.75 10.2501V9.25012H7.75V10.2501H8.75ZM8.75 11.2306H7.75V11.2967L7.75869 11.3622L8.75 11.2306ZM9.76562 15.6622L8.88114 16.1288L8.88125 16.129L9.76562 15.6622ZM10 16.4142H11V16.4142L10 16.4142ZM10 17.0001V18.0001H11V17.0001H10ZM6 17.0001H5V18.0001H6V17.0001ZM6 16.4142L5 16.4142V16.4142H6ZM6.23438 15.6622L7.11875 16.129L7.11886 16.1288L6.23438 15.6622ZM7.25 11.2306L8.24131 11.3622L8.25 11.2967V11.2306H7.25ZM7.25 8.50012H8.25V8.50012H7.25ZM5.91406 8.25012L5.91398 9.25012H5.91406V8.25012ZM4.67676 7.73743L3.96965 8.44453L3.96969 8.44457L4.67676 7.73743ZM3.2627 6.32336L2.55559 7.03047V7.03047L3.2627 6.32336ZM2.99512 5.97571L3.85586 5.46666L3.59268 5.02167L3.07745 4.9791L2.99512 5.97571ZM0 4.00012H-1V4.00023L0 4.00012ZM2.26172 2.01086L2.30301 3.01001L2.85615 2.98715L3.1304 2.50624L2.26172 2.01086ZM4.4707 1.05774L4.23597 2.0298L4.75977 2.15629L5.15347 1.78837L4.4707 1.05774ZM9.00293 4.87024L10.0024 4.90268L10.0457 3.56786L8.75269 3.90205L9.00293 4.87024ZM8.75 4.9259L8.56057 3.94401L7.75 4.10038V4.9259H8.75ZM8.75 8.75012H7.75V9.75012H8.75V8.75012ZM10.0859 8.75012V9.75012H10.0865L10.0859 8.75012ZM10.2627 8.67688L10.9696 9.38423L10.9698 9.38399L10.2627 8.67688ZM11.7178 6.94739L12.6931 7.16833L12.9356 6.09784L11.8472 5.9558L11.7178 6.94739ZM9 5.00012H8V5.00023L9 5.00012ZM6.7168 4.78625L7.03247 3.83739L6.3491 3.61004L5.91689 4.18613L6.7168 4.78625ZM4.89355 5.83313L4.65248 4.86262L2.93536 5.28915L4.18645 6.54024L4.89355 5.83313ZM5.7373 6.67688L5.0302 7.38399L5.03044 7.38423L5.7373 6.67688ZM5.91406 6.75012L5.91346 7.75012H5.91406V6.75012ZM7.25 6.76965L7.10826 7.75956L8.25 7.92304V6.76965H7.25ZM7.25 4.9259H8.25V4.10038L7.43943 3.94401L7.25 4.9259ZM8 0.00012207V1.00012C8.98299 1.00012 9.82347 1.20147 10.3812 1.48034C10.6598 1.61963 10.831 1.75965 10.9222 1.86747C10.9658 1.91907 10.9852 1.95607 10.9932 1.97582C10.9972 1.98556 10.9988 1.99173 10.9994 1.99468C10.9999 1.99751 11 1.99906 11 2.00012H12H13C13 0.865009 12.1058 0.106563 11.2756 -0.308519C10.3857 -0.753507 9.22615 -0.999878 8 -0.999878V0.00012207ZM12 2.00012L11 2C11 1.98468 11.0004 1.97254 11.0008 1.96518C11.0011 1.95811 11.0014 1.95332 11.0014 1.95412C11.0013 1.95467 11.0013 1.95489 11.0011 1.95738C11.001 1.95928 11.0008 1.96264 11.0005 1.96646C11.0001 1.97402 10.9993 1.98669 10.9987 2.00192L11.998 2.03918L12.9974 2.07645C12.997 2.08511 12.9966 2.09123 12.9966 2.09225C12.9965 2.09281 12.9965 2.0929 12.9966 2.09153C12.9967 2.09077 12.9969 2.08773 12.9971 2.08503C12.9977 2.07542 13 2.04145 13 2.00024L12 2.00012ZM11.998 2.03918L11.8384 3.02636C12.328 3.10552 12.6795 3.34467 12.8558 3.59101L13.6689 3.00891L14.4821 2.42681C13.9547 1.69021 13.1002 1.20441 12.1577 1.05201L11.998 2.03918ZM13.6689 3.00891L13.6343 4.00831C14.3072 4.03162 14.6237 4.11851 14.7763 4.2237C14.8306 4.2611 15 4.3763 15 5.00012H16H17C17 3.9657 16.683 3.10882 15.9113 2.57694C15.2379 2.11284 14.3889 2.03325 13.7036 2.00951L13.6689 3.00891ZM16 5.00012L15 5.00002C15 5.03442 14.9786 5.2071 14.6378 5.44476C14.3067 5.6756 13.7802 5.88019 13.1132 5.96159L13.2344 6.95422L13.3555 7.94686C14.2688 7.8354 15.125 7.54321 15.7817 7.08534C16.4286 6.6343 16.9999 5.92636 17 5.00023L16 5.00012ZM13.2344 6.95422L12.2397 6.85137C12.1984 7.2505 12.022 7.6245 11.7372 7.90923L12.4443 8.61633L13.1514 9.32344C13.764 8.71088 14.141 7.90889 14.2291 7.05707L13.2344 6.95422ZM12.4443 8.61633L11.7372 7.90923L10.6161 9.03032L11.3232 9.73743L12.0303 10.4445L13.1514 9.32344L12.4443 8.61633ZM11.3232 9.73743L10.6162 9.03029C10.4754 9.17107 10.2845 9.2501 10.0859 9.25012L10.0859 10.2501L10.086 11.2501C10.8155 11.2501 11.5148 10.96 12.0303 10.4446L11.3232 9.73743ZM10.0859 10.2501V9.25012H8.75V10.2501V11.2501H10.0859V10.2501ZM8.75 10.2501H7.75V11.2306H8.75H9.75V10.2501H8.75ZM8.75 11.2306L7.75869 11.3622C7.86436 12.1583 8.00444 13.0709 8.18087 13.9063C8.35123 14.7129 8.5753 15.549 8.88114 16.1288L9.76562 15.6622L10.6501 15.1957C10.4851 14.8829 10.3054 14.2872 10.1377 13.493C9.97607 12.7277 9.84374 11.8708 9.74131 11.099L8.75 11.2306ZM9.76562 15.6622L8.88125 16.129C8.93349 16.228 8.96483 16.2973 8.98348 16.3516C9.00133 16.4036 9 16.4208 9 16.4142L10 16.4142L11 16.4142C11 15.887 10.7833 15.448 10.65 15.1955L9.76562 15.6622ZM10 16.4142H9V17.0001H10H11V16.4142H10ZM10 17.0001V16.0001H6V17.0001V18.0001H10V17.0001ZM6 17.0001H7V16.4142H6H5V17.0001H6ZM6 16.4142L7 16.4142C7 16.4208 6.99867 16.4036 7.01652 16.3516C7.03517 16.2973 7.06651 16.228 7.11875 16.129L6.23438 15.6622L5.35 15.1955C5.2167 15.448 5.00002 15.887 5 16.4142L6 16.4142ZM6.23438 15.6622L7.11886 16.1288C7.4247 15.549 7.64877 14.7129 7.81913 13.9063C7.99556 13.0709 8.13564 12.1583 8.24131 11.3622L7.25 11.2306L6.25869 11.099C6.15626 11.8708 6.02393 12.7277 5.86229 13.493C5.69457 14.2872 5.51488 14.8829 5.34989 15.1957L6.23438 15.6622ZM7.25 11.2306H8.25V8.50012H7.25H6.25V11.2306H7.25ZM7.25 8.50012H8.25C8.25 7.80976 7.69035 7.25012 7 7.25012V8.25012V9.25012C6.58579 9.25012 6.25 8.91434 6.25 8.50012H7.25ZM7 8.25012V7.25012H5.91406V8.25012V9.25012H7V8.25012ZM5.91406 8.25012L5.91415 7.25012C5.71551 7.2501 5.52463 7.17107 5.38383 7.03029L4.67676 7.73743L3.96969 8.44457C4.48518 8.96001 5.18453 9.25006 5.91398 9.25012L5.91406 8.25012ZM4.67676 7.73743L5.38386 7.03032L3.9698 5.61626L3.2627 6.32336L2.55559 7.03047L3.96965 8.44453L4.67676 7.73743ZM3.2627 6.32336L3.9698 5.61626C3.93011 5.57657 3.89162 5.52713 3.85586 5.46666L2.99512 5.97571L2.13438 6.48475C2.24689 6.675 2.38583 6.86071 2.55559 7.03047L3.2627 6.32336ZM2.99512 5.97571L3.07745 4.9791C2.35877 4.91973 1.77866 4.71673 1.40915 4.47551C1.02483 4.22463 1 4.03511 1 4.00002L0 4.00012L-1 4.00023C-0.999898 4.97162 -0.373938 5.69994 0.315883 6.15025C1.02051 6.61023 1.93791 6.89178 2.91279 6.97231L2.99512 5.97571ZM0 4.00012H1C1 3.38462 1.16562 3.26489 1.21761 3.22764C1.35817 3.12693 1.65607 3.03674 2.30301 3.01001L2.26172 2.01086L2.22043 1.01172C1.54552 1.03961 0.712566 1.1291 0.0527278 1.60189C-0.695684 2.13814 -1 2.98573 -1 4.00012H0ZM2.26172 2.01086L3.1304 2.50624C3.30412 2.2016 3.62915 2.00012 4 2.00012V1.00012V0.00012207C2.88147 0.00012207 1.90784 0.612742 1.39304 1.51549L2.26172 2.01086ZM4 1.00012V2.00012C4.07503 2.00012 4.15335 2.00985 4.23597 2.0298L4.4707 1.05774L4.70544 0.0856806C4.48588 0.0326596 4.24956 0.00012207 4 0.00012207V1.00012ZM4.4707 1.05774L5.15347 1.78837C5.56761 1.40136 6.60137 1.00012 8 1.00012V0.00012207V-0.999878C6.34302 -0.999878 4.72113 -0.544962 3.78793 0.327106L4.4707 1.05774ZM9.00293 4.87024L8.75269 3.90205C8.69824 3.91613 8.63658 3.92935 8.56057 3.94401L8.75 4.9259L8.93943 5.9078C9.03386 5.88958 9.1412 5.86736 9.25317 5.83842L9.00293 4.87024ZM8.75 4.9259H7.75V8.75012H8.75H9.75V4.9259H8.75ZM8.75 8.75012V9.75012H10.0859V8.75012V7.75012H8.75V8.75012ZM10.0859 8.75012L10.0865 9.75012C10.4176 9.74992 10.7353 9.61828 10.9696 9.38423L10.2627 8.67688L9.55583 7.96953C9.69636 7.8291 9.88667 7.75024 10.0853 7.75012L10.0859 8.75012ZM10.2627 8.67688L10.9698 9.38399L12.0909 8.26289L11.3838 7.55579L10.6767 6.84868L9.55559 7.96977L10.2627 8.67688ZM11.3838 7.55579L12.0909 8.26289C12.3966 7.95717 12.6009 7.57526 12.6931 7.16833L11.7178 6.94739L10.7425 6.72645C10.7312 6.77639 10.7074 6.81798 10.6767 6.84868L11.3838 7.55579ZM11.7178 6.94739L11.8472 5.9558C11.1909 5.87015 10.6755 5.66569 10.3524 5.43741C10.0205 5.20292 10 5.03405 10 5.00002L9 5.00012L8 5.00023C8.0001 5.91699 8.56043 6.6202 9.19834 7.07088C9.84502 7.52775 10.6884 7.82153 11.5884 7.93898L11.7178 6.94739ZM9 5.00012H10C10 4.97576 10.0008 4.95089 10.0024 4.90268L9.00293 4.87024L8.00346 4.83779C8.00227 4.87419 8 4.93602 8 5.00012H9ZM6.7168 4.78625L5.91689 4.18613C5.75315 4.40437 5.34267 4.69118 4.65248 4.86262L4.89355 5.83313L5.13463 6.80364C6.07949 6.56894 6.97765 6.10487 7.5167 5.38638L6.7168 4.78625ZM4.89355 5.83313L4.18645 6.54024L5.0302 7.38399L5.7373 6.67688L6.44441 5.96977L5.60066 5.12602L4.89355 5.83313ZM5.7373 6.67688L5.03044 7.38423C5.26466 7.61828 5.58236 7.74992 5.91346 7.75012L5.91406 6.75012L5.91467 5.75012C6.11333 5.75024 6.30364 5.8291 6.44417 5.96953L5.7373 6.67688ZM5.91406 6.75012V7.75012H7V6.75012V5.75012H5.91406V6.75012ZM7 6.75012V7.75012C7.02421 7.75012 7.05811 7.75238 7.10826 7.75956L7.25 6.76965L7.39174 5.77975C7.27843 5.76352 7.14573 5.75012 7 5.75012V6.75012ZM7.25 6.76965H8.25V4.9259H7.25H6.25V6.76965H7.25ZM7.25 4.9259L7.43943 3.94401C7.30069 3.91724 7.1649 3.88144 7.03247 3.83739L6.7168 4.78625L6.40112 5.73512C6.61427 5.80604 6.83437 5.86416 7.06057 5.9078L7.25 4.9259Z" fill="black" mask="url(#path-2-outside-1_2_155)"/>
</g>
<defs>
<clipPath id="clip0_2_155">
<rect width="16" height="16" fill="white"/>
</clipPath>
</defs>
</svg>
