<svg width="16" height="16" viewBox="0 0 16 16" fill="none" xmlns="http://www.w3.org/2000/svg">
<g clip-path="url(#clip0_11_293)">
<rect width="16" height="16" fill="black"/>
<rect opacity="0.5" x="0.5" y="0.5" width="15" height="15" stroke="#66DEFF"/>
<mask id="path-2-outside-1_11_293" maskUnits="userSpaceOnUse" x="-6.06116" y="2" width="16" height="6" fill="black">
<rect fill="white" x="-6.06116" y="2" width="16" height="6"/>
<path d="M0.0151343 3C-0.641389 3.00001 -1.2914 3.10371 -1.89795 3.30469C-2.50457 3.5057 -3.05573 3.80045 -3.52002 4.17188C-3.98431 4.54331 -4.35273 4.98442 -4.60401 5.46973C-4.77007 5.79054 -4.88304 6.1265 -4.94052 6.46913C-4.98925 6.75962 -4.74608 7 -4.45153 7H7.4818C7.77635 7 8.02224 6.75323 7.91196 6.4801C7.87826 6.39663 7.83643 6.31454 7.78662 6.23438C7.63586 5.99185 7.41469 5.77158 7.13623 5.58594C6.85776 5.40032 6.52737 5.25283 6.16357 5.15234C5.79959 5.05183 5.4091 5 5.01513 5C4.911 5 4.80718 5.00388 4.70404 5.01133C4.50308 5.02585 4.30681 4.94077 4.17809 4.78577C3.9952 4.56552 3.78512 4.35973 3.55029 4.17188C3.08603 3.80049 2.53479 3.50569 1.92822 3.30469C1.32168 3.10374 0.671628 3 0.0151343 3Z"/>
</mask>
<path d="M0.0151343 3C-0.641389 3.00001 -1.2914 3.10371 -1.89795 3.30469C-2.50457 3.5057 -3.05573 3.80045 -3.52002 4.17188C-3.98431 4.54331 -4.35273 4.98442 -4.60401 5.46973C-4.77007 5.79054 -4.88304 6.1265 -4.94052 6.46913C-4.98925 6.75962 -4.74608 7 -4.45153 7H7.4818C7.77635 7 8.02224 6.75323 7.91196 6.4801C7.87826 6.39663 7.83643 6.31454 7.78662 6.23438C7.63586 5.99185 7.41469 5.77158 7.13623 5.58594C6.85776 5.40032 6.52737 5.25283 6.16357 5.15234C5.79959 5.05183 5.4091 5 5.01513 5C4.911 5 4.80718 5.00388 4.70404 5.01133C4.50308 5.02585 4.30681 4.94077 4.17809 4.78577C3.9952 4.56552 3.78512 4.35973 3.55029 4.17188C3.08603 3.80049 2.53479 3.50569 1.92822 3.30469C1.32168 3.10374 0.671628 3 0.0151343 3Z" fill="#66DEFF"/>
<path d="M0.0151343 3L0.0151196 2H0.0151343V3ZM-1.89795 3.30469L-2.2125 2.35545L-2.21248 2.35544L-1.89795 3.30469ZM-3.52002 4.17188L-4.14472 3.39101L-4.14471 3.391L-3.52002 4.17188ZM-4.60401 5.46973L-5.49208 5.01002L-5.49203 5.00994L-4.60401 5.46973ZM7.78662 6.23438L8.63591 5.70645L8.63602 5.70663L7.78662 6.23438ZM7.13623 5.58594L7.69087 4.75385L7.69093 4.75389L7.13623 5.58594ZM6.16357 5.15234L6.42975 4.18842L6.42982 4.18844L6.16357 5.15234ZM5.01513 5L5.01511 4H5.01513V5ZM3.55029 4.17188L4.17496 3.39098L4.17499 3.39101L3.55029 4.17188ZM1.92822 3.30469L2.24272 2.35543L2.24277 2.35545L1.92822 3.30469ZM4.70404 5.01133L4.632 4.01393L4.70404 5.01133ZM4.17809 4.78577L4.94743 4.14692L4.17809 4.78577ZM-4.94052 6.46913L-3.9543 6.63459L-4.94052 6.46913ZM0.0151343 3L0.0151486 4C-0.537188 4.00001 -1.08084 4.08741 -1.58343 4.25394L-1.89795 3.30469L-2.21248 2.35544C-1.50195 2.12001 -0.745589 2.00001 0.0151196 2L0.0151343 3ZM-1.89795 3.30469L-1.5834 4.25393C-2.08581 4.42041 -2.53025 4.66068 -2.89533 4.95275L-3.52002 4.17188L-4.14471 3.391C-3.58122 2.94022 -2.92332 2.59099 -2.2125 2.35545L-1.89795 3.30469ZM-3.52002 4.17188L-2.89533 4.95274C-3.26006 5.24453 -3.53453 5.57908 -3.71598 5.92952L-4.60401 5.46973L-5.49203 5.00994C-5.17093 4.38977 -4.70857 3.84209 -4.14472 3.39101L-3.52002 4.17188ZM-4.60401 5.46973L-3.71594 5.92944C-3.8359 6.16117 -3.91464 6.39816 -3.9543 6.63459L-4.94052 6.46913L-5.92673 6.30367C-5.85143 5.85484 -5.70425 5.4199 -5.49208 5.01002L-4.60401 5.46973ZM-4.45153 7V6H7.4818V7V8H-4.45153V7ZM7.91196 6.4801L6.98468 6.85447C6.97337 6.82645 6.95797 6.79553 6.93722 6.76212L7.78662 6.23438L8.63602 5.70663C8.71488 5.83355 8.78316 5.96681 8.83924 6.10572L7.91196 6.4801ZM7.78662 6.23438L6.93733 6.7623C6.87407 6.66054 6.76195 6.53827 6.58153 6.41799L7.13623 5.58594L7.69093 4.75389C8.06742 5.00488 8.39765 5.32315 8.63591 5.70645L7.78662 6.23438ZM7.13623 5.58594L6.58159 6.41803C6.40171 6.29813 6.17096 6.19183 5.89732 6.11625L6.16357 5.15234L6.42982 4.18844C6.88377 4.31383 7.3138 4.50251 7.69087 4.75385L7.13623 5.58594ZM6.16357 5.15234L5.89739 6.11627C5.62372 6.04069 5.32297 6 5.01513 6V5V4C5.49523 4 5.97547 4.06297 6.42975 4.18842L6.16357 5.15234ZM5.01513 5L5.01516 6C4.93584 6 4.85604 6.00296 4.77607 6.00874L4.70404 5.01133L4.632 4.01393C4.75831 4.00481 4.88617 4 5.01511 4L5.01513 5ZM4.17809 4.78577L3.40876 5.42461C3.27072 5.25838 3.10948 5.09985 2.9256 4.95274L3.55029 4.17188L4.17499 3.39101C4.46075 3.61961 4.71968 3.87266 4.94743 4.14692L4.17809 4.78577ZM3.55029 4.17188L2.92563 4.95277C2.56053 4.66072 2.11601 4.42039 1.61367 4.25393L1.92822 3.30469L2.24277 2.35545C2.95356 2.59098 3.61152 2.94027 4.17496 3.39098L3.55029 4.17188ZM1.92822 3.30469L1.61372 4.25395C1.11111 4.08743 0.567401 4 0.0151343 4V3V2C0.775855 2 1.53225 2.12005 2.24272 2.35543L1.92822 3.30469ZM4.70404 5.01133L4.77607 6.00874C4.24825 6.04686 3.74043 5.82403 3.40876 5.42461L4.17809 4.78577L4.94743 4.14692C4.87319 4.05752 4.75792 4.00484 4.632 4.01393L4.70404 5.01133ZM7.4818 7V6C7.36034 6 7.21574 6.04829 7.09864 6.18109C7.03655 6.25151 6.97727 6.35295 6.95162 6.48293C6.92503 6.61764 6.94175 6.74814 6.98468 6.85447L7.91196 6.4801L8.83924 6.10572C9.05067 6.6294 8.90672 7.15459 8.59874 7.50386C8.31263 7.82832 7.89781 8 7.4818 8V7ZM-4.94052 6.46913L-3.9543 6.63459C-3.9226 6.44563 -3.99232 6.26792 -4.09951 6.15501C-4.19921 6.04999 -4.3281 6 -4.45153 6V7V8C-5.24379 8 -6.09681 7.3174 -5.92673 6.30367L-4.94052 6.46913Z" fill="black" mask="url(#path-2-outside-1_11_293)"/>
<g clip-path="url(#clip1_11_293)">
<mask id="path-5-outside-2_11_293" maskUnits="userSpaceOnUse" x="1.03967" y="7" width="16" height="7" fill="black">
<rect fill="white" x="1.03967" y="7" width="16" height="7"/>
<path d="M10.9994 8C11.656 8 12.3069 8.12959 12.9135 8.38086C13.5199 8.63213 14.0714 9.00066 14.5356 9.46484C14.9997 9.92906 15.3683 10.4804 15.6195 11.0869C15.8025 11.5288 15.9205 11.9939 15.9711 12.4677C16.0024 12.7606 15.7606 13 15.4661 13H3.53275C3.2382 13 2.99463 12.7594 3.04674 12.4695C3.08473 12.2581 3.14539 12.0508 3.22793 11.8516C3.37867 11.4878 3.59988 11.1574 3.87832 10.8789C4.1569 10.6003 4.48798 10.3793 4.85196 10.2285C5.21579 10.0778 5.60562 10 5.99942 10C6.17428 10 6.34843 10.0154 6.51986 10.0457C6.74925 10.0863 6.9883 10.0068 7.13614 9.82677C7.23936 9.70108 7.34883 9.58028 7.46426 9.46484C7.92855 9.00056 8.47971 8.63213 9.08633 8.38086C9.69288 8.12962 10.3429 8.00003 10.9994 8Z"/>
</mask>
<path d="M10.9994 8C11.656 8 12.3069 8.12959 12.9135 8.38086C13.5199 8.63213 14.0714 9.00066 14.5356 9.46484C14.9997 9.92906 15.3683 10.4804 15.6195 11.0869C15.8025 11.5288 15.9205 11.9939 15.9711 12.4677C16.0024 12.7606 15.7606 13 15.4661 13H3.53275C3.2382 13 2.99463 12.7594 3.04674 12.4695C3.08473 12.2581 3.14539 12.0508 3.22793 11.8516C3.37867 11.4878 3.59988 11.1574 3.87832 10.8789C4.1569 10.6003 4.48798 10.3793 4.85196 10.2285C5.21579 10.0778 5.60562 10 5.99942 10C6.17428 10 6.34843 10.0154 6.51986 10.0457C6.74925 10.0863 6.9883 10.0068 7.13614 9.82677C7.23936 9.70108 7.34883 9.58028 7.46426 9.46484C7.92855 9.00056 8.47971 8.63213 9.08633 8.38086C9.69288 8.12962 10.3429 8.00003 10.9994 8Z" fill="#66DEFF"/>
<path d="M10.9994 8V7H10.9994L10.9994 8ZM12.9135 8.38086L13.2962 7.45701L13.2962 7.45698L12.9135 8.38086ZM14.5356 9.46484L15.2427 8.75781L15.2427 8.75774L14.5356 9.46484ZM15.6195 11.0869L16.5435 10.7043L16.5434 10.7042L15.6195 11.0869ZM3.22793 11.8516L2.3041 11.4688L2.30405 11.4689L3.22793 11.8516ZM3.87832 10.8789L3.17122 10.1718L3.17118 10.1718L3.87832 10.8789ZM4.85196 10.2285L4.46935 9.3046L4.46927 9.30464L4.85196 10.2285ZM5.99942 10V9H5.99934L5.99942 10ZM7.46426 9.46484L6.75715 8.75774L6.75713 8.75776L7.46426 9.46484ZM9.08633 8.38086L8.70365 7.45698L8.70364 7.45698L9.08633 8.38086ZM15.9711 12.4677L16.9654 12.3615L15.9711 12.4677ZM10.9994 8V9C11.5246 9 12.0454 9.10367 12.5308 9.30474L12.9135 8.38086L13.2962 7.45698C12.5683 7.1555 11.7875 7 10.9994 7V8ZM12.9135 8.38086L12.5307 9.3047C13.0158 9.5057 13.4571 9.80057 13.8284 10.172L14.5356 9.46484L15.2427 8.75774C14.6857 8.20074 14.024 7.75855 13.2962 7.45701L12.9135 8.38086ZM14.5356 9.46484L13.8284 10.1719C14.1998 10.5434 14.4948 10.9846 14.6957 11.4696L15.6195 11.0869L16.5434 10.7042C16.2419 9.97625 15.7995 9.3147 15.2427 8.75781L14.5356 9.46484ZM15.6195 11.0869L14.6956 11.4695C14.8419 11.8226 14.9363 12.1946 14.9767 12.5738L15.9711 12.4677L16.9654 12.3615C16.9048 11.7932 16.7632 11.235 16.5435 10.7043L15.6195 11.0869ZM15.4661 13V12H3.53275V13V14H15.4661V13ZM3.04674 12.4695L4.03097 12.6464C4.05631 12.5053 4.09678 12.3671 4.15181 12.2342L3.22793 11.8516L2.30405 11.4689C2.194 11.7346 2.11315 12.0108 2.06251 12.2926L3.04674 12.4695ZM3.22793 11.8516L4.15177 12.2343C4.25202 11.9924 4.39939 11.7721 4.58547 11.586L3.87832 10.8789L3.17118 10.1718C2.80038 10.5427 2.50533 10.9831 2.3041 11.4688L3.22793 11.8516ZM3.87832 10.8789L4.58543 11.586C4.77097 11.4005 4.99176 11.253 5.23464 11.1524L4.85196 10.2285L4.46927 9.30464C3.9842 9.50556 3.54282 9.80019 3.17122 10.1718L3.87832 10.8789ZM4.85196 10.2285L5.23456 11.1524C5.47755 11.0518 5.73744 11 5.9995 11L5.99942 10L5.99934 9C5.47381 9.00004 4.95403 9.10389 4.46935 9.3046L4.85196 10.2285ZM5.99942 10V11C6.1155 11 6.23141 11.0102 6.3458 11.0305L6.51986 10.0457L6.69392 9.06098C6.46545 9.0206 6.23307 9 5.99942 9V10ZM7.13614 9.82677L7.90895 10.4614C7.99152 10.3609 8.07908 10.2642 8.17139 10.1719L7.46426 9.46484L6.75713 8.75776C6.61859 8.89632 6.4872 9.0413 6.36334 9.19213L7.13614 9.82677ZM7.46426 9.46484L8.17137 10.172C8.54288 9.80043 8.98384 9.50571 9.46902 9.30474L9.08633 8.38086L8.70364 7.45698C7.97559 7.75856 7.31421 8.20068 6.75715 8.75774L7.46426 9.46484ZM9.08633 8.38086L9.46902 9.30474C9.95451 9.10364 10.4745 9.00003 10.9995 9L10.9994 8L10.9994 7C10.2113 7.00004 9.43125 7.1556 8.70365 7.45698L9.08633 8.38086ZM6.51986 10.0457L6.3458 11.0305C6.90236 11.1288 7.51407 10.9423 7.90895 10.4614L7.13614 9.82677L6.36334 9.19213C6.46254 9.07133 6.59614 9.0437 6.69392 9.06098L6.51986 10.0457ZM3.53275 13V12C3.65593 12 3.7855 12.0498 3.88616 12.1562C3.99495 12.2712 4.06566 12.4533 4.03097 12.6464L3.04674 12.4695L2.06251 12.2926C1.87827 13.3177 2.74554 14 3.53275 14V13ZM15.9711 12.4677L14.9767 12.5738C14.9373 12.2042 15.2407 12 15.4661 12V13V14C16.2806 14 17.0674 13.3169 16.9654 12.3615L15.9711 12.4677Z" fill="black" mask="url(#path-5-outside-2_11_293)"/>
</g>
</g>
<defs>
<clipPath id="clip0_11_293">
<rect width="16" height="16" fill="white"/>
</clipPath>
<clipPath id="clip1_11_293">
<path d="M0 1.06667C0 0.477563 0.477563 0 1.06667 0H14.9333C15.5224 0 16 0.477563 16 1.06667V14.9333C16 15.5224 15.5224 16 14.9333 16H1.06667C0.477563 16 0 15.5224 0 14.9333V1.06667Z" fill="white"/>
</clipPath>
</defs>
</svg>
