<svg width="16" height="16" viewBox="0 0 16 16" fill="none" xmlns="http://www.w3.org/2000/svg">
<g clip-path="url(#clip0_12_315)">
<rect width="16" height="16" fill="black"/>
<rect opacity="0.5" x="0.5" y="0.5" width="15" height="15" stroke="#FF4DC4"/>
<mask id="path-2-outside-1_12_315" maskUnits="userSpaceOnUse" x="0" y="-3" width="17" height="22" fill="black">
<rect fill="white" y="-3" width="17" height="22"/>
<path d="M8 16L3 11H1V5H3L8 0V16ZM10 2C10.7879 2 11.568 2.15552 12.2959 2.45703C13.0239 2.75856 13.685 3.20066 14.2422 3.75781C14.7993 4.31496 15.2414 4.97615 15.543 5.7041C15.8445 6.43204 16 7.21209 16 8C16 8.78791 15.8445 9.56796 15.543 10.2959C15.2414 11.0239 14.7993 11.685 14.2422 12.2422C13.685 12.7993 13.0239 13.2414 12.2959 13.543C11.568 13.8445 10.7879 14 10 14V12C10.5252 12 11.0451 11.8962 11.5303 11.6953C12.0156 11.4943 12.4567 11.1996 12.8281 10.8281C13.1996 10.4567 13.4943 10.0156 13.6953 9.53027C13.8962 9.04506 14 8.52517 14 8C14 7.47483 13.8962 6.95494 13.6953 6.46973C13.4943 5.98442 13.1996 5.54331 12.8281 5.17188C12.4567 4.80044 12.0156 4.50571 11.5303 4.30469C11.0451 4.10376 10.5252 4 10 4V2ZM10 6C10.2626 6 10.523 6.05183 10.7656 6.15234C11.0082 6.25285 11.2284 6.40029 11.4141 6.58594C11.5997 6.77159 11.7471 6.99183 11.8477 7.23438C11.9482 7.47703 12 7.73736 12 8C12 8.26264 11.9482 8.52297 11.8477 8.76562C11.7471 9.00817 11.5997 9.22841 11.4141 9.41406C11.2284 9.59971 11.0082 9.74715 10.7656 9.84766C10.523 9.94817 10.2626 10 10 10V6Z"/>
</mask>
<path d="M8 16L3 11H1V5H3L8 0V16ZM10 2C10.7879 2 11.568 2.15552 12.2959 2.45703C13.0239 2.75856 13.685 3.20066 14.2422 3.75781C14.7993 4.31496 15.2414 4.97615 15.543 5.7041C15.8445 6.43204 16 7.21209 16 8C16 8.78791 15.8445 9.56796 15.543 10.2959C15.2414 11.0239 14.7993 11.685 14.2422 12.2422C13.685 12.7993 13.0239 13.2414 12.2959 13.543C11.568 13.8445 10.7879 14 10 14V12C10.5252 12 11.0451 11.8962 11.5303 11.6953C12.0156 11.4943 12.4567 11.1996 12.8281 10.8281C13.1996 10.4567 13.4943 10.0156 13.6953 9.53027C13.8962 9.04506 14 8.52517 14 8C14 7.47483 13.8962 6.95494 13.6953 6.46973C13.4943 5.98442 13.1996 5.54331 12.8281 5.17188C12.4567 4.80044 12.0156 4.50571 11.5303 4.30469C11.0451 4.10376 10.5252 4 10 4V2ZM10 6C10.2626 6 10.523 6.05183 10.7656 6.15234C11.0082 6.25285 11.2284 6.40029 11.4141 6.58594C11.5997 6.77159 11.7471 6.99183 11.8477 7.23438C11.9482 7.47703 12 7.73736 12 8C12 8.26264 11.9482 8.52297 11.8477 8.76562C11.7471 9.00817 11.5997 9.22841 11.4141 9.41406C11.2284 9.59971 11.0082 9.74715 10.7656 9.84766C10.523 9.94817 10.2626 10 10 10V6Z" fill="#FF4DC4"/>
<path d="M8 16L7.29289 16.7071L9 18.4142V16H8ZM3 11L3.70711 10.2929L3.41421 10H3V11ZM1 11H0V12H1V11ZM1 5V4H0V5H1ZM3 5V6H3.41421L3.70711 5.70711L3 5ZM8 0H9V-2.41421L7.29289 -0.707107L8 0ZM10 2V1H9V2H10ZM12.2959 2.45703L12.6786 1.53315L12.6786 1.53315L12.2959 2.45703ZM14.2422 3.75781L14.9493 3.05071V3.05071L14.2422 3.75781ZM15.543 5.7041L16.4669 5.32143L16.4668 5.32142L15.543 5.7041ZM16 8H17V8H16ZM15.543 10.2959L16.4668 10.6786L16.4669 10.6786L15.543 10.2959ZM14.2422 12.2422L14.9493 12.9493V12.9493L14.2422 12.2422ZM12.2959 13.543L12.6786 14.4669L12.6786 14.4668L12.2959 13.543ZM10 14H9V15H10V14ZM10 12V11H9V12H10ZM11.5303 11.6953L11.9129 12.6192L11.913 12.6192L11.5303 11.6953ZM12.8281 10.8281L12.121 10.121H12.121L12.8281 10.8281ZM13.6953 9.53027L14.6192 9.91296L14.6192 9.91288L13.6953 9.53027ZM14 8H15H14ZM13.6953 6.46973L14.6192 6.08712L14.6192 6.08704L13.6953 6.46973ZM12.8281 5.17188L12.121 5.87898V5.87898L12.8281 5.17188ZM11.5303 4.30469L11.913 3.38081L11.9129 3.38077L11.5303 4.30469ZM10 4H9V5H10V4ZM10 6V5H9V6H10ZM10.7656 6.15234L11.1484 5.22852L11.1483 5.22846L10.7656 6.15234ZM11.4141 6.58594L12.1212 5.87883L11.4141 6.58594ZM11.8477 7.23438L12.7715 6.85169L12.7715 6.85156L11.8477 7.23438ZM12 8H13V8H12ZM11.8477 8.76562L12.7715 9.14844L12.7715 9.14831L11.8477 8.76562ZM11.4141 9.41406L10.707 8.70696V8.70696L11.4141 9.41406ZM10.7656 9.84766L11.1483 10.7715L11.1484 10.7715L10.7656 9.84766ZM10 10H9V11H10V10ZM8 16L8.70711 15.2929L3.70711 10.2929L3 11L2.29289 11.7071L7.29289 16.7071L8 16ZM3 11V10H1V11V12H3V11ZM1 11H2V5H1H0V11H1ZM1 5V6H3V5V4H1V5ZM3 5L3.70711 5.70711L8.70711 0.707107L8 0L7.29289 -0.707107L2.29289 4.29289L3 5ZM8 0H7V16H8H9V0H8ZM10 2V3C10.6563 3 11.3063 3.12954 11.9132 3.38092L12.2959 2.45703L12.6786 1.53315C11.8296 1.1815 10.9195 1 10 1V2ZM12.2959 2.45703L11.9132 3.38091C12.5196 3.6321 13.0706 4.00047 13.5351 4.46492L14.2422 3.75781L14.9493 3.05071C14.2994 2.40086 13.5281 1.88502 12.6786 1.53315L12.2959 2.45703ZM14.2422 3.75781L13.5351 4.46492C13.9995 4.92937 14.3679 5.48037 14.6191 6.08678L15.543 5.7041L16.4668 5.32142C16.115 4.47193 15.5991 3.70056 14.9493 3.05071L14.2422 3.75781ZM15.543 5.7041L14.6191 6.08677C14.8705 6.69367 15 7.34372 15 8H16H17C17 7.08047 16.8185 6.1704 16.4669 5.32143L15.543 5.7041ZM16 8H15C15 8.65628 14.8705 9.30633 14.6191 9.91323L15.543 10.2959L16.4669 10.6786C16.8185 9.8296 17 8.91953 17 8H16ZM15.543 10.2959L14.6191 9.91321C14.3679 10.5196 13.9995 11.0706 13.5351 11.5351L14.2422 12.2422L14.9493 12.9493C15.5991 12.2994 16.115 11.5281 16.4668 10.6786L15.543 10.2959ZM14.2422 12.2422L13.5351 11.5351C13.0706 11.9995 12.5196 12.3679 11.9132 12.6191L12.2959 13.543L12.6786 14.4668C13.5281 14.115 14.2994 13.5991 14.9493 12.9493L14.2422 12.2422ZM12.2959 13.543L11.9132 12.6191C11.3063 12.8705 10.6563 13 10 13V14V15C10.9195 15 11.8296 14.8185 12.6786 14.4669L12.2959 13.543ZM10 14H11V12H10H9V14H10ZM10 12V13C10.6569 13 11.3068 12.8702 11.9129 12.6192L11.5303 11.6953L11.1477 10.7714C10.7833 10.9223 10.3934 11 10 11V12ZM11.5303 11.6953L11.913 12.6192C12.5196 12.3679 13.0709 11.9995 13.5352 11.5352L12.8281 10.8281L12.121 10.121C11.8425 10.3996 11.5116 10.6207 11.1476 10.7714L11.5303 11.6953ZM12.8281 10.8281L13.5352 11.5352C13.9995 11.0709 14.3679 10.5196 14.6192 9.91296L13.6953 9.53027L12.7714 9.14759C12.6207 9.51158 12.3996 9.84245 12.121 10.121L12.8281 10.8281ZM13.6953 9.53027L14.6192 9.91288C14.8702 9.3068 15 8.65693 15 8H14H13C13 8.39341 12.9223 8.78333 12.7714 9.14767L13.6953 9.53027ZM14 8H15C15 7.34307 14.8702 6.6932 14.6192 6.08712L13.6953 6.46973L12.7714 6.85233C12.9223 7.21667 13 7.60659 13 8H14ZM13.6953 6.46973L14.6192 6.08704C14.3679 5.48042 13.9995 4.92907 13.5352 4.46477L12.8281 5.17188L12.121 5.87898C12.3996 6.15755 12.6207 6.48842 12.7714 6.85241L13.6953 6.46973ZM12.8281 5.17188L13.5352 4.46477C13.0709 4.00047 12.5196 3.63208 11.913 3.38081L11.5303 4.30469L11.1476 5.22857C11.5116 5.37933 11.8425 5.60041 12.121 5.87898L12.8281 5.17188ZM11.5303 4.30469L11.9129 3.38077C11.3068 3.12979 10.6569 3 10 3V4V5C10.3934 5 10.7833 5.07772 11.1477 5.2286L11.5303 4.30469ZM10 4H11V2H10H9V4H10ZM10 6V7C10.1312 7 10.2615 7.02592 10.3829 7.07622L10.7656 6.15234L11.1483 5.22846C10.7845 5.07775 10.3941 5 10 5V6ZM10.7656 6.15234L10.3828 7.07617C10.5036 7.12621 10.6137 7.19983 10.707 7.29304L11.4141 6.58594L12.1212 5.87883C11.8431 5.60075 11.5128 5.37949 11.1484 5.22852L10.7656 6.15234ZM11.4141 6.58594L10.707 7.29304C10.8002 7.38626 10.8738 7.49642 10.9238 7.61719L11.8477 7.23438L12.7715 6.85156C12.6205 6.48723 12.3993 6.15692 12.1212 5.87883L11.4141 6.58594ZM11.8477 7.23438L10.9238 7.61706C10.9741 7.73851 11 7.86881 11 8H12H13C13 7.6059 12.9222 7.21555 12.7715 6.85169L11.8477 7.23438ZM12 8H11C11 8.13119 10.9741 8.26149 10.9238 8.38294L11.8477 8.76562L12.7715 9.14831C12.9222 8.78445 13 8.3941 13 8H12ZM11.8477 8.76562L10.9238 8.38281C10.8738 8.50358 10.8002 8.61374 10.707 8.70696L11.4141 9.41406L12.1212 10.1212C12.3993 9.84308 12.6205 9.51277 12.7715 9.14844L11.8477 8.76562ZM11.4141 9.41406L10.707 8.70696C10.6137 8.80017 10.5036 8.87379 10.3828 8.92383L10.7656 9.84766L11.1484 10.7715C11.5128 10.6205 11.8431 10.3993 12.1212 10.1212L11.4141 9.41406ZM10.7656 9.84766L10.3829 8.92378C10.2615 8.97408 10.1312 9 10 9V10V11C10.3941 11 10.7845 10.9222 11.1483 10.7715L10.7656 9.84766ZM10 10H11V6H10H9V10H10Z" fill="black" mask="url(#path-2-outside-1_12_315)"/>
</g>
<defs>
<clipPath id="clip0_12_315">
<rect width="16" height="16" fill="white"/>
</clipPath>
</defs>
</svg>
