<svg width="16" height="16" viewBox="0 0 16 16" fill="none" xmlns="http://www.w3.org/2000/svg">
<g clip-path="url(#clip0_2_52)">
<rect width="16" height="16" fill="black"/>
<rect opacity="0.5" x="0.5" y="0.5" width="15" height="15" stroke="#FF661A"/>
<mask id="path-2-outside-1_2_52" maskUnits="userSpaceOnUse" x="-1" y="-1" width="18" height="18" fill="black">
<rect fill="white" x="-1" y="-1" width="18" height="18"/>
<path d="M8 0C12.4183 0 16 3.58172 16 8C16 12.4183 12.4183 16 8 16C3.58172 16 0 12.4183 0 8C0 3.58172 3.58172 0 8 0ZM2.08984 6.96582C2.03145 7.30184 2 7.64728 2 8C2 11.0596 4.29041 13.582 7.25 13.9512V10.9014C5.95658 10.568 5 9.39752 5 8C5 7.95385 5.00087 7.90794 5.00293 7.8623L2.08984 6.96582ZM10.9961 7.86133C10.9982 7.9073 11 7.95351 11 8C11 9.39752 10.0434 10.568 8.75 10.9014V13.9512C11.7096 13.582 14 11.0596 14 8C14 7.64722 13.9676 7.30189 13.9092 6.96582L10.9961 7.86133ZM8 2C5.56606 2 3.47137 3.44959 2.53027 5.53223L5.44727 6.42871C5.97554 5.5723 6.9199 5 8 5C9.07992 5 10.0234 5.57254 10.5518 6.42871L13.4688 5.53223C12.5276 3.44978 10.4338 2 8 2Z"/>
</mask>
<path d="M8 0C12.4183 0 16 3.58172 16 8C16 12.4183 12.4183 16 8 16C3.58172 16 0 12.4183 0 8C0 3.58172 3.58172 0 8 0ZM2.08984 6.96582C2.03145 7.30184 2 7.64728 2 8C2 11.0596 4.29041 13.582 7.25 13.9512V10.9014C5.95658 10.568 5 9.39752 5 8C5 7.95385 5.00087 7.90794 5.00293 7.8623L2.08984 6.96582ZM10.9961 7.86133C10.9982 7.9073 11 7.95351 11 8C11 9.39752 10.0434 10.568 8.75 10.9014V13.9512C11.7096 13.582 14 11.0596 14 8C14 7.64722 13.9676 7.30189 13.9092 6.96582L10.9961 7.86133ZM8 2C5.56606 2 3.47137 3.44959 2.53027 5.53223L5.44727 6.42871C5.97554 5.5723 6.9199 5 8 5C9.07992 5 10.0234 5.57254 10.5518 6.42871L13.4688 5.53223C12.5276 3.44978 10.4338 2 8 2Z" fill="#FF661A"/>
<path d="M2.08984 6.96582L2.38397 6.01006L1.29896 5.67615L1.10461 6.79462L2.08984 6.96582ZM7.25 13.9512L7.12621 14.9435L8.25 15.0837V13.9512H7.25ZM7.25 10.9014H8.25V10.1264L7.49959 9.93302L7.25 10.9014ZM5.00293 7.8623L6.00191 7.90743L6.03684 7.1342L5.29706 6.90654L5.00293 7.8623ZM10.9961 7.86133L10.7023 6.90547L9.96192 7.13306L9.99713 7.90679L10.9961 7.86133ZM8.75 10.9014L8.50041 9.93302L7.75 10.1264V10.9014H8.75ZM8.75 13.9512H7.75V15.0837L8.87379 14.9435L8.75 13.9512ZM13.9092 6.96582L14.8944 6.79459L14.7001 5.6765L13.6153 6.00996L13.9092 6.96582ZM2.53027 5.53223L1.61899 5.12044L1.15164 6.15469L2.2365 6.4881L2.53027 5.53223ZM5.44727 6.42871L5.15349 7.38459L5.89249 7.6117L6.29837 6.95371L5.44727 6.42871ZM10.5518 6.42871L9.70074 6.95386L10.1067 7.61166L10.8455 7.38459L10.5518 6.42871ZM13.4688 5.53223L13.7625 6.4881L14.8475 6.15467L14.38 5.12038L13.4688 5.53223ZM8 0V1C11.866 1 15 4.13401 15 8H16H17C17 3.02944 12.9706 -1 8 -1V0ZM16 8H15C15 11.866 11.866 15 8 15V16V17C12.9706 17 17 12.9706 17 8H16ZM8 16V15C4.13401 15 1 11.866 1 8H0H-1C-1 12.9706 3.02944 17 8 17V16ZM0 8H1C1 4.13401 4.13401 1 8 1V0V-1C3.02944 -1 -1 3.02944 -1 8H0ZM2.08984 6.96582L1.10461 6.79462C1.03678 7.18495 1 7.58768 1 8H2H3C3 7.70688 3.02613 7.41873 3.07508 7.13702L2.08984 6.96582ZM2 8H1C1 11.5709 3.67289 14.5127 7.12621 14.9435L7.25 13.9512L7.37379 12.9589C4.90793 12.6512 3 10.5484 3 8H2ZM7.25 13.9512H8.25V10.9014H7.25H6.25V13.9512H7.25ZM7.25 10.9014L7.49959 9.93302C6.63508 9.71019 6 8.92826 6 8H5H4C4 9.86678 5.27809 11.4258 7.00041 11.8697L7.25 10.9014ZM5 8H6C6 7.96628 6.00064 7.93562 6.00191 7.90743L5.00293 7.8623L4.00395 7.81718C4.0011 7.88026 4 7.94143 4 8H5ZM5.00293 7.8623L5.29706 6.90654L2.38397 6.01006L2.08984 6.96582L1.79571 7.92159L4.7088 8.81807L5.00293 7.8623ZM10.9961 7.86133L9.99713 7.90679C9.99912 7.9505 10 7.97763 10 8H11H12C12 7.92939 11.9973 7.8641 11.9951 7.81587L10.9961 7.86133ZM11 8H10C10 8.92826 9.36492 9.71019 8.50041 9.93302L8.75 10.9014L8.99959 11.8697C10.7219 11.4258 12 9.86678 12 8H11ZM8.75 10.9014H7.75V13.9512H8.75H9.75V10.9014H8.75ZM8.75 13.9512L8.87379 14.9435C12.3271 14.5127 15 11.5709 15 8H14H13C13 10.5484 11.0921 12.6512 8.62621 12.9589L8.75 13.9512ZM14 8H15C15 7.58581 14.9619 7.18311 14.8944 6.79459L13.9092 6.96582L12.9239 7.13705C12.9732 7.42068 13 7.70863 13 8H14ZM13.9092 6.96582L13.6153 6.00996L10.7023 6.90547L10.9961 7.86133L11.2899 8.81718L14.203 7.92168L13.9092 6.96582ZM8 2V1C5.15863 1 2.71585 2.69311 1.61899 5.12044L2.53027 5.53223L3.44155 5.94401C4.22689 4.20606 5.9735 3 8 3V2ZM2.53027 5.53223L2.2365 6.4881L5.15349 7.38459L5.44727 6.42871L5.74104 5.47284L2.82404 4.57635L2.53027 5.53223ZM5.44727 6.42871L6.29837 6.95371C6.65317 6.37852 7.28293 6 8 6V5V4C6.55686 4 5.2979 4.76608 4.59616 5.90371L5.44727 6.42871ZM8 5V6C8.7164 6 9.34561 6.37835 9.70074 6.95386L10.5518 6.42871L11.4028 5.90357C10.7013 4.76674 9.44344 4 8 4V5ZM10.5518 6.42871L10.8455 7.38459L13.7625 6.4881L13.4688 5.53223L13.175 4.57635L10.258 5.47284L10.5518 6.42871ZM13.4688 5.53223L14.38 5.12038C13.2832 2.69352 10.8415 1 8 1V2V3C10.0261 3 11.772 4.20605 12.5575 5.94408L13.4688 5.53223Z" fill="black" mask="url(#path-2-outside-1_2_52)"/>
<circle cx="8" cy="8" r="1" fill="black"/>
</g>
<defs>
<clipPath id="clip0_2_52">
<rect width="16" height="16" fill="white"/>
</clipPath>
</defs>
</svg>
