<svg width="16" height="16" viewBox="0 0 16 16" fill="none" xmlns="http://www.w3.org/2000/svg">
<g id="Browse">
<path id="theme-fill" d="M6.08594 1C6.48371 1.00004 6.86522 1.15818 7.14648 1.43945L8.56055 2.85352C8.65428 2.94725 8.78151 2.99996 8.91406 3H13.5C14.3284 3 15 3.67157 15 4.5V6H14V4.5C14 4.22386 13.7761 4 13.5 4H8.91406C8.51629 3.99996 8.13478 3.84182 7.85352 3.56055L6.43945 2.14648C6.34572 2.05275 6.21849 2.00004 6.08594 2H2.5C2.22386 2 2 2.22386 2 2.5V13.5C2 13.7761 2.22386 14 2.5 14H13.5C13.7761 14 14 13.7761 14 13.5V10H15V13.5C15 14.3284 14.3284 15 13.5 15H2.5C1.67157 15 1 14.3284 1 13.5V2.5C1 1.67157 1.67157 1 2.5 1H6.08594Z" fill="currentColor"/>
<path id="highlight-fill" d="M7 7C7.55228 7 8 7.44772 8 8C8 8.55228 7.55228 9 7 9C6.44772 9 6 8.55228 6 8C6 7.44772 6.44772 7 7 7ZM11 7C11.5523 7 12 7.44772 12 8C12 8.55228 11.5523 9 11 9C10.4477 9 10 8.55228 10 8C10 7.44772 10.4477 7 11 7ZM15 7C15.5523 7 16 7.44772 16 8C16 8.55228 15.5523 9 15 9C14.4477 9 14 8.55228 14 8C14 7.44772 14.4477 7 15 7Z" fill="#47AEEB"/>
</g>
</svg>
