<svg width="16" height="16" viewBox="0 0 16 16" fill="none" xmlns="http://www.w3.org/2000/svg">
<g id="Copy Path">
<path id="theme-fill" d="M2.49805 3C2.2228 3.00105 2 3.22451 2 3.5V12.5C2 12.7761 2.22386 13 2.5 13H5.16504L5.43262 14H2.5C1.67157 14 1 13.3284 1 12.5V3.5C1 2.76089 1.53469 2.1473 2.23828 2.02344L2.49805 3ZM10.165 13L10.4326 14H8.53711L8.27051 13H10.165ZM13.5 2C14.3284 2 15 2.67157 15 3.5V12.5C15 13.3163 14.3479 13.9788 13.5361 13.998L13.2705 13H13.5C13.7761 13 14 12.7761 14 12.5V3.5C14 3.22386 13.7761 3 13.5 3H10.6045L10.3369 2H13.5ZM7.49902 3H5.60449L5.33691 2H7.23242L7.49902 3Z" fill="currentColor"/>
<path id="highlight-fill" d="M7.76953 15H6.7334L3 1H4.03613L7.76953 15ZM12.7695 15H11.7334L8 1H9.03613L12.7695 15Z" fill="#47AEEB"/>
</g>
</svg>
