<svg width="16" height="16" viewBox="0 0 16 16" fill="none" xmlns="http://www.w3.org/2000/svg">
<g id="Copy">
<path id="theme-fill" d="M4.00024 5.00006H3.00024V14.0001H11.0002V13.0001H12.0002V14.5001C12.0002 14.7761 11.7763 14.9999 11.5002 15.0001H2.50024C2.36771 15.0001 2.24048 14.9472 2.14673 14.8536C2.05298 14.7598 2.00026 14.6326 2.00024 14.5001V4.50006C2.00024 4.36745 2.05296 4.24031 2.14673 4.14655C2.24049 4.05283 2.36768 4.00006 2.50024 4.00006H4.00024V5.00006Z" fill="currentColor"/>
<path id="highlight-fill" d="M10.5 1C10.6326 1 10.7597 1.05272 10.8535 1.14648L13.8535 4.14648C13.9473 4.24025 14 4.36739 14 4.5V11.5C14 11.7761 13.7761 12 13.5 12H5.5C5.22386 12 5 11.7761 5 11.5V1.5C5 1.22386 5.22386 1 5.5 1H10.5ZM6 11H13V4.70703L10.293 2H6V11Z" fill="#47AEEB"/>
</g>
</svg>
