<svg width="16" height="16" viewBox="0 0 16 16" fill="none" xmlns="http://www.w3.org/2000/svg">
<g id="Doc">
<path id="theme-fill" d="M8.5 1C8.63261 1 8.75975 1.05272 8.85352 1.14648L8.92188 1.21484C8.92562 1.21859 8.92985 1.22185 8.93359 1.22559C8.93733 1.22933 8.9406 1.23357 8.94434 1.2373L9.01172 1.30469C9.01544 1.30841 9.01972 1.31172 9.02344 1.31543C9.02716 1.31915 9.03047 1.32344 9.03418 1.32715L9.38184 1.6748C9.38525 1.67822 9.38917 1.68116 9.39258 1.68457C9.396 1.68799 9.39893 1.6919 9.40234 1.69531L9.52832 1.82129C9.53173 1.8247 9.53566 1.82765 9.53906 1.83105C9.54248 1.83448 9.54541 1.83838 9.54883 1.8418L9.67188 1.96484C9.67526 1.96823 9.67923 1.97122 9.68262 1.97461C9.686 1.97799 9.68901 1.98198 9.69238 1.98535L9.7627 2.05566C9.76604 2.05901 9.7701 2.06209 9.77344 2.06543C9.77678 2.06878 9.77986 2.07283 9.7832 2.07617L9.80273 2.0957C9.80606 2.09903 9.81016 2.10215 9.81348 2.10547C9.8168 2.1088 9.81992 2.11289 9.82324 2.11621L9.85254 2.14551C9.85585 2.14882 9.85997 2.15197 9.86328 2.15527C9.86658 2.15858 9.86975 2.16272 9.87305 2.16602L9.95117 2.24414C9.95444 2.24741 9.95865 2.25064 9.96191 2.25391L10.0205 2.3125C10.0236 2.31559 10.0262 2.31917 10.0293 2.32227L10.4014 2.69434C10.4045 2.69743 10.408 2.70004 10.4111 2.70312C10.4142 2.70622 10.4168 2.7098 10.4199 2.71289L10.6143 2.90723C10.6173 2.91028 10.621 2.91297 10.624 2.91602C10.6271 2.91908 10.6298 2.92272 10.6328 2.92578L10.6875 2.98047C10.6905 2.9835 10.6942 2.98622 10.6973 2.98926C10.7003 2.9923 10.703 2.99598 10.7061 2.99902L10.7695 3.0625C10.7726 3.06553 10.7763 3.06826 10.7793 3.07129C10.7823 3.07431 10.7851 3.07804 10.7881 3.08105L10.833 3.12598C10.836 3.129 10.8398 3.13175 10.8428 3.13477C10.8458 3.13777 10.8486 3.14152 10.8516 3.14453L10.8691 3.16211C10.8721 3.16512 10.8759 3.16789 10.8789 3.1709C10.8819 3.17391 10.8847 3.17765 10.8877 3.18066L10.9053 3.19824C10.9083 3.20125 10.912 3.20402 10.915 3.20703C10.918 3.21004 10.9208 3.21379 10.9238 3.2168L10.9863 3.2793C10.9893 3.28229 10.9931 3.28509 10.9961 3.28809C10.9991 3.29107 11.0019 3.29486 11.0049 3.29785L11.0312 3.32422C11.0342 3.32721 11.038 3.33002 11.041 3.33301C11.044 3.33599 11.0468 3.33979 11.0498 3.34277L11.1924 3.48535C11.1954 3.48833 11.1992 3.49117 11.2021 3.49414C11.2051 3.49712 11.208 3.50093 11.2109 3.50391L11.4961 3.78906C11.4991 3.79204 11.5029 3.79487 11.5059 3.79785C11.5088 3.80083 11.5117 3.80464 11.5146 3.80762L11.6572 3.9502C11.6602 3.95317 11.664 3.956 11.667 3.95898C11.67 3.96198 11.6728 3.96576 11.6758 3.96875L11.7021 3.99512C11.7051 3.99811 11.7089 4.00092 11.7119 4.00391C11.7149 4.0069 11.7177 4.01067 11.7207 4.01367L11.7832 4.07617C11.7862 4.07918 11.79 4.08196 11.793 4.08496C11.796 4.08797 11.7987 4.09172 11.8018 4.09473L11.8193 4.1123C11.8223 4.11532 11.8261 4.11808 11.8291 4.12109C11.8321 4.1241 11.8349 4.12785 11.8379 4.13086L11.8555 4.14844C11.8585 4.15145 11.8622 4.15422 11.8652 4.15723C11.8683 4.16024 11.871 4.16397 11.874 4.16699L11.9189 4.21191C11.922 4.21493 11.9257 4.21768 11.9287 4.2207C11.9317 4.22373 11.9345 4.22744 11.9375 4.23047L12.001 4.29395C12.004 4.29699 12.0077 4.29969 12.0107 4.30273C12.0138 4.30577 12.0165 4.30946 12.0195 4.3125L12.0742 4.36719C12.0773 4.37025 12.0809 4.37292 12.084 4.37598C12.087 4.37903 12.0897 4.38269 12.0928 4.38574L12.2871 4.58008C12.2902 4.58317 12.2938 4.58577 12.2969 4.58887C12.3 4.59196 12.3026 4.59554 12.3057 4.59863L12.6777 4.9707C12.6808 4.97379 12.6844 4.9764 12.6875 4.97949L12.7461 5.03809C12.7494 5.04135 12.7526 5.04556 12.7559 5.04883L12.834 5.12695C12.8373 5.13025 12.8414 5.13342 12.8447 5.13672C12.848 5.14003 12.8512 5.14415 12.8545 5.14746L12.8838 5.17676C12.8871 5.18008 12.8912 5.1832 12.8945 5.18652C12.8979 5.18984 12.901 5.19394 12.9043 5.19727L12.9238 5.2168C12.9272 5.22014 12.9312 5.22322 12.9346 5.22656C12.9379 5.2299 12.941 5.23396 12.9443 5.2373L13.0146 5.30762C13.018 5.31099 13.022 5.314 13.0254 5.31738C13.0288 5.32077 13.0318 5.32473 13.0352 5.32812L13.1582 5.45117C13.1616 5.45459 13.1655 5.45752 13.1689 5.46094C13.1723 5.46434 13.1753 5.46827 13.1787 5.47168L13.3047 5.59766C13.3081 5.60107 13.312 5.604 13.3154 5.60742C13.3188 5.61083 13.3218 5.61475 13.3252 5.61816L13.6729 5.96582C13.6766 5.96953 13.6809 5.97284 13.6846 5.97656C13.6883 5.98028 13.6916 5.98456 13.6953 5.98828L13.7627 6.05566C13.7664 6.0594 13.7707 6.06267 13.7744 6.06641C13.7782 6.07015 13.7814 6.07438 13.7852 6.07812L13.8535 6.14648C13.9473 6.24025 14 6.36739 14 6.5V14.5C14 14.7761 13.7761 15 13.5 15H2.5C2.22386 15 2 14.7761 2 14.5V1.5C2 1.22386 2.22386 1 2.5 1H8.5ZM3 14H13V7H8.5C8.22386 7 8 6.77614 8 6.5V2H3V14ZM12 12H4V11H12V12ZM12 10H4V9H12V10ZM9 6H12.293L12.2373 5.94434C12.234 5.94099 12.2299 5.93791 12.2266 5.93457C12.2232 5.93122 12.2201 5.92717 12.2168 5.92383L12.1973 5.9043C12.1939 5.90097 12.1898 5.89785 12.1865 5.89453C12.1832 5.8912 12.1801 5.88711 12.1768 5.88379L12.1475 5.85449C12.1441 5.85118 12.14 5.84803 12.1367 5.84473C12.1334 5.84142 12.1303 5.83728 12.127 5.83398L12.0488 5.75586C12.0456 5.75259 12.0414 5.74936 12.0381 5.74609L11.9795 5.6875C11.9764 5.68441 11.9738 5.68083 11.9707 5.67773L11.5986 5.30566C11.5955 5.30257 11.592 5.29996 11.5889 5.29688C11.5858 5.29378 11.5832 5.2902 11.5801 5.28711L11.3857 5.09277C11.3827 5.08972 11.379 5.08703 11.376 5.08398C11.3729 5.08092 11.3702 5.07728 11.3672 5.07422L11.3125 5.01953C11.3095 5.0165 11.3058 5.01378 11.3027 5.01074C11.2997 5.0077 11.297 5.00402 11.2939 5.00098L11.2305 4.9375C11.2274 4.93447 11.2237 4.93174 11.2207 4.92871C11.2177 4.92569 11.2149 4.92196 11.2119 4.91895L11.167 4.87402C11.164 4.871 11.1602 4.86825 11.1572 4.86523C11.1542 4.86223 11.1514 4.85848 11.1484 4.85547L11.1309 4.83789C11.1279 4.83488 11.1241 4.83211 11.1211 4.8291C11.1181 4.82609 11.1153 4.82235 11.1123 4.81934L11.0947 4.80176C11.0917 4.79875 11.088 4.79598 11.085 4.79297C11.082 4.78996 11.0792 4.78621 11.0762 4.7832L11.0137 4.7207C11.0107 4.71771 11.0069 4.71491 11.0039 4.71191C11.0009 4.70893 10.9981 4.70514 10.9951 4.70215L10.9688 4.67578C10.9658 4.67279 10.962 4.66998 10.959 4.66699C10.956 4.66401 10.9532 4.66021 10.9502 4.65723L10.8076 4.51465C10.8046 4.51167 10.8008 4.50883 10.7979 4.50586C10.7949 4.50288 10.792 4.49907 10.7891 4.49609L10.5039 4.21094C10.5009 4.20796 10.4971 4.20513 10.4941 4.20215C10.4912 4.19917 10.4883 4.19536 10.4854 4.19238L10.3428 4.0498C10.3398 4.04683 10.336 4.044 10.333 4.04102C10.33 4.03802 10.3272 4.03424 10.3242 4.03125L10.2979 4.00488C10.2949 4.00189 10.2911 3.99908 10.2881 3.99609C10.2851 3.9931 10.2823 3.98933 10.2793 3.98633L10.2168 3.92383C10.2138 3.92082 10.21 3.91804 10.207 3.91504C10.204 3.91203 10.2013 3.90828 10.1982 3.90527L10.1807 3.8877C10.1777 3.88468 10.1739 3.88192 10.1709 3.87891C10.1679 3.8759 10.1651 3.87215 10.1621 3.86914L10.1445 3.85156C10.1415 3.84855 10.1378 3.84578 10.1348 3.84277C10.1317 3.83976 10.129 3.83603 10.126 3.83301L10.0811 3.78809C10.078 3.78507 10.0743 3.78232 10.0713 3.7793C10.0683 3.77627 10.0655 3.77256 10.0625 3.76953L9.99902 3.70605C9.99598 3.70301 9.9923 3.70031 9.98926 3.69727C9.98622 3.69423 9.9835 3.69054 9.98047 3.6875L9.92578 3.63281C9.92272 3.62975 9.91908 3.62708 9.91602 3.62402C9.91297 3.62097 9.91028 3.61731 9.90723 3.61426L9.71289 3.41992C9.7098 3.41683 9.70622 3.41423 9.70312 3.41113C9.70004 3.40804 9.69743 3.40446 9.69434 3.40137L9.32227 3.0293C9.31917 3.02621 9.31559 3.0236 9.3125 3.02051L9.25391 2.96191C9.25064 2.95865 9.24741 2.95444 9.24414 2.95117L9.16602 2.87305C9.16272 2.86975 9.15858 2.86658 9.15527 2.86328C9.15197 2.85997 9.14882 2.85585 9.14551 2.85254L9.11621 2.82324C9.11289 2.81992 9.1088 2.8168 9.10547 2.81348C9.10215 2.81016 9.09903 2.80606 9.0957 2.80273L9.07617 2.7832C9.07283 2.77986 9.06878 2.77678 9.06543 2.77344C9.06209 2.7701 9.05901 2.76604 9.05566 2.7627L9 2.70703V6Z" fill="currentColor"/>
</g>
</svg>
