<svg xmlns="http://www.w3.org/2000/svg" width="16" height="16" fill="currentColor" viewBox="0 0 16 16">
  <g clip-path="url(#a)">
    <path d="M4 2.75H3a.25.25 0 0 0-.25.25v10c0 .138.112.25.25.25h10a.25.25 0 0 0 .25-.25V3a.25.25 0 0 0-.25-.25h-1v-1.5h1c.966 0 1.75.784 1.75 1.75v10A1.75 1.75 0 0 1 13 14.75H3A1.75 1.75 0 0 1 1.25 13V3c0-.966.783-1.75 1.75-1.75h1v1.5Zm7.53.72a.75.75 0 1 1-1.06 1.06L8.75 2.81V9a.75.75 0 0 1-1.5 0V2.81L5.53 4.53a.75.75 0 0 1-1.06-1.06L8-.06l3.53 3.53Z"/>
  </g>
  <defs>
    <clipPath id="a">
      <path d="M0 0h16v16H0z"/>
    </clipPath>
  </defs>
</svg>
