<svg width="16" height="16" viewBox="0 0 16 16" fill="none" xmlns="http://www.w3.org/2000/svg">
<g id="Export">
<path id="theme-fill" d="M3.99976 2.0003H2.49976C2.22373 2.00043 1.99976 2.22424 1.99976 2.5003V13.5003C1.99992 13.7762 2.22383 14.0002 2.49976 14.0003H13.4998C13.7758 14.0003 13.9996 13.7763 13.9998 13.5003V2.5003C13.9998 2.22416 13.7759 2.0003 13.4998 2.0003H10.9998V1.0003H13.4998C14.3282 1.0003 14.9998 1.67187 14.9998 2.5003V13.5003C14.9996 14.3286 14.3281 15.0003 13.4998 15.0003H2.49976C1.67154 15.0002 0.999917 14.3285 0.999756 13.5003V2.5003C0.999756 1.67195 1.67144 1.00043 2.49976 1.0003H3.99976V2.0003Z" fill="currentColor"/>
<path id="highlight-fill" d="M11.207 4.5L10.5 5.20703L8 2.70703V10H7V2.70703L4.5 5.20703L3.79297 4.5L7.5 0.792969L11.207 4.5Z" fill="#FFD138"/>
</g>
</svg>
