<svg width="16" height="16" viewBox="0 0 16 16" fill="none" xmlns="http://www.w3.org/2000/svg">
<g id="Favourite">
<path id="highlight-fill" d="M8.00018 0C8.43497 8.85629e-05 8.81981 0.281199 8.95233 0.695312L10.3303 5H14.5002C14.9348 5.00008 15.3197 5.28139 15.4523 5.69531C15.5847 6.10912 15.4348 6.56088 15.0812 6.81348L11.7199 9.21289L13.0656 13.3545C13.1992 13.7663 13.0525 14.2171 12.7023 14.4717C12.3519 14.7263 11.877 14.7262 11.5266 14.4717L8.00018 11.9092L4.47382 14.4717C4.12337 14.7263 3.64851 14.7262 3.29803 14.4717C2.94772 14.2171 2.80107 13.7664 2.93475 13.3545L4.27948 9.21289L0.919128 6.81348C0.565504 6.56089 0.415595 6.10918 0.548035 5.69531C0.68071 5.28136 1.06548 5 1.50018 5H5.6701L7.04803 0.695312L7.10858 0.546875C7.27694 0.215391 7.61952 9.91318e-07 8.00018 0ZM6.40057 6H1.50018L5.45721 8.82617L3.88593 13.6631L8.00018 10.6738L12.1144 13.6631L10.5432 8.82617L14.5002 6H9.59979L8.00018 1L6.40057 6Z" fill="#FFD138"/>
</g>
</svg>
