<svg width="16" height="16" viewBox="0 0 16 16" fill="none" xmlns="http://www.w3.org/2000/svg">
<g id="File Explorer">
<path id="theme-fill" d="M6.0863 1C6.48394 1.00014 6.86567 1.15827 7.14685 1.43945L8.56091 2.85352C8.63111 2.92364 8.71989 2.97098 8.8158 2.99023L8.91443 3H13.5004C13.5521 3.00001 13.6033 3.00268 13.6537 3.00781C13.805 3.02322 13.9497 3.06116 14.0844 3.11816C14.129 3.13709 14.1729 3.15766 14.2152 3.18066C14.6828 3.43467 15.0004 3.93046 15.0004 4.5V13.5C15.0004 14.3283 14.3286 14.9998 13.5004 15H2.50037C1.67194 15 1.00037 14.3284 1.00037 13.5V2.5C1.00037 1.67157 1.67194 1 2.50037 1H6.0863ZM8.91443 4C8.78196 4.00004 8.65463 4.05287 8.56091 4.14648L7.14685 5.56055C6.86567 5.84173 6.48394 5.99986 6.0863 6H2.50037C2.22422 6 2.00037 6.22386 2.00037 6.5V13.5C2.00037 13.7761 2.22422 14 2.50037 14H4.00037V12C4.00037 11.4477 4.44808 11 5.00037 11H11.0004C11.5525 11.0002 12.0004 11.4478 12.0004 12V14H13.5004C13.7763 13.9998 14.0004 13.776 14.0004 13.5V4.5C14.0004 4.25841 13.8287 4.05643 13.601 4.00977L13.5004 4H8.91443ZM5.00037 14H11.0004V12H5.00037V14ZM2.50037 2C2.22422 2 2.00037 2.22386 2.00037 2.5V5.08691C2.1568 5.0316 2.32499 5 2.50037 5H6.0863C6.21872 4.99986 6.34618 4.94716 6.43982 4.85352L7.79333 3.5L6.43982 2.14648C6.34617 2.05284 6.21873 2.00014 6.0863 2H2.50037Z" fill="currentColor"/>
</g>
</svg>
