<svg width="16" height="16" viewBox="0 0 16 16" fill="none" xmlns="http://www.w3.org/2000/svg">
<g id="Filter">
<path id="theme-fill" d="M14.5 1C14.7761 1 15 1.22386 15 1.5V5.5C15 5.63261 14.9473 5.75975 14.8535 5.85352L11 9.70703V12.5C11 12.646 10.936 12.7849 10.8252 12.8799L7.3252 15.8799C7.23461 15.9574 7.11925 16 7 16H5.5C5.22386 16 5 15.7761 5 15.5V9.70703L1.14648 5.85352C1.05272 5.75975 1 5.63261 1 5.5V1.5C1 1.22386 1.22386 1 1.5 1H14.5ZM2 5.29297L5.85352 9.14648C5.94728 9.24025 6 9.36739 6 9.5V15H6.81543L10 12.2695V9.5C10 9.36739 10.0527 9.24025 10.1465 9.14648L14 5.29297V2H2V5.29297Z" fill="currentColor"/>
<path id="highlight-fill" d="M10 8H6V7H10V8Z" fill="#47AEEB"/>
</g>
</svg>
