<svg width="16" height="16" viewBox="0 0 16 16" fill="none" xmlns="http://www.w3.org/2000/svg">
<g id="Find">
<path id="theme-fill" d="M14.707 14L14 14.707L10.793 11.5L11.5 10.793L14.707 14ZM7 4C8.65685 4 10 5.34315 10 7C10 8.65685 8.65685 10 7 10C5.34315 10 4 8.65685 4 7C4 5.34315 5.34315 4 7 4ZM7 5C5.89543 5 5 5.89543 5 7C5 8.10457 5.89543 9 7 9C8.10457 9 9 8.10457 9 7C9 5.89543 8.10457 5 7 5Z" fill="currentColor"/>
<path id="highlight-fill" d="M7 2C9.7614 2.00003 12 4.2386 12 7C12 9.7614 9.7614 12 7 12C4.23858 12 2 9.76142 2 7C2 4.23858 4.23858 2 7 2ZM7 3C4.79086 3 3 4.79086 3 7C3 9.20914 4.79086 11 7 11C9.20911 11 11 9.20912 11 7C11 4.79088 9.20911 3.00003 7 3Z" fill="#47AEEB"/>
</g>
</svg>
