<svg width="16" height="16" viewBox="0 0 16 16" fill="none" xmlns="http://www.w3.org/2000/svg">
<g id="Folder - closed">
<path id="theme-fill" d="M13.5004 6C14.3286 6.0002 15.0004 6.6717 15.0004 7.5V13.5C15.0004 14.3283 14.3286 14.9998 13.5004 15H2.50037C1.67194 15 1.00037 14.3284 1.00037 13.5V7.5C1.00037 6.67157 1.67194 6 2.50037 6H13.5004ZM2.50037 7C2.22422 7 2.00037 7.22386 2.00037 7.5V13.5C2.00037 13.7761 2.22422 14 2.50037 14H13.5004C13.7763 13.9998 14.0004 13.776 14.0004 13.5V7.5C14.0004 7.22398 13.7763 7.0002 13.5004 7H2.50037ZM6.0863 1C6.48394 1.00014 6.86567 1.15827 7.14685 1.43945L8.56091 2.85352C8.65463 2.94713 8.78196 2.99996 8.91443 3H13.5004C14.3286 3.0002 15.0004 3.67169 15.0004 4.5V5.76758C14.7117 5.50876 14.3733 5.30585 14.0004 5.17383V4.5C14.0004 4.22398 13.7763 4.0002 13.5004 4H8.91443C8.51674 3.99996 8.13513 3.8417 7.85388 3.56055L6.43982 2.14648C6.34617 2.05284 6.21873 2.00014 6.0863 2H2.50037C2.22422 2 2.00037 2.22386 2.00037 2.5V5.17383C1.6273 5.30579 1.2891 5.50878 1.00037 5.76758V2.5C1.00037 1.67157 1.67194 1 2.50037 1H6.0863Z" fill="currentColor"/>
</g>
</svg>
