<svg xmlns="http://www.w3.org/2000/svg" width="16" height="16" fill="currentColor" viewBox="0 0 16 16">
  <path d="M13 6.25c.967 0 1.75.784 1.75 1.75v5A1.75 1.75 0 0 1 13 14.75H3A1.75 1.75 0 0 1 1.25 13V8c0-.966.784-1.75 1.75-1.75h10ZM3 7.75a.25.25 0 0 0-.25.25v5c0 .138.112.25.25.25h10a.25.25 0 0 0 .25-.25V8a.25.25 0 0 0-.25-.25H3Zm3.086-6.5c.464 0 .91.185 1.238.513l1.414 1.414a.25.25 0 0 0 .176.073H13c.967 0 1.75.784 1.75 1.75v1.216a2.492 2.492 0 0 0-1.5-.704V5a.25.25 0 0 0-.25-.25H8.914a1.75 1.75 0 0 1-1.237-.513L6.263 2.823a.251.251 0 0 0-.177-.073H3a.25.25 0 0 0-.25.25v2.512a2.492 2.492 0 0 0-1.5.703V3c0-.966.784-1.75 1.75-1.75h3.086Z"/>
</svg>
