<svg width="16" height="16" viewBox="0 0 16 16" fill="none" xmlns="http://www.w3.org/2000/svg">
<g id="Folder - open">
<path id="theme-fill" d="M13.8818 6C14.9969 6 15.7223 7.17355 15.2236 8.1709L12.2236 14.1709C11.9695 14.679 11.45 15 10.8818 15H3.11816C2.00309 15 1.27769 13.8265 1.77637 12.8291L4.77637 6.8291C5.03046 6.32096 5.55003 6 6.11816 6H13.8818ZM6.11816 7C5.9288 7 5.7556 7.10701 5.6709 7.27637L2.6709 13.2764C2.50467 13.6088 2.74647 14 3.11816 14H10.8818C11.0712 14 11.2444 13.893 11.3291 13.7236L14.3291 7.72363C14.4953 7.39118 14.2535 7 13.8818 7H6.11816ZM6.08594 1C6.48371 1.00004 6.86522 1.15818 7.14648 1.43945L8.56055 2.85352C8.65428 2.94725 8.78151 2.99996 8.91406 3H13.5C14.3284 3 15 3.67157 15 4.5V5.25977C14.7009 5.11032 14.3637 5.02031 14 5.00391V4.5C14 4.22386 13.7761 4 13.5 4H8.91406C8.51629 3.99996 8.13478 3.84182 7.85352 3.56055L6.43945 2.14648C6.34572 2.05275 6.21849 2.00004 6.08594 2H2.5C2.22386 2 2 2.22386 2 2.5V10.1455L1 12.1455V2.5C1 1.67157 1.67157 1 2.5 1H6.08594Z" fill="currentColor"/>
</g>
</svg>
