<svg xmlns="http://www.w3.org/2000/svg" width="16" height="16" fill="currentColor" viewBox="0 0 16 16">
  <path d="M13.882 6.25a1.75 1.75 0 0 1 1.565 2.532l-2.5 5a1.75 1.75 0 0 1-1.565.968H3.618a1.75 1.75 0 0 1-1.565-2.532l2.5-5a1.75 1.75 0 0 1 1.565-.968h7.764Zm-7.764 1.5a.25.25 0 0 0-.223.139l-2.5 5a.25.25 0 0 0 .223.361h7.764a.25.25 0 0 0 .223-.139l2.5-5a.25.25 0 0 0-.223-.361H6.118Zm-.032-6.5c.464 0 .91.185 1.237.513l1.414 1.414a.25.25 0 0 0 .177.073H13c.966 0 1.75.784 1.75 1.75v.653a2.507 2.507 0 0 0-.868-.153h-.632V5a.25.25 0 0 0-.25-.25H8.914a1.75 1.75 0 0 1-1.237-.513L6.263 2.823a.25.25 0 0 0-.177-.073H3a.25.25 0 0 0-.25.25v6.146l-1.368 2.736a2.582 2.582 0 0 0-.132.314V3c0-.966.784-1.75 1.75-1.75h3.086Z"/>
</svg>
