<svg width="16" height="16" viewBox="0 0 16 16" fill="none" xmlns="http://www.w3.org/2000/svg">
<g id="Function">
<path id="theme-fill" d="M5.5 1C6.88071 1 8 2.11929 8 3.5H7C7 2.67157 6.32843 2 5.5 2C4.67157 2 4 2.67157 4 3.5V6H8V7H4V13.5C4 14.3284 3.32843 15 2.5 15C1.67157 15 1 14.3284 1 13.5V13H2V13.5C2 13.7761 2.22386 14 2.5 14C2.77614 14 3 13.7761 3 13.5V7H1V6H3V3.5C3 2.11929 4.11929 1 5.5 1ZM14.3535 8.35352L11.707 11L14.3535 13.6465L13.6465 14.3535L11 11.707L8.35352 14.3535L7.64648 13.6465L10.293 11L7.64648 8.35352L8.35352 7.64648L11 10.293L13.6465 7.64648L14.3535 8.35352Z" fill="currentColor"/>
</g>
</svg>
