<svg xmlns="http://www.w3.org/2000/svg" width="16" height="16" fill="currentColor" viewBox="0 0 16 16">
  <path d="M7.163.25A2.587 2.587 0 0 1 9.75 2.837V3h-1.5v-.163a1.087 1.087 0 0 0-2.169-.108L5.83 5.25H9v1.5H5.67l-.768 6.925a2.334 2.334 0 0 1-4.652-.258V13h1.5v.417a.833.833 0 0 0 1.661.092l.751-6.759H2v-1.5h2.321l.267-2.67A2.588 2.588 0 0 1 7.163.25Zm7.413 8.23-2.1 2.52 2.1 2.52-1.152.96-1.924-2.308-1.924 2.308-1.152-.96 2.1-2.52-2.1-2.52 1.152-.96L11.5 9.828l1.924-2.308 1.152.96Z"/>
</svg>
