<svg width="16" height="16" viewBox="0 0 16 16" fill="none" xmlns="http://www.w3.org/2000/svg">
<g id="Garbage">
<path id="highlight-fill" d="M4 8.63965C4.00002 8.84951 4.0191 9.05915 4.05664 9.26562L4.91797 14H11.082L11.9434 9.26562C11.9809 9.05915 12 8.84951 12 8.63965V5H13V8.63965C13 8.90949 12.976 9.17884 12.9277 9.44434L11.9922 14.5898C11.9488 14.8274 11.7415 15 11.5 15H4.5C4.25847 15 4.05118 14.8274 4.00781 14.5898L3.07227 9.44434C3.024 9.17884 3.00002 8.90949 3 8.63965V5H4V8.63965ZM7 10H6V5H7V10ZM10.5 1C10.7761 1 11 1.22386 11 1.5V3H14V4H2V3H5V1.5C5 1.22386 5.22386 1 5.5 1H10.5ZM6 3H10V2H6V3Z" fill="#EB4747"/>
</g>
</svg>
