<svg xmlns="http://www.w3.org/2000/svg" width="16" height="16" fill="currentColor" viewBox="0 0 16 16">
  <path d="M2.75 13c0 .138.112.25.25.25h.833v1.5H3A1.75 1.75 0 0 1 1.25 13v-.833h1.5V13Zm4.417 1.75H5.5v-1.5h1.667v1.5Zm3.333 0H8.833v-1.5H10.5v1.5ZM14.75 13A1.75 1.75 0 0 1 13 14.75h-.833v-1.5H13a.25.25 0 0 0 .25-.25v-.833h1.5V13Zm-12-2.5h-1.5V8.833h1.5V10.5Zm12 0h-1.5V8.833h1.5V10.5Zm-12-3.333h-1.5V5.5h1.5v1.667Zm12 0h-1.5V5.5h1.5v1.667ZM3.833 2.75H3a.25.25 0 0 0-.25.25v.833h-1.5V3c0-.966.784-1.75 1.75-1.75h.833v1.5ZM13 1.25c.966 0 1.75.784 1.75 1.75v.833h-1.5V3a.25.25 0 0 0-.25-.25h-.833v-1.5H13Zm-5.833 1.5H5.5v-1.5h1.667v1.5Zm3.333 0H8.833v-1.5H10.5v1.5Z"/>
</svg>
