<svg width="16" height="16" viewBox="0 0 16 16" fill="none" xmlns="http://www.w3.org/2000/svg">
<g id="Group">
<path id="theme-fill" d="M2 13C2 13.5177 2.39333 13.9438 2.89746 13.9951L3 14H4V15H3C1.89543 15 1 14.1046 1 13V12H2V13ZM7.5 15H5V14H7.5V15ZM15 13C15 14.1046 14.1046 15 13 15H12V14H13C13.5523 14 14 13.5523 14 13V12H15V13ZM11 15H8.5V14H11V15ZM1 8.5H2V11H1V8.5ZM15 11H14V8.5H15V11ZM2 7.5H1V5H2V7.5ZM15 7.5H14V5H15V7.5ZM4 2H3C2.44772 2 2 2.44772 2 3V4H1V3C1 1.89543 1.89543 1 3 1H4V2ZM13 1C14.1046 1 15 1.89543 15 3V4H14V3C14 2.44772 13.5523 2 13 2H12V1H13ZM7.5 1V2H5V1H7.5ZM11 2H8.5V1H11V2Z" fill="currentColor"/>
</g>
</svg>
