<svg width="16" height="16" viewBox="0 0 16 16" fill="none" xmlns="http://www.w3.org/2000/svg">
<g id="Import">
<path id="theme-fill" d="M5 1V2H2.5C2.22386 2 2 2.22386 2 2.5V13.5C2 13.7761 2.22386 14 2.5 14H13.5C13.7761 14 14 13.7761 14 13.5V2.5C14 2.22386 13.7761 2 13.5 2H10V1H13.5C14.3284 1 15 1.67157 15 2.5V13.5C15 14.3284 14.3284 15 13.5 15H2.5C1.67157 15 1 14.3284 1 13.5V2.5C1 1.67157 1.67157 1 2.5 1H5Z" fill="currentColor"/>
<path id="highlight-fill" d="M8 8.29297L10.5 5.79297L11.207 6.5L7.5 10.207L3.79297 6.5L4.5 5.79297L7 8.29297V1H8V8.29297Z" fill="#7EEB47"/>
</g>
</svg>
