<svg xmlns="http://www.w3.org/2000/svg" width="16" height="16" fill="currentColor" viewBox="0 0 16 16">
  <g clip-path="url(#a)">
    <path d="M8 6.25a.75.75 0 0 1 .75.75v6.19l1.72-1.72a.75.75 0 1 1 1.06 1.06L8 16.06l-3.53-3.53a.75.75 0 1 1 1.06-1.06l1.72 1.72V7A.75.75 0 0 1 8 6.25Zm5-5c.966 0 1.75.784 1.75 1.75v10A1.75 1.75 0 0 1 13 14.75h-1v-1.5h1a.25.25 0 0 0 .25-.25V3a.25.25 0 0 0-.25-.25H3a.25.25 0 0 0-.25.25v10c0 .138.112.25.25.25h1v1.5H3A1.75 1.75 0 0 1 1.25 13V3c0-.966.784-1.75 1.75-1.75h10Z"/>
  </g>
  <defs>
    <clipPath id="a">
      <path d="M0 0h16v16H0z"/>
    </clipPath>
  </defs>
</svg>
