<svg width="16" height="16" viewBox="0 0 16 16" fill="none" xmlns="http://www.w3.org/2000/svg">
<g id="JSON">
<path id="theme-fill" d="M4 2C3.44772 2 3 2.44772 3 3V5.67188C2.99992 6.33481 2.73635 6.97068 2.26758 7.43945L1.70703 8L2.26758 8.56055C2.73635 9.02932 2.99992 9.66519 3 10.3281V13C3 13.5523 3.44772 14 4 14V15C2.89543 15 2 14.1046 2 13V10.3281C1.99992 9.93041 1.84178 9.54881 1.56055 9.26758L0.292969 8L1.56055 6.73242C1.84178 6.45119 1.99992 6.06959 2 5.67188V3C2 1.89543 2.89543 1 4 1V2ZM12 1C13.1046 1 14 1.89543 14 3V5.67188C14.0001 6.06959 14.1582 6.45119 14.4395 6.73242L15.707 8L14.4395 9.26758C14.1582 9.54881 14.0001 9.93041 14 10.3281V13C14 14.1046 13.1046 15 12 15V14C12.5523 14 13 13.5523 13 13V10.3281C13.0001 9.66519 13.2637 9.02932 13.7324 8.56055L14.293 8L13.7324 7.43945C13.2637 6.97068 13.0001 6.33481 13 5.67188V3C13 2.44772 12.5523 2 12 2V1Z" fill="currentColor"/>
<path id="highlight-fill" d="M5 7C5.55228 7 6 7.44772 6 8C6 8.55228 5.55228 9 5 9C4.44772 9 4 8.55228 4 8C4 7.44772 4.44772 7 5 7ZM8 7C8.55228 7 9 7.44772 9 8C9 8.55228 8.55228 9 8 9C7.44772 9 7 8.55228 7 8C7 7.44772 7.44772 7 8 7ZM11 7C11.5523 7 12 7.44772 12 8C12 8.55228 11.5523 9 11 9C10.4477 9 10 8.55228 10 8C10 7.44772 10.4477 7 11 7Z" fill="#47AEEB"/>
</g>
</svg>
