<svg width="16" height="16" viewBox="0 0 16 16" fill="none" xmlns="http://www.w3.org/2000/svg">
<g id="Move">
<path id="highlight-fill" d="M15.207 7.5L11.5 11.207L10.793 10.5L13.293 8H6V7H13.293L10.793 4.5L11.5 3.79297L15.207 7.5Z" fill="#47AEEB"/>
<path id="theme-fill" d="M13.5 1C14.3284 1 15 1.67157 15 2.5V4H14V2.5C14 2.22386 13.7761 2 13.5 2H2.5C2.22386 2 2 2.22386 2 2.5V13.5C2 13.7761 2.22386 14 2.5 14H13.5C13.7761 14 14 13.7761 14 13.5V11H15V13.5C15 14.3284 14.3284 15 13.5 15H2.5C1.67157 15 1 14.3284 1 13.5V2.5C1 1.67157 1.67157 1 2.5 1H13.5Z" fill="currentColor"/>
</g>
</svg>
