<svg width="16" height="16" viewBox="0 0 16 16" fill="none" xmlns="http://www.w3.org/2000/svg">
<g id="Rename">
<path id="theme-fill" d="M8 4H2.5C2.22386 4 2 4.22386 2 4.5V11.5C2 11.7761 2.22386 12 2.5 12H8V13H2.5C1.67157 13 1 12.3284 1 11.5V4.5C1 3.67157 1.67157 3 2.5 3H8V4ZM13.5 3C14.3284 3 15 3.67157 15 4.5V11.5C15 12.3284 14.3284 13 13.5 13H11V12H13.5C13.7761 12 14 11.7761 14 11.5V4.5C14 4.22386 13.7761 4 13.5 4H11V3H13.5Z" fill="currentColor"/>
<path id="highlight-fill" d="M12 2H10V14H12V15H7V14H9V2H7V1H12V2Z" fill="#47AEEB"/>
</g>
</svg>
