<svg width="16" height="16" viewBox="0 0 16 16" fill="none" xmlns="http://www.w3.org/2000/svg">
<g id="Save">
<path id="theme-fill" d="M12.5002 1.00006C12.6328 1.00013 12.76 1.05283 12.8538 1.14655L14.8538 3.14655C14.9474 3.2403 15.0002 3.36752 15.0002 3.50006V14.5001C15.0002 14.7761 14.7763 14.9999 14.5002 15.0001H1.50024C1.36771 15.0001 1.24048 14.9472 1.14673 14.8536C1.05297 14.7598 1.00026 14.6326 1.00024 14.5001V1.50006C1.00024 1.22392 1.2241 1.00006 1.50024 1.00006H12.5002ZM2.00024 14.0001H14.0002V3.70709L12.2932 2.00006H11.0002V5.50006C11.0002 5.77609 10.7763 5.99993 10.5002 6.00006H5.50024C5.22412 6.00006 5.00028 5.77618 5.00024 5.50006V2.00006H2.00024V14.0001ZM12.5002 7.00006C12.7763 7.00019 13.0002 7.224 13.0002 7.50006V12.5001C13.0002 12.7761 12.7763 12.9999 12.5002 13.0001H3.50024C3.22412 13.0001 3.00028 12.7762 3.00024 12.5001V7.50006C3.00024 7.22392 3.2241 7.00006 3.50024 7.00006H12.5002ZM4.00024 12.0001H12.0002V8.00006H4.00024V12.0001ZM6.00024 5.00006H10.0002V2.00006H6.00024V5.00006Z" fill="currentColor"/>
</g>
</svg>
