<svg width="16" height="16" viewBox="0 0 16 16" fill="none" xmlns="http://www.w3.org/2000/svg">
<g id="Search Bar Icon" clip-path="url(#clip0_50_850)">
<path id="theme-fill" d="M7.99945 -0.000148654C12.4176 -0.000148654 15.9992 3.58178 15.9995 7.99985C15.9995 9.84844 15.3707 11.5495 14.3178 12.9041L10.6703 9.25669C11.1938 8.46631 11.4995 7.51882 11.4995 6.49985C11.4992 3.73864 9.26072 1.49985 6.49945 1.49985C3.73829 1.49999 1.4997 3.73872 1.49945 6.49985C1.49945 9.26119 3.73814 11.4997 6.49945 11.4999C7.51852 11.4999 8.46586 11.1943 9.25629 10.6707L12.9028 14.3172C11.5481 15.3702 9.84807 15.9999 7.99945 15.9999C3.58129 15.9997 -0.000549316 12.418 -0.000549316 7.99985C-0.00030159 3.58187 3.58144 -1.42535e-05 7.99945 -0.000148654ZM6.49945 2.99985C8.43229 2.99985 9.9992 4.56707 9.99945 6.49985C9.99945 8.43285 8.43245 9.99985 6.49945 9.99985C4.56657 9.99972 2.99945 8.43277 2.99945 6.49985C2.9997 4.56715 4.56672 2.99999 6.49945 2.99985Z" fill="currentColor"/>
</g>
<defs>
<clipPath id="clip0_50_850">
<rect width="16" height="16" fill="currentColor"/>
</clipPath>
</defs>
</svg>
