<svg width="16" height="16" viewBox="0 0 16 16" fill="none" xmlns="http://www.w3.org/2000/svg">
<g id="Settings">
<path id="theme-fill" d="M9.46387 1.31445L10.1035 2.91504L11.6914 2.23633L12.0029 2.10352L13.8965 3.99707L13.7627 4.30859L13.0811 5.89355L14.6855 6.53613L15 6.66113V9.33887L14.6855 9.46484L13.0811 10.1045L13.7627 11.6914L13.8965 12.0029L12.0029 13.8965L11.6914 13.7627L10.1045 13.0811L9.46484 14.6855L9.33887 15H6.66113L6.53613 14.6855L5.89355 13.0811L4.30859 13.7627L3.99707 13.8965L2.10352 12.0029L2.23633 11.6914L2.91504 10.1035L1.31445 9.46387L1 9.33887V6.66211L1.31348 6.53613L2.91504 5.89355L2.23633 4.30859L2.10352 3.99707L3.99707 2.10352L4.30859 2.23633L5.89355 2.91504L6.53613 1.31348L6.66211 1H9.33887L9.46387 1.31445ZM6.74023 3.49121L6.65723 3.69727L6.44824 3.77441C6.3338 3.81646 6.22023 3.86316 6.1084 3.91504L5.90625 4.00977L4.22461 3.28906L3.28906 4.22461L4.00977 5.90625L3.91504 6.1084C3.86316 6.22023 3.81646 6.3338 3.77441 6.44824L3.69727 6.65723L3.49121 6.74023L2 7.33789V8.66113L3.49023 9.25781L3.69727 9.33984L3.77441 9.5498C3.81674 9.66518 3.86429 9.77907 3.91602 9.89062L4.00977 10.0928L3.28906 11.7744L4.22461 12.71L5.7002 12.0771L5.90527 11.9883L6.1084 12.083C6.22094 12.1352 6.33449 12.1825 6.44922 12.2246L6.65918 12.3018L6.74121 12.5088L7.33789 14H8.66113L9.25586 12.5088L9.33887 12.3018L9.54883 12.2246C9.66445 12.1822 9.77839 12.1351 9.89062 12.083L10.0938 11.9883L10.2988 12.0771L11.7744 12.71L12.71 11.7744L12.0771 10.2988L11.9883 10.0938L12.083 9.89062C12.1351 9.77839 12.1822 9.66445 12.2246 9.54883L12.3018 9.33887L12.5088 9.25586L14 8.66016V7.33789L12.5088 6.74121L12.3018 6.65918L12.2246 6.44922C12.1825 6.33449 12.1352 6.22094 12.083 6.1084L11.9883 5.90527L12.0771 5.7002L12.71 4.22461L11.7744 3.28906L10.0928 4.00977L9.89062 3.91602C9.77907 3.86429 9.66518 3.81674 9.5498 3.77441L9.33984 3.69727L9.25781 3.49023L8.66211 2H7.33789L6.74023 3.49121ZM8 5C9.65685 5 11 6.34315 11 8C11 9.65685 9.65685 11 8 11C6.34315 11 5 9.65685 5 8C5 6.34315 6.34315 5 8 5ZM8 6C6.89543 6 6 6.89543 6 8C6 9.10457 6.89543 10 8 10C9.10457 10 10 9.10457 10 8C10 6.89543 9.10457 6 8 6Z" fill="currentColor"/>
</g>
</svg>
